<svg width="319" height="132" viewBox="0 0 319 132" fill="none" xmlns="http://www.w3.org/2000/svg">
<g clip-path="url(#clip0_3570_3753)">
<rect x="1" y="1" width="317" height="130" rx="20" fill="#E3E6FB"/>
<g opacity="0.08">
<g opacity="0.8">
<ellipse cx="58.6522" cy="137.123" rx="34.1447" ry="33.8772" transform="rotate(-180 58.6522 137.123)" fill="url(#paint0_radial_3570_3753)"/>
<ellipse cx="177.574" cy="76.8806" rx="34.1447" ry="33.8772" transform="rotate(-180 177.574 76.8806)" fill="url(#paint1_radial_3570_3753)"/>
<ellipse cx="2.75313" cy="89.5193" rx="21.7527" ry="21.5744" transform="rotate(-180 2.75313 89.5193)" fill="url(#paint2_radial_3570_3753)" fill-opacity="0.3"/>
<ellipse cx="51.1628" cy="4.10857" rx="45.5559" ry="45.1102" transform="rotate(-180 51.1628 4.10857)" fill="url(#paint3_radial_3570_3753)"/>
</g>
</g>
<path d="M33.453 50.705C33.855 50.705 34.182 50.654 34.434 50.552C34.692 50.45 34.893 50.318 35.037 50.156C35.181 49.994 35.28 49.811 35.334 49.607C35.388 49.403 35.415 49.196 35.415 48.986C35.415 48.746 35.382 48.53 35.316 48.338C35.256 48.146 35.148 47.984 34.992 47.852C34.842 47.72 34.641 47.618 34.389 47.546C34.137 47.474 33.819 47.438 33.435 47.438H31.311V50.705H33.453ZM31.311 42.164V45.404H32.895C33.231 45.404 33.534 45.38 33.804 45.332C34.074 45.284 34.302 45.2 34.488 45.08C34.68 44.96 34.824 44.795 34.92 44.585C35.022 44.375 35.073 44.111 35.073 43.793C35.073 43.481 35.034 43.223 34.956 43.019C34.878 42.809 34.758 42.641 34.596 42.515C34.434 42.389 34.227 42.299 33.975 42.245C33.729 42.191 33.435 42.164 33.093 42.164H31.311ZM33.093 39.887C33.999 39.887 34.77 39.971 35.406 40.139C36.042 40.307 36.561 40.544 36.963 40.85C37.365 41.156 37.656 41.528 37.836 41.966C38.022 42.404 38.115 42.893 38.115 43.433C38.115 43.727 38.073 44.012 37.989 44.288C37.905 44.558 37.773 44.813 37.593 45.053C37.413 45.287 37.182 45.503 36.9 45.701C36.618 45.899 36.279 46.07 35.883 46.214C36.747 46.424 37.386 46.763 37.8 47.231C38.214 47.699 38.421 48.305 38.421 49.049C38.421 49.607 38.313 50.126 38.097 50.606C37.881 51.086 37.563 51.506 37.143 51.866C36.729 52.22 36.216 52.499 35.604 52.703C34.992 52.901 34.293 53 33.507 53H28.269V39.887H33.093ZM44.1825 43.523C44.8905 43.523 45.5355 43.634 46.1175 43.856C46.6995 44.078 47.1975 44.396 47.6115 44.81C48.0315 45.224 48.3555 45.728 48.5835 46.322C48.8175 46.91 48.9345 47.573 48.9345 48.311C48.9345 49.055 48.8175 49.727 48.5835 50.327C48.3555 50.921 48.0315 51.428 47.6115 51.848C47.1975 52.262 46.6995 52.583 46.1175 52.811C45.5355 53.033 44.8905 53.144 44.1825 53.144C43.4685 53.144 42.8175 53.033 42.2295 52.811C41.6475 52.583 41.1435 52.262 40.7175 51.848C40.2975 51.428 39.9705 50.921 39.7365 50.327C39.5085 49.727 39.3945 49.055 39.3945 48.311C39.3945 47.573 39.5085 46.91 39.7365 46.322C39.9705 45.728 40.2975 45.224 40.7175 44.81C41.1435 44.396 41.6475 44.078 42.2295 43.856C42.8175 43.634 43.4685 43.523 44.1825 43.523ZM44.1825 51.074C44.8245 51.074 45.2955 50.849 45.5955 50.399C45.9015 49.943 46.0545 49.253 46.0545 48.329C46.0545 47.405 45.9015 46.718 45.5955 46.268C45.2955 45.818 44.8245 45.593 44.1825 45.593C43.5225 45.593 43.0395 45.818 42.7335 46.268C42.4275 46.718 42.2745 47.405 42.2745 48.329C42.2745 49.253 42.4275 49.943 42.7335 50.399C43.0395 50.849 43.5225 51.074 44.1825 51.074ZM54.6415 43.523C55.3495 43.523 55.9945 43.634 56.5765 43.856C57.1585 44.078 57.6565 44.396 58.0705 44.81C58.4905 45.224 58.8145 45.728 59.0425 46.322C59.2765 46.91 59.3935 47.573 59.3935 48.311C59.3935 49.055 59.2765 49.727 59.0425 50.327C58.8145 50.921 58.4905 51.428 58.0705 51.848C57.6565 52.262 57.1585 52.583 56.5765 52.811C55.9945 53.033 55.3495 53.144 54.6415 53.144C53.9275 53.144 53.2765 53.033 52.6885 52.811C52.1065 52.583 51.6025 52.262 51.1765 51.848C50.7565 51.428 50.4295 50.921 50.1955 50.327C49.9675 49.727 49.8535 49.055 49.8535 48.311C49.8535 47.573 49.9675 46.91 50.1955 46.322C50.4295 45.728 50.7565 45.224 51.1765 44.81C51.6025 44.396 52.1065 44.078 52.6885 43.856C53.2765 43.634 53.9275 43.523 54.6415 43.523ZM54.6415 51.074C55.2835 51.074 55.7545 50.849 56.0545 50.399C56.3605 49.943 56.5135 49.253 56.5135 48.329C56.5135 47.405 56.3605 46.718 56.0545 46.268C55.7545 45.818 55.2835 45.593 54.6415 45.593C53.9815 45.593 53.4985 45.818 53.1925 46.268C52.8865 46.718 52.7335 47.405 52.7335 48.329C52.7335 49.253 52.8865 49.943 53.1925 50.399C53.4985 50.849 53.9815 51.074 54.6415 51.074ZM63.5885 39.527V47.078H64.0025C64.1765 47.078 64.3085 47.054 64.3985 47.006C64.4885 46.952 64.5785 46.865 64.6685 46.745L66.4325 44.117C66.5405 43.967 66.6635 43.856 66.8015 43.784C66.9395 43.706 67.1165 43.667 67.3325 43.667H69.8885L67.4765 46.988C67.2485 47.288 66.9785 47.534 66.6665 47.726C66.8045 47.828 66.9305 47.948 67.0445 48.086C67.1585 48.218 67.2665 48.368 67.3685 48.536L69.9965 53H67.4765C67.2665 53 67.0865 52.967 66.9365 52.901C66.7865 52.829 66.6605 52.706 66.5585 52.532L64.7945 49.229C64.7105 49.079 64.6235 48.983 64.5335 48.941C64.4435 48.893 64.3085 48.869 64.1285 48.869H63.5885V53H60.7985V39.527H63.5885ZM78.4032 42.227V45.548H82.8852V47.897H78.4032V53H75.3432V39.887H83.7852V42.227H78.4032ZM88.8694 49.202C88.3114 49.226 87.8524 49.274 87.4924 49.346C87.1324 49.418 86.8474 49.508 86.6374 49.616C86.4274 49.724 86.2804 49.847 86.1964 49.985C86.1184 50.123 86.0794 50.273 86.0794 50.435C86.0794 50.753 86.1664 50.978 86.3404 51.11C86.5144 51.236 86.7694 51.299 87.1054 51.299C87.4654 51.299 87.7804 51.236 88.0504 51.11C88.3204 50.984 88.5934 50.78 88.8694 50.498V49.202ZM83.8474 44.963C84.4114 44.465 85.0354 44.096 85.7194 43.856C86.4094 43.61 87.1474 43.487 87.9334 43.487C88.4974 43.487 89.0044 43.58 89.4544 43.766C89.9104 43.946 90.2944 44.201 90.6064 44.531C90.9244 44.855 91.1674 45.242 91.3354 45.692C91.5034 46.142 91.5874 46.634 91.5874 47.168V53H90.3094C90.0454 53 89.8444 52.964 89.7064 52.892C89.5744 52.82 89.4634 52.67 89.3734 52.442L89.1754 51.929C88.9414 52.127 88.7164 52.301 88.5004 52.451C88.2844 52.601 88.0594 52.73 87.8254 52.838C87.5974 52.94 87.3514 53.015 87.0874 53.063C86.8294 53.117 86.5414 53.144 86.2234 53.144C85.7974 53.144 85.4104 53.09 85.0624 52.982C84.7144 52.868 84.4174 52.703 84.1714 52.487C83.9314 52.271 83.7454 52.004 83.6134 51.686C83.4814 51.362 83.4154 50.99 83.4154 50.57C83.4154 50.234 83.4994 49.895 83.6674 49.553C83.8354 49.205 84.1264 48.89 84.5404 48.608C84.9544 48.32 85.5124 48.08 86.2144 47.888C86.9164 47.696 87.8014 47.588 88.8694 47.564V47.168C88.8694 46.622 88.7554 46.229 88.5274 45.989C88.3054 45.743 87.9874 45.62 87.5734 45.62C87.2434 45.62 86.9734 45.656 86.7634 45.728C86.5534 45.8 86.3644 45.881 86.1964 45.971C86.0344 46.061 85.8754 46.142 85.7194 46.214C85.5634 46.286 85.3774 46.322 85.1614 46.322C84.9694 46.322 84.8074 46.274 84.6754 46.178C84.5434 46.082 84.4354 45.968 84.3514 45.836L83.8474 44.963ZM99.3018 45.71C99.2298 45.824 99.1518 45.905 99.0678 45.953C98.9898 46.001 98.8878 46.025 98.7618 46.025C98.6298 46.025 98.4978 45.998 98.3658 45.944C98.2338 45.884 98.0898 45.821 97.9338 45.755C97.7838 45.689 97.6128 45.629 97.4208 45.575C97.2288 45.515 97.0098 45.485 96.7638 45.485C96.4098 45.485 96.1368 45.554 95.9448 45.692C95.7588 45.824 95.6658 46.01 95.6658 46.25C95.6658 46.424 95.7258 46.568 95.8458 46.682C95.9718 46.796 96.1368 46.898 96.3408 46.988C96.5448 47.072 96.7758 47.153 97.0338 47.231C97.2918 47.309 97.5558 47.396 97.8258 47.492C98.0958 47.588 98.3598 47.702 98.6178 47.834C98.8758 47.96 99.1068 48.119 99.3108 48.311C99.5148 48.497 99.6768 48.725 99.7968 48.995C99.9228 49.265 99.9858 49.589 99.9858 49.967C99.9858 50.429 99.9018 50.855 99.7338 51.245C99.5658 51.635 99.3138 51.971 98.9778 52.253C98.6478 52.535 98.2368 52.754 97.7448 52.91C97.2588 53.066 96.6978 53.144 96.0618 53.144C95.7438 53.144 95.4258 53.114 95.1078 53.054C94.7898 52.994 94.4808 52.913 94.1808 52.811C93.8868 52.709 93.6138 52.589 93.3618 52.451C93.1098 52.307 92.8938 52.154 92.7138 51.992L93.3618 50.966C93.4338 50.846 93.5238 50.753 93.6318 50.687C93.7458 50.615 93.8898 50.579 94.0638 50.579C94.2258 50.579 94.3698 50.615 94.4958 50.687C94.6278 50.759 94.7688 50.837 94.9188 50.921C95.0688 51.005 95.2428 51.083 95.4408 51.155C95.6448 51.227 95.8998 51.263 96.2058 51.263C96.4218 51.263 96.6048 51.242 96.7548 51.2C96.9048 51.152 97.0248 51.089 97.1148 51.011C97.2048 50.933 97.2708 50.846 97.3128 50.75C97.3548 50.654 97.3758 50.555 97.3758 50.453C97.3758 50.267 97.3128 50.114 97.1868 49.994C97.0608 49.874 96.8958 49.772 96.6918 49.688C96.4878 49.598 96.2538 49.517 95.9898 49.445C95.7318 49.367 95.4678 49.28 95.1978 49.184C94.9278 49.088 94.6608 48.974 94.3968 48.842C94.1388 48.704 93.9078 48.533 93.7038 48.329C93.4998 48.119 93.3348 47.864 93.2088 47.564C93.0828 47.264 93.0198 46.901 93.0198 46.475C93.0198 46.079 93.0948 45.704 93.2448 45.35C93.4008 44.99 93.6318 44.675 93.9378 44.405C94.2438 44.135 94.6278 43.922 95.0898 43.766C95.5518 43.604 96.0918 43.523 96.7098 43.523C97.0458 43.523 97.3698 43.553 97.6818 43.613C97.9998 43.673 98.2968 43.757 98.5728 43.865C98.8488 43.973 99.1008 44.102 99.3288 44.252C99.5568 44.396 99.7578 44.555 99.9318 44.729L99.3018 45.71ZM104.725 53.144C104.281 53.144 103.888 53.081 103.546 52.955C103.21 52.823 102.925 52.64 102.691 52.406C102.463 52.166 102.289 51.878 102.169 51.542C102.049 51.206 101.989 50.831 101.989 50.417V45.593H101.197C101.053 45.593 100.93 45.548 100.828 45.458C100.726 45.362 100.675 45.224 100.675 45.044V43.955L102.16 43.667L102.709 41.39C102.781 41.102 102.985 40.958 103.321 40.958H104.779V43.685H107.092V45.593H104.779V50.228C104.779 50.444 104.83 50.624 104.932 50.768C105.04 50.906 105.193 50.975 105.391 50.975C105.493 50.975 105.577 50.966 105.643 50.948C105.715 50.924 105.775 50.9 105.823 50.876C105.877 50.846 105.925 50.822 105.967 50.804C106.015 50.78 106.069 50.768 106.129 50.768C106.213 50.768 106.279 50.789 106.327 50.831C106.381 50.867 106.435 50.927 106.489 51.011L107.335 52.334C106.975 52.604 106.57 52.808 106.12 52.946C105.67 53.078 105.205 53.144 104.725 53.144ZM114.012 47.213C114.012 46.991 113.982 46.775 113.922 46.565C113.868 46.355 113.775 46.169 113.643 46.007C113.517 45.839 113.349 45.704 113.139 45.602C112.929 45.5 112.674 45.449 112.374 45.449C111.846 45.449 111.432 45.602 111.132 45.908C110.832 46.208 110.634 46.643 110.538 47.213H114.012ZM110.502 48.833C110.592 49.613 110.829 50.18 111.213 50.534C111.597 50.882 112.092 51.056 112.698 51.056C113.022 51.056 113.301 51.017 113.535 50.939C113.769 50.861 113.976 50.774 114.156 50.678C114.342 50.582 114.51 50.495 114.66 50.417C114.816 50.339 114.978 50.3 115.146 50.3C115.368 50.3 115.536 50.381 115.65 50.543L116.46 51.542C116.172 51.872 115.86 52.142 115.524 52.352C115.194 52.556 114.852 52.718 114.498 52.838C114.15 52.952 113.799 53.03 113.445 53.072C113.097 53.12 112.764 53.144 112.446 53.144C111.792 53.144 111.177 53.039 110.601 52.829C110.031 52.613 109.53 52.295 109.098 51.875C108.672 51.455 108.333 50.933 108.081 50.309C107.835 49.685 107.712 48.959 107.712 48.131C107.712 47.507 107.817 46.916 108.027 46.358C108.243 45.8 108.549 45.311 108.945 44.891C109.347 44.471 109.83 44.138 110.394 43.892C110.964 43.646 111.606 43.523 112.32 43.523C112.938 43.523 113.502 43.619 114.012 43.811C114.528 44.003 114.969 44.282 115.335 44.648C115.707 45.014 115.995 45.464 116.199 45.998C116.409 46.526 116.514 47.126 116.514 47.798C116.514 48.008 116.505 48.179 116.487 48.311C116.469 48.443 116.436 48.548 116.388 48.626C116.34 48.704 116.274 48.758 116.19 48.788C116.112 48.818 116.01 48.833 115.884 48.833H110.502ZM120.52 45.107C120.808 44.603 121.138 44.207 121.51 43.919C121.888 43.631 122.32 43.487 122.806 43.487C123.226 43.487 123.568 43.586 123.832 43.784L123.652 45.836C123.622 45.968 123.571 46.058 123.499 46.106C123.433 46.154 123.34 46.178 123.22 46.178C123.172 46.178 123.109 46.175 123.031 46.169C122.953 46.163 122.872 46.157 122.788 46.151C122.704 46.139 122.617 46.13 122.527 46.124C122.443 46.112 122.365 46.106 122.293 46.106C121.885 46.106 121.558 46.214 121.312 46.43C121.072 46.646 120.868 46.946 120.7 47.33V53H117.91V43.667H119.566C119.704 43.667 119.818 43.679 119.908 43.703C120.004 43.727 120.082 43.766 120.142 43.82C120.208 43.868 120.256 43.934 120.286 44.018C120.322 44.102 120.352 44.204 120.376 44.324L120.52 45.107ZM141.962 43.667L139.064 53H136.796C136.676 53 136.574 52.964 136.49 52.892C136.406 52.82 136.34 52.7 136.292 52.532L134.96 47.879C134.894 47.669 134.834 47.462 134.78 47.258C134.732 47.054 134.687 46.847 134.645 46.637C134.603 46.847 134.555 47.057 134.501 47.267C134.453 47.477 134.396 47.687 134.33 47.897L132.98 52.532C132.89 52.844 132.692 53 132.386 53H130.226L127.328 43.667H129.56C129.758 43.667 129.923 43.715 130.055 43.811C130.193 43.901 130.286 44.015 130.334 44.153L131.27 48.338C131.348 48.656 131.417 48.965 131.477 49.265C131.537 49.559 131.591 49.856 131.639 50.156C131.717 49.856 131.798 49.559 131.882 49.265C131.972 48.965 132.068 48.656 132.17 48.338L133.34 44.144C133.388 44.006 133.478 43.892 133.61 43.802C133.742 43.706 133.898 43.658 134.078 43.658H135.32C135.518 43.658 135.683 43.706 135.815 43.802C135.953 43.892 136.046 44.006 136.094 44.144L137.21 48.338C137.3 48.656 137.387 48.965 137.471 49.265C137.561 49.565 137.642 49.868 137.714 50.174C137.762 49.874 137.819 49.574 137.885 49.274C137.951 48.974 138.026 48.662 138.11 48.338L139.1 44.153C139.148 44.015 139.238 43.901 139.37 43.811C139.502 43.715 139.658 43.667 139.838 43.667H141.962ZM145.812 43.667V53H143.022V43.667H145.812ZM146.1 41.111C146.1 41.333 146.055 41.543 145.965 41.741C145.875 41.933 145.752 42.104 145.596 42.254C145.44 42.398 145.257 42.515 145.047 42.605C144.843 42.689 144.624 42.731 144.39 42.731C144.162 42.731 143.949 42.689 143.751 42.605C143.553 42.515 143.376 42.398 143.22 42.254C143.07 42.104 142.95 41.933 142.86 41.741C142.776 41.543 142.734 41.333 142.734 41.111C142.734 40.883 142.776 40.67 142.86 40.472C142.95 40.274 143.07 40.1 143.22 39.95C143.376 39.8 143.553 39.683 143.751 39.599C143.949 39.515 144.162 39.473 144.39 39.473C144.624 39.473 144.843 39.515 145.047 39.599C145.257 39.683 145.44 39.8 145.596 39.95C145.752 40.1 145.875 40.274 145.965 40.472C146.055 40.67 146.1 40.883 146.1 41.111ZM151.097 53.144C150.653 53.144 150.26 53.081 149.918 52.955C149.582 52.823 149.297 52.64 149.062 52.406C148.835 52.166 148.661 51.878 148.541 51.542C148.421 51.206 148.361 50.831 148.361 50.417V45.593H147.569C147.425 45.593 147.302 45.548 147.2 45.458C147.098 45.362 147.047 45.224 147.047 45.044V43.955L148.532 43.667L149.081 41.39C149.153 41.102 149.357 40.958 149.693 40.958H151.151V43.685H153.464V45.593H151.151V50.228C151.151 50.444 151.202 50.624 151.304 50.768C151.412 50.906 151.565 50.975 151.763 50.975C151.865 50.975 151.949 50.966 152.015 50.948C152.087 50.924 152.147 50.9 152.195 50.876C152.249 50.846 152.297 50.822 152.339 50.804C152.387 50.78 152.441 50.768 152.501 50.768C152.585 50.768 152.651 50.789 152.699 50.831C152.753 50.867 152.807 50.927 152.861 51.011L153.707 52.334C153.347 52.604 152.942 52.808 152.492 52.946C152.042 53.078 151.577 53.144 151.097 53.144ZM157.456 44.486C157.792 44.198 158.155 43.967 158.545 43.793C158.941 43.613 159.412 43.523 159.958 43.523C160.468 43.523 160.918 43.613 161.308 43.793C161.704 43.967 162.037 44.213 162.307 44.531C162.577 44.843 162.781 45.218 162.919 45.656C163.057 46.088 163.126 46.559 163.126 47.069V53H160.336V47.069C160.336 46.613 160.231 46.259 160.021 46.007C159.811 45.749 159.502 45.62 159.094 45.62C158.788 45.62 158.5 45.686 158.23 45.818C157.966 45.944 157.708 46.118 157.456 46.34V53H154.666V39.527H157.456V44.486ZM175.736 47.987L174.521 44.396C174.431 44.168 174.335 43.901 174.233 43.595C174.131 43.283 174.029 42.947 173.927 42.587C173.837 42.953 173.741 43.292 173.639 43.604C173.537 43.916 173.441 44.186 173.351 44.414L172.145 47.987H175.736ZM180.569 53H178.211C177.947 53 177.734 52.94 177.572 52.82C177.41 52.694 177.287 52.535 177.203 52.343L176.429 50.057H171.443L170.669 52.343C170.603 52.511 170.483 52.664 170.309 52.802C170.141 52.934 169.931 53 169.679 53H167.303L172.379 39.887H175.493L180.569 53ZM184.663 53H181.603V39.887H184.663V53Z" fill="#2A2A2A"/>
<path d="M36.408 66.969V77H35.05V72.436H29.639V77H28.281V66.969H29.639V71.442H35.05V66.969H36.408ZM42.3163 73.808C41.7423 73.8267 41.2523 73.8733 40.8463 73.948C40.445 74.018 40.116 74.1113 39.8593 74.228C39.6073 74.3447 39.423 74.4823 39.3063 74.641C39.1943 74.7997 39.1383 74.977 39.1383 75.173C39.1383 75.3597 39.1687 75.5207 39.2293 75.656C39.29 75.7913 39.3717 75.9033 39.4743 75.992C39.5817 76.076 39.7053 76.139 39.8453 76.181C39.99 76.2183 40.144 76.237 40.3073 76.237C40.5267 76.237 40.7273 76.216 40.9093 76.174C41.0913 76.1273 41.2617 76.062 41.4203 75.978C41.5837 75.894 41.7377 75.7937 41.8823 75.677C42.0317 75.5603 42.1763 75.4273 42.3163 75.278V73.808ZM38.2913 70.91C38.6833 70.532 39.1057 70.2497 39.5583 70.063C40.011 69.8763 40.5127 69.783 41.0633 69.783C41.46 69.783 41.8123 69.8483 42.1203 69.979C42.4283 70.1097 42.6873 70.2917 42.8973 70.525C43.1073 70.7583 43.266 71.0407 43.3733 71.372C43.4807 71.7033 43.5343 72.0673 43.5343 72.464V77H42.9813C42.86 77 42.7667 76.9813 42.7013 76.944C42.636 76.902 42.5847 76.8227 42.5473 76.706L42.4073 76.034C42.2207 76.2067 42.0387 76.3607 41.8613 76.496C41.684 76.6267 41.4973 76.7387 41.3013 76.832C41.1053 76.9207 40.8953 76.9883 40.6713 77.035C40.452 77.0863 40.207 77.112 39.9363 77.112C39.661 77.112 39.402 77.0747 39.1593 77C38.9167 76.9207 38.7043 76.804 38.5223 76.65C38.345 76.496 38.2027 76.3023 38.0953 76.069C37.9927 75.831 37.9413 75.551 37.9413 75.229C37.9413 74.949 38.0183 74.6807 38.1723 74.424C38.3263 74.1627 38.576 73.9317 38.9213 73.731C39.2667 73.5303 39.717 73.367 40.2723 73.241C40.8277 73.1103 41.509 73.0357 42.3163 73.017V72.464C42.3163 71.9133 42.1973 71.498 41.9593 71.218C41.7213 70.9333 41.3737 70.791 40.9163 70.791C40.6083 70.791 40.3493 70.8307 40.1393 70.91C39.934 70.9847 39.7543 71.071 39.6003 71.169C39.451 71.2623 39.3203 71.3487 39.2083 71.428C39.101 71.5027 38.9937 71.54 38.8863 71.54C38.8023 71.54 38.73 71.519 38.6693 71.477C38.6087 71.4303 38.5573 71.3743 38.5153 71.309L38.2913 70.91ZM49.5623 71.078C49.5063 71.1807 49.42 71.232 49.3033 71.232C49.2333 71.232 49.154 71.2063 49.0653 71.155C48.9766 71.1037 48.867 71.0477 48.7363 70.987C48.6103 70.9217 48.4586 70.8633 48.2813 70.812C48.104 70.756 47.894 70.728 47.6513 70.728C47.4413 70.728 47.2523 70.756 47.0843 70.812C46.9163 70.8633 46.7716 70.9357 46.6503 71.029C46.5336 71.1223 46.4426 71.232 46.3773 71.358C46.3166 71.4793 46.2863 71.6123 46.2863 71.757C46.2863 71.939 46.3376 72.0907 46.4403 72.212C46.5476 72.3333 46.6876 72.4383 46.8603 72.527C47.033 72.6157 47.229 72.695 47.4483 72.765C47.6676 72.8303 47.8916 72.9027 48.1203 72.982C48.3536 73.0567 48.58 73.1407 48.7993 73.234C49.0186 73.3273 49.2146 73.444 49.3873 73.584C49.56 73.724 49.6976 73.8967 49.8003 74.102C49.9076 74.3027 49.9613 74.5453 49.9613 74.83C49.9613 75.1567 49.903 75.46 49.7863 75.74C49.6696 76.0153 49.497 76.2557 49.2683 76.461C49.0396 76.6617 48.7596 76.8203 48.4283 76.937C48.097 77.0537 47.7143 77.112 47.2803 77.112C46.7856 77.112 46.3376 77.0327 45.9363 76.874C45.535 76.7107 45.1943 76.503 44.9143 76.251L45.2083 75.775C45.2456 75.7143 45.29 75.6677 45.3413 75.635C45.3926 75.6023 45.458 75.586 45.5373 75.586C45.6213 75.586 45.71 75.6187 45.8033 75.684C45.8966 75.7493 46.0086 75.8217 46.1393 75.901C46.2746 75.9803 46.438 76.0527 46.6293 76.118C46.8206 76.1833 47.0586 76.216 47.3433 76.216C47.586 76.216 47.7983 76.1857 47.9803 76.125C48.1623 76.0597 48.314 75.9733 48.4353 75.866C48.5566 75.7587 48.6453 75.635 48.7013 75.495C48.762 75.355 48.7923 75.2057 48.7923 75.047C48.7923 74.851 48.7386 74.69 48.6313 74.564C48.5286 74.4333 48.391 74.3237 48.2183 74.235C48.0456 74.1417 47.8473 74.0623 47.6233 73.997C47.404 73.927 47.1776 73.8547 46.9443 73.78C46.7156 73.7053 46.4893 73.6213 46.2653 73.528C46.046 73.43 45.85 73.3087 45.6773 73.164C45.5046 73.0193 45.3646 72.842 45.2573 72.632C45.1546 72.4173 45.1033 72.1583 45.1033 71.855C45.1033 71.5843 45.1593 71.3253 45.2713 71.078C45.3833 70.826 45.5466 70.6067 45.7613 70.42C45.976 70.2287 46.2396 70.077 46.5523 69.965C46.865 69.853 47.222 69.797 47.6233 69.797C48.09 69.797 48.5076 69.8717 48.8763 70.021C49.2496 70.1657 49.5716 70.3663 49.8423 70.623L49.5623 71.078ZM55.619 71.078C55.563 71.1807 55.4766 71.232 55.36 71.232C55.29 71.232 55.2106 71.2063 55.122 71.155C55.0333 71.1037 54.9236 71.0477 54.793 70.987C54.667 70.9217 54.5153 70.8633 54.338 70.812C54.1606 70.756 53.9506 70.728 53.708 70.728C53.498 70.728 53.309 70.756 53.141 70.812C52.973 70.8633 52.8283 70.9357 52.707 71.029C52.5903 71.1223 52.4993 71.232 52.434 71.358C52.3733 71.4793 52.343 71.6123 52.343 71.757C52.343 71.939 52.3943 72.0907 52.497 72.212C52.6043 72.3333 52.7443 72.4383 52.917 72.527C53.0896 72.6157 53.2856 72.695 53.505 72.765C53.7243 72.8303 53.9483 72.9027 54.177 72.982C54.4103 73.0567 54.6366 73.1407 54.856 73.234C55.0753 73.3273 55.2713 73.444 55.444 73.584C55.6166 73.724 55.7543 73.8967 55.857 74.102C55.9643 74.3027 56.018 74.5453 56.018 74.83C56.018 75.1567 55.9596 75.46 55.843 75.74C55.7263 76.0153 55.5536 76.2557 55.325 76.461C55.0963 76.6617 54.8163 76.8203 54.485 76.937C54.1536 77.0537 53.771 77.112 53.337 77.112C52.8423 77.112 52.3943 77.0327 51.993 76.874C51.5916 76.7107 51.251 76.503 50.971 76.251L51.265 75.775C51.3023 75.7143 51.3466 75.6677 51.398 75.635C51.4493 75.6023 51.5146 75.586 51.594 75.586C51.678 75.586 51.7666 75.6187 51.86 75.684C51.9533 75.7493 52.0653 75.8217 52.196 75.901C52.3313 75.9803 52.4946 76.0527 52.686 76.118C52.8773 76.1833 53.1153 76.216 53.4 76.216C53.6426 76.216 53.855 76.1857 54.037 76.125C54.219 76.0597 54.3706 75.9733 54.492 75.866C54.6133 75.7587 54.702 75.635 54.758 75.495C54.8186 75.355 54.849 75.2057 54.849 75.047C54.849 74.851 54.7953 74.69 54.688 74.564C54.5853 74.4333 54.4476 74.3237 54.275 74.235C54.1023 74.1417 53.904 74.0623 53.68 73.997C53.4606 73.927 53.2343 73.8547 53.001 73.78C52.7723 73.7053 52.546 73.6213 52.322 73.528C52.1026 73.43 51.9066 73.3087 51.734 73.164C51.5613 73.0193 51.4213 72.842 51.314 72.632C51.2113 72.4173 51.16 72.1583 51.16 71.855C51.16 71.5843 51.216 71.3253 51.328 71.078C51.44 70.826 51.6033 70.6067 51.818 70.42C52.0326 70.2287 52.2963 70.077 52.609 69.965C52.9216 69.853 53.2786 69.797 53.68 69.797C54.1466 69.797 54.5643 69.8717 54.933 70.021C55.3063 70.1657 55.6283 70.3663 55.899 70.623L55.619 71.078ZM58.8336 66.689V77H57.5876V66.689H58.8336ZM65.6002 72.681C65.6002 72.3917 65.5582 72.128 65.4742 71.89C65.3949 71.6473 65.2759 71.4397 65.1172 71.267C64.9632 71.0897 64.7742 70.9543 64.5502 70.861C64.3262 70.763 64.0719 70.714 63.7872 70.714C63.1899 70.714 62.7162 70.889 62.3662 71.239C62.0209 71.5843 61.8062 72.065 61.7222 72.681H65.6002ZM66.6082 76.006C66.4542 76.1927 66.2699 76.356 66.0552 76.496C65.8405 76.6313 65.6095 76.7433 65.3622 76.832C65.1195 76.9207 64.8675 76.986 64.6062 77.028C64.3449 77.0747 64.0859 77.098 63.8292 77.098C63.3392 77.098 62.8865 77.0163 62.4712 76.853C62.0605 76.685 61.7035 76.4423 61.4002 76.125C61.1015 75.803 60.8682 75.4063 60.7002 74.935C60.5322 74.4637 60.4482 73.9223 60.4482 73.311C60.4482 72.8163 60.5229 72.3543 60.6722 71.925C60.8262 71.4957 61.0455 71.1247 61.3302 70.812C61.6149 70.4947 61.9625 70.2473 62.3732 70.07C62.7839 69.888 63.2459 69.797 63.7592 69.797C64.1839 69.797 64.5759 69.8693 64.9352 70.014C65.2992 70.154 65.6119 70.3593 65.8732 70.63C66.1392 70.896 66.3469 71.2273 66.4962 71.624C66.6455 72.016 66.7202 72.464 66.7202 72.968C66.7202 73.164 66.6992 73.2947 66.6572 73.36C66.6152 73.4253 66.5359 73.458 66.4192 73.458H61.6802C61.6942 73.906 61.7549 74.2957 61.8622 74.627C61.9742 74.9583 62.1282 75.236 62.3242 75.46C62.5202 75.6793 62.7535 75.845 63.0242 75.957C63.2949 76.0643 63.5982 76.118 63.9342 76.118C64.2469 76.118 64.5152 76.083 64.7392 76.013C64.9679 75.9383 65.1639 75.859 65.3272 75.775C65.4905 75.691 65.6259 75.614 65.7332 75.544C65.8452 75.4693 65.9409 75.432 66.0202 75.432C66.1229 75.432 66.2022 75.4717 66.2582 75.551L66.6082 76.006ZM68.1387 72.275H71.5967V73.332H68.1387V72.275ZM73.908 77V70.973L73.124 70.882C73.026 70.8587 72.9443 70.8237 72.879 70.777C72.8183 70.7257 72.788 70.6533 72.788 70.56V70.049H73.908V69.363C73.908 68.957 73.964 68.5977 74.076 68.285C74.1927 67.9677 74.356 67.7017 74.566 67.487C74.7807 67.2677 75.0373 67.102 75.336 66.99C75.6347 66.878 75.9707 66.822 76.344 66.822C76.6613 66.822 76.953 66.8687 77.219 66.962L77.191 67.585C77.1817 67.697 77.1187 67.7577 77.002 67.767C76.89 67.7763 76.7383 67.781 76.547 67.781C76.3323 67.781 76.1363 67.809 75.959 67.865C75.7863 67.921 75.637 68.012 75.511 68.138C75.385 68.264 75.287 68.4297 75.217 68.635C75.1517 68.8403 75.119 69.0947 75.119 69.398V70.049H77.163V70.952H75.161V77H73.908ZM79.5372 71.33C79.7612 70.8447 80.0365 70.4667 80.3632 70.196C80.6899 69.9207 81.0889 69.783 81.5602 69.783C81.7095 69.783 81.8519 69.7993 81.9872 69.832C82.1272 69.8647 82.2509 69.916 82.3582 69.986L82.2672 70.917C82.2392 71.0337 82.1692 71.092 82.0572 71.092C81.9919 71.092 81.8962 71.078 81.7702 71.05C81.6442 71.022 81.5019 71.008 81.3432 71.008C81.1192 71.008 80.9185 71.0407 80.7412 71.106C80.5685 71.1713 80.4122 71.2693 80.2722 71.4C80.1369 71.526 80.0132 71.6847 79.9012 71.876C79.7939 72.0627 79.6959 72.2773 79.6072 72.52V77H78.3542V69.909H79.0682C79.2035 69.909 79.2969 69.9347 79.3482 69.986C79.3995 70.0373 79.4345 70.126 79.4532 70.252L79.5372 71.33ZM87.9127 72.681C87.9127 72.3917 87.8707 72.128 87.7867 71.89C87.7074 71.6473 87.5884 71.4397 87.4297 71.267C87.2757 71.0897 87.0867 70.9543 86.8627 70.861C86.6387 70.763 86.3844 70.714 86.0997 70.714C85.5024 70.714 85.0287 70.889 84.6787 71.239C84.3334 71.5843 84.1187 72.065 84.0347 72.681H87.9127ZM88.9207 76.006C88.7667 76.1927 88.5824 76.356 88.3677 76.496C88.153 76.6313 87.922 76.7433 87.6747 76.832C87.432 76.9207 87.18 76.986 86.9187 77.028C86.6574 77.0747 86.3984 77.098 86.1417 77.098C85.6517 77.098 85.199 77.0163 84.7837 76.853C84.373 76.685 84.016 76.4423 83.7127 76.125C83.414 75.803 83.1807 75.4063 83.0127 74.935C82.8447 74.4637 82.7607 73.9223 82.7607 73.311C82.7607 72.8163 82.8354 72.3543 82.9847 71.925C83.1387 71.4957 83.358 71.1247 83.6427 70.812C83.9274 70.4947 84.275 70.2473 84.6857 70.07C85.0964 69.888 85.5584 69.797 86.0717 69.797C86.4964 69.797 86.8884 69.8693 87.2477 70.014C87.6117 70.154 87.9244 70.3593 88.1857 70.63C88.4517 70.896 88.6594 71.2273 88.8087 71.624C88.958 72.016 89.0327 72.464 89.0327 72.968C89.0327 73.164 89.0117 73.2947 88.9697 73.36C88.9277 73.4253 88.8484 73.458 88.7317 73.458H83.9927C84.0067 73.906 84.0674 74.2957 84.1747 74.627C84.2867 74.9583 84.4407 75.236 84.6367 75.46C84.8327 75.6793 85.066 75.845 85.3367 75.957C85.6074 76.0643 85.9107 76.118 86.2467 76.118C86.5594 76.118 86.8277 76.083 87.0517 76.013C87.2804 75.9383 87.4764 75.859 87.6397 75.775C87.803 75.691 87.9384 75.614 88.0457 75.544C88.1577 75.4693 88.2534 75.432 88.3327 75.432C88.4354 75.432 88.5147 75.4717 88.5707 75.551L88.9207 76.006ZM95.3092 72.681C95.3092 72.3917 95.2672 72.128 95.1832 71.89C95.1038 71.6473 94.9848 71.4397 94.8262 71.267C94.6722 71.0897 94.4832 70.9543 94.2592 70.861C94.0352 70.763 93.7808 70.714 93.4962 70.714C92.8988 70.714 92.4252 70.889 92.0752 71.239C91.7298 71.5843 91.5152 72.065 91.4312 72.681H95.3092ZM96.3172 76.006C96.1632 76.1927 95.9788 76.356 95.7642 76.496C95.5495 76.6313 95.3185 76.7433 95.0712 76.832C94.8285 76.9207 94.5765 76.986 94.3152 77.028C94.0538 77.0747 93.7948 77.098 93.5382 77.098C93.0482 77.098 92.5955 77.0163 92.1802 76.853C91.7695 76.685 91.4125 76.4423 91.1092 76.125C90.8105 75.803 90.5772 75.4063 90.4092 74.935C90.2412 74.4637 90.1572 73.9223 90.1572 73.311C90.1572 72.8163 90.2318 72.3543 90.3812 71.925C90.5352 71.4957 90.7545 71.1247 91.0392 70.812C91.3238 70.4947 91.6715 70.2473 92.0822 70.07C92.4928 69.888 92.9548 69.797 93.4682 69.797C93.8928 69.797 94.2848 69.8693 94.6442 70.014C95.0082 70.154 95.3208 70.3593 95.5822 70.63C95.8482 70.896 96.0558 71.2273 96.2052 71.624C96.3545 72.016 96.4292 72.464 96.4292 72.968C96.4292 73.164 96.4082 73.2947 96.3662 73.36C96.3242 73.4253 96.2448 73.458 96.1282 73.458H91.3892C91.4032 73.906 91.4638 74.2957 91.5712 74.627C91.6832 74.9583 91.8372 75.236 92.0332 75.46C92.2292 75.6793 92.4625 75.845 92.7332 75.957C93.0038 76.0643 93.3072 76.118 93.6432 76.118C93.9558 76.118 94.2242 76.083 94.4482 76.013C94.6768 75.9383 94.8728 75.859 95.0362 75.775C95.1995 75.691 95.3348 75.614 95.4422 75.544C95.5542 75.4693 95.6498 75.432 95.7292 75.432C95.8318 75.432 95.9112 75.4717 95.9672 75.551L96.3172 76.006ZM102.858 69.909V77H101.612V69.909H102.858ZM103.124 67.683C103.124 67.8043 103.098 67.9187 103.047 68.026C103 68.1287 102.935 68.222 102.851 68.306C102.771 68.3853 102.676 68.4483 102.564 68.495C102.456 68.5417 102.342 68.565 102.221 68.565C102.099 68.565 101.985 68.5417 101.878 68.495C101.775 68.4483 101.684 68.3853 101.605 68.306C101.525 68.222 101.462 68.1287 101.416 68.026C101.369 67.9187 101.346 67.8043 101.346 67.683C101.346 67.5617 101.369 67.4473 101.416 67.34C101.462 67.228 101.525 67.1323 101.605 67.053C101.684 66.969 101.775 66.9037 101.878 66.857C101.985 66.8103 102.099 66.787 102.221 66.787C102.342 66.787 102.456 66.8103 102.564 66.857C102.676 66.9037 102.771 66.969 102.851 67.053C102.935 67.1323 103 67.228 103.047 67.34C103.098 67.4473 103.124 67.5617 103.124 67.683ZM106.081 70.938C106.235 70.7653 106.398 70.609 106.571 70.469C106.744 70.329 106.926 70.21 107.117 70.112C107.313 70.0093 107.518 69.9323 107.733 69.881C107.952 69.825 108.188 69.797 108.44 69.797C108.827 69.797 109.168 69.8623 109.462 69.993C109.761 70.119 110.008 70.301 110.204 70.539C110.405 70.7723 110.556 71.0547 110.659 71.386C110.762 71.7173 110.813 72.0837 110.813 72.485V77H109.56V72.485C109.56 71.9483 109.436 71.533 109.189 71.239C108.946 70.9403 108.575 70.791 108.076 70.791C107.707 70.791 107.362 70.8797 107.04 71.057C106.723 71.2343 106.429 71.4747 106.158 71.778V77H104.905V69.909H105.654C105.831 69.909 105.941 69.9953 105.983 70.168L106.081 70.938ZM116.842 71.078C116.786 71.1807 116.699 71.232 116.583 71.232C116.513 71.232 116.433 71.2063 116.345 71.155C116.256 71.1037 116.146 71.0477 116.016 70.987C115.89 70.9217 115.738 70.8633 115.561 70.812C115.383 70.756 115.173 70.728 114.931 70.728C114.721 70.728 114.532 70.756 114.364 70.812C114.196 70.8633 114.051 70.9357 113.93 71.029C113.813 71.1223 113.722 71.232 113.657 71.358C113.596 71.4793 113.566 71.6123 113.566 71.757C113.566 71.939 113.617 72.0907 113.72 72.212C113.827 72.3333 113.967 72.4383 114.14 72.527C114.312 72.6157 114.508 72.695 114.728 72.765C114.947 72.8303 115.171 72.9027 115.4 72.982C115.633 73.0567 115.859 73.1407 116.079 73.234C116.298 73.3273 116.494 73.444 116.667 73.584C116.839 73.724 116.977 73.8967 117.08 74.102C117.187 74.3027 117.241 74.5453 117.241 74.83C117.241 75.1567 117.182 75.46 117.066 75.74C116.949 76.0153 116.776 76.2557 116.548 76.461C116.319 76.6617 116.039 76.8203 115.708 76.937C115.376 77.0537 114.994 77.112 114.56 77.112C114.065 77.112 113.617 77.0327 113.216 76.874C112.814 76.7107 112.474 76.503 112.194 76.251L112.488 75.775C112.525 75.7143 112.569 75.6677 112.621 75.635C112.672 75.6023 112.737 75.586 112.817 75.586C112.901 75.586 112.989 75.6187 113.083 75.684C113.176 75.7493 113.288 75.8217 113.419 75.901C113.554 75.9803 113.717 76.0527 113.909 76.118C114.1 76.1833 114.338 76.216 114.623 76.216C114.865 76.216 115.078 76.1857 115.26 76.125C115.442 76.0597 115.593 75.9733 115.715 75.866C115.836 75.7587 115.925 75.635 115.981 75.495C116.041 75.355 116.072 75.2057 116.072 75.047C116.072 74.851 116.018 74.69 115.911 74.564C115.808 74.4333 115.67 74.3237 115.498 74.235C115.325 74.1417 115.127 74.0623 114.903 73.997C114.683 73.927 114.457 73.8547 114.224 73.78C113.995 73.7053 113.769 73.6213 113.545 73.528C113.325 73.43 113.129 73.3087 112.957 73.164C112.784 73.0193 112.644 72.842 112.537 72.632C112.434 72.4173 112.383 72.1583 112.383 71.855C112.383 71.5843 112.439 71.3253 112.551 71.078C112.663 70.826 112.826 70.6067 113.041 70.42C113.255 70.2287 113.519 70.077 113.832 69.965C114.144 69.853 114.501 69.797 114.903 69.797C115.369 69.797 115.787 69.8717 116.156 70.021C116.529 70.1657 116.851 70.3663 117.122 70.623L116.842 71.078ZM120.945 77.112C120.385 77.112 119.954 76.9557 119.65 76.643C119.352 76.3303 119.202 75.88 119.202 75.292V70.952H118.348C118.274 70.952 118.211 70.931 118.159 70.889C118.108 70.8423 118.082 70.7723 118.082 70.679V70.182L119.244 70.035L119.531 67.844C119.545 67.774 119.576 67.718 119.622 67.676C119.674 67.6293 119.739 67.606 119.818 67.606H120.448V70.049H122.499V70.952H120.448V75.208C120.448 75.5067 120.521 75.7283 120.665 75.873C120.81 76.0177 120.997 76.09 121.225 76.09C121.356 76.09 121.468 76.0737 121.561 76.041C121.659 76.0037 121.743 75.964 121.813 75.922C121.883 75.88 121.942 75.8427 121.988 75.81C122.04 75.7727 122.084 75.754 122.121 75.754C122.187 75.754 122.245 75.7937 122.296 75.873L122.66 76.468C122.446 76.6687 122.187 76.8273 121.883 76.944C121.58 77.056 121.267 77.112 120.945 77.112ZM127.629 73.808C127.055 73.8267 126.565 73.8733 126.159 73.948C125.757 74.018 125.428 74.1113 125.172 74.228C124.92 74.3447 124.735 74.4823 124.619 74.641C124.507 74.7997 124.451 74.977 124.451 75.173C124.451 75.3597 124.481 75.5207 124.542 75.656C124.602 75.7913 124.684 75.9033 124.787 75.992C124.894 76.076 125.018 76.139 125.158 76.181C125.302 76.2183 125.456 76.237 125.62 76.237C125.839 76.237 126.04 76.216 126.222 76.174C126.404 76.1273 126.574 76.062 126.733 75.978C126.896 75.894 127.05 75.7937 127.195 75.677C127.344 75.5603 127.489 75.4273 127.629 75.278V73.808ZM123.604 70.91C123.996 70.532 124.418 70.2497 124.871 70.063C125.323 69.8763 125.825 69.783 126.376 69.783C126.772 69.783 127.125 69.8483 127.433 69.979C127.741 70.1097 128 70.2917 128.21 70.525C128.42 70.7583 128.578 71.0407 128.686 71.372C128.793 71.7033 128.847 72.0673 128.847 72.464V77H128.294C128.172 77 128.079 76.9813 128.014 76.944C127.948 76.902 127.897 76.8227 127.86 76.706L127.72 76.034C127.533 76.2067 127.351 76.3607 127.174 76.496C126.996 76.6267 126.81 76.7387 126.614 76.832C126.418 76.9207 126.208 76.9883 125.984 77.035C125.764 77.0863 125.519 77.112 125.249 77.112C124.973 77.112 124.714 77.0747 124.472 77C124.229 76.9207 124.017 76.804 123.835 76.65C123.657 76.496 123.515 76.3023 123.408 76.069C123.305 75.831 123.254 75.551 123.254 75.229C123.254 74.949 123.331 74.6807 123.485 74.424C123.639 74.1627 123.888 73.9317 124.234 73.731C124.579 73.5303 125.029 73.367 125.585 73.241C126.14 73.1103 126.821 73.0357 127.629 73.017V72.464C127.629 71.9133 127.51 71.498 127.272 71.218C127.034 70.9333 126.686 70.791 126.229 70.791C125.921 70.791 125.662 70.8307 125.452 70.91C125.246 70.9847 125.067 71.071 124.913 71.169C124.763 71.2623 124.633 71.3487 124.521 71.428C124.413 71.5027 124.306 71.54 124.199 71.54C124.115 71.54 124.042 71.519 123.982 71.477C123.921 71.4303 123.87 71.3743 123.828 71.309L123.604 70.91ZM131.921 70.938C132.075 70.7653 132.238 70.609 132.411 70.469C132.583 70.329 132.765 70.21 132.957 70.112C133.153 70.0093 133.358 69.9323 133.573 69.881C133.792 69.825 134.028 69.797 134.28 69.797C134.667 69.797 135.008 69.8623 135.302 69.993C135.6 70.119 135.848 70.301 136.044 70.539C136.244 70.7723 136.396 71.0547 136.499 71.386C136.601 71.7173 136.653 72.0837 136.653 72.485V77H135.4V72.485C135.4 71.9483 135.276 71.533 135.029 71.239C134.786 70.9403 134.415 70.791 133.916 70.791C133.547 70.791 133.202 70.8797 132.88 71.057C132.562 71.2343 132.268 71.4747 131.998 71.778V77H130.745V69.909H131.494C131.671 69.909 131.781 69.9953 131.823 70.168L131.921 70.938ZM140.633 77.112C140.073 77.112 139.641 76.9557 139.338 76.643C139.039 76.3303 138.89 75.88 138.89 75.292V70.952H138.036C137.961 70.952 137.898 70.931 137.847 70.889C137.795 70.8423 137.77 70.7723 137.77 70.679V70.182L138.932 70.035L139.219 67.844C139.233 67.774 139.263 67.718 139.31 67.676C139.361 67.6293 139.426 67.606 139.506 67.606H140.136V70.049H142.187V70.952H140.136V75.208C140.136 75.5067 140.208 75.7283 140.353 75.873C140.497 76.0177 140.684 76.09 140.913 76.09C141.043 76.09 141.155 76.0737 141.249 76.041C141.347 76.0037 141.431 75.964 141.501 75.922C141.571 75.88 141.629 75.8427 141.676 75.81C141.727 75.7727 141.771 75.754 141.809 75.754C141.874 75.754 141.932 75.7937 141.984 75.873L142.348 76.468C142.133 76.6687 141.874 76.8273 141.571 76.944C141.267 77.056 140.955 77.112 140.633 77.112ZM153.635 77H152.389V70.952H148.735V75.208C148.735 75.5067 148.808 75.7283 148.952 75.873C149.097 76.0177 149.284 76.09 149.512 76.09C149.643 76.09 149.755 76.0737 149.848 76.041C149.946 76.0037 150.03 75.964 150.1 75.922C150.17 75.88 150.229 75.8427 150.275 75.81C150.327 75.7727 150.371 75.754 150.408 75.754C150.474 75.754 150.532 75.7937 150.583 75.873L150.947 76.468C150.733 76.6687 150.474 76.8273 150.17 76.944C149.867 77.056 149.554 77.112 149.232 77.112C148.672 77.112 148.241 76.9557 147.937 76.643C147.639 76.3303 147.489 75.88 147.489 75.292V70.952H146.635C146.561 70.952 146.498 70.931 146.446 70.889C146.395 70.8423 146.369 70.7723 146.369 70.679V70.182L147.531 70.028L147.818 67.844C147.832 67.774 147.863 67.718 147.909 67.676C147.961 67.6293 148.026 67.606 148.105 67.606H148.735V70.049H153.635V77ZM153.943 67.634C153.943 67.7553 153.918 67.8697 153.866 67.977C153.82 68.0797 153.754 68.1707 153.67 68.25C153.591 68.3293 153.498 68.3923 153.39 68.439C153.283 68.4857 153.169 68.509 153.047 68.509C152.926 68.509 152.812 68.4857 152.704 68.439C152.602 68.3923 152.511 68.3293 152.431 68.25C152.352 68.1707 152.289 68.0797 152.242 67.977C152.196 67.8697 152.172 67.7553 152.172 67.634C152.172 67.5127 152.196 67.3983 152.242 67.291C152.289 67.179 152.352 67.0833 152.431 67.004C152.511 66.92 152.602 66.8547 152.704 66.808C152.812 66.7613 152.926 66.738 153.047 66.738C153.169 66.738 153.283 66.7613 153.39 66.808C153.498 66.8547 153.591 66.92 153.67 67.004C153.754 67.0833 153.82 67.179 153.866 67.291C153.918 67.3983 153.943 67.5127 153.943 67.634ZM160.617 71.169C160.58 71.2203 160.543 71.26 160.505 71.288C160.468 71.316 160.417 71.33 160.351 71.33C160.281 71.33 160.204 71.302 160.12 71.246C160.036 71.1853 159.931 71.12 159.805 71.05C159.684 70.98 159.532 70.917 159.35 70.861C159.173 70.8003 158.954 70.77 158.692 70.77C158.342 70.77 158.034 70.833 157.768 70.959C157.502 71.0803 157.278 71.2577 157.096 71.491C156.919 71.7243 156.784 72.0067 156.69 72.338C156.602 72.6693 156.557 73.0403 156.557 73.451C156.557 73.8803 156.606 74.263 156.704 74.599C156.802 74.9303 156.94 75.2103 157.117 75.439C157.299 75.663 157.516 75.8357 157.768 75.957C158.025 76.0737 158.312 76.132 158.629 76.132C158.933 76.132 159.182 76.097 159.378 76.027C159.574 75.9523 159.735 75.8707 159.861 75.782C159.992 75.6933 160.099 75.614 160.183 75.544C160.272 75.4693 160.358 75.432 160.442 75.432C160.545 75.432 160.624 75.4717 160.68 75.551L161.03 76.006C160.876 76.1973 160.701 76.3607 160.505 76.496C160.309 76.6313 160.097 76.7457 159.868 76.839C159.644 76.9277 159.409 76.993 159.161 77.035C158.914 77.077 158.662 77.098 158.405 77.098C157.962 77.098 157.549 77.0163 157.166 76.853C156.788 76.6897 156.459 76.454 156.179 76.146C155.899 75.8333 155.68 75.4507 155.521 74.998C155.363 74.5453 155.283 74.0297 155.283 73.451C155.283 72.9237 155.356 72.436 155.5 71.988C155.65 71.54 155.864 71.155 156.144 70.833C156.429 70.5063 156.777 70.252 157.187 70.07C157.603 69.888 158.079 69.797 158.615 69.797C159.115 69.797 159.553 69.8787 159.931 70.042C160.314 70.2007 160.652 70.427 160.946 70.721L160.617 71.169ZM163.621 66.689V72.758H163.943C164.036 72.758 164.113 72.7463 164.174 72.723C164.239 72.695 164.307 72.6413 164.377 72.562L166.617 70.161C166.682 70.0817 166.75 70.021 166.82 69.979C166.895 69.9323 166.993 69.909 167.114 69.909H168.241L165.63 72.688C165.504 72.8467 165.369 72.9703 165.224 73.059C165.308 73.115 165.383 73.1803 165.448 73.255C165.518 73.325 165.583 73.4067 165.644 73.5L168.416 77H167.303C167.196 77 167.102 76.9837 167.023 76.951C166.948 76.9137 166.883 76.8483 166.827 76.755L164.496 73.85C164.426 73.752 164.356 73.689 164.286 73.661C164.221 73.6283 164.118 73.612 163.978 73.612H163.621V77H162.368V66.689H163.621ZM173.827 72.681C173.827 72.3917 173.785 72.128 173.701 71.89C173.621 71.6473 173.502 71.4397 173.344 71.267C173.19 71.0897 173.001 70.9543 172.777 70.861C172.553 70.763 172.298 70.714 172.014 70.714C171.416 70.714 170.943 70.889 170.593 71.239C170.247 71.5843 170.033 72.065 169.949 72.681H173.827ZM174.835 76.006C174.681 76.1927 174.496 76.356 174.282 76.496C174.067 76.6313 173.836 76.7433 173.589 76.832C173.346 76.9207 173.094 76.986 172.833 77.028C172.571 77.0747 172.312 77.098 172.056 77.098C171.566 77.098 171.113 77.0163 170.698 76.853C170.287 76.685 169.93 76.4423 169.627 76.125C169.328 75.803 169.095 75.4063 168.927 74.935C168.759 74.4637 168.675 73.9223 168.675 73.311C168.675 72.8163 168.749 72.3543 168.899 71.925C169.053 71.4957 169.272 71.1247 169.557 70.812C169.841 70.4947 170.189 70.2473 170.6 70.07C171.01 69.888 171.472 69.797 171.986 69.797C172.41 69.797 172.802 69.8693 173.162 70.014C173.526 70.154 173.838 70.3593 174.1 70.63C174.366 70.896 174.573 71.2273 174.723 71.624C174.872 72.016 174.947 72.464 174.947 72.968C174.947 73.164 174.926 73.2947 174.884 73.36C174.842 73.4253 174.762 73.458 174.646 73.458H169.907C169.921 73.906 169.981 74.2957 170.089 74.627C170.201 74.9583 170.355 75.236 170.551 75.46C170.747 75.6793 170.98 75.845 171.251 75.957C171.521 76.0643 171.825 76.118 172.161 76.118C172.473 76.118 172.742 76.083 172.966 76.013C173.194 75.9383 173.39 75.859 173.554 75.775C173.717 75.691 173.852 75.614 173.96 75.544C174.072 75.4693 174.167 75.432 174.247 75.432C174.349 75.432 174.429 75.4717 174.485 75.551L174.835 76.006ZM183.003 77H181.757V70.952H178.103V75.208C178.103 75.5067 178.175 75.7283 178.32 75.873C178.464 76.0177 178.651 76.09 178.88 76.09C179.01 76.09 179.122 76.0737 179.216 76.041C179.314 76.0037 179.398 75.964 179.468 75.922C179.538 75.88 179.596 75.8427 179.643 75.81C179.694 75.7727 179.738 75.754 179.776 75.754C179.841 75.754 179.899 75.7937 179.951 75.873L180.315 76.468C180.1 76.6687 179.841 76.8273 179.538 76.944C179.234 77.056 178.922 77.112 178.6 77.112C178.04 77.112 177.608 76.9557 177.305 76.643C177.006 76.3303 176.857 75.88 176.857 75.292V70.952H176.003C175.928 70.952 175.865 70.931 175.814 70.889C175.762 70.8423 175.737 70.7723 175.737 70.679V70.182L176.899 70.028L177.186 67.844C177.2 67.774 177.23 67.718 177.277 67.676C177.328 67.6293 177.393 67.606 177.473 67.606H178.103V70.049H183.003V77ZM183.311 67.634C183.311 67.7553 183.285 67.8697 183.234 67.977C183.187 68.0797 183.122 68.1707 183.038 68.25C182.958 68.3293 182.865 68.3923 182.758 68.439C182.65 68.4857 182.536 68.509 182.415 68.509C182.293 68.509 182.179 68.4857 182.072 68.439C181.969 68.3923 181.878 68.3293 181.799 68.25C181.719 68.1707 181.656 68.0797 181.61 67.977C181.563 67.8697 181.54 67.7553 181.54 67.634C181.54 67.5127 181.563 67.3983 181.61 67.291C181.656 67.179 181.719 67.0833 181.799 67.004C181.878 66.92 181.969 66.8547 182.072 66.808C182.179 66.7613 182.293 66.738 182.415 66.738C182.536 66.738 182.65 66.7613 182.758 66.808C182.865 66.8547 182.958 66.92 183.038 67.004C183.122 67.0833 183.187 67.179 183.234 67.291C183.285 67.3983 183.311 67.5127 183.311 67.634ZM186.226 70.938C186.38 70.7653 186.543 70.609 186.716 70.469C186.888 70.329 187.07 70.21 187.262 70.112C187.458 70.0093 187.663 69.9323 187.878 69.881C188.097 69.825 188.333 69.797 188.585 69.797C188.972 69.797 189.313 69.8623 189.607 69.993C189.905 70.119 190.153 70.301 190.349 70.539C190.549 70.7723 190.701 71.0547 190.804 71.386C190.906 71.7173 190.958 72.0837 190.958 72.485V77H189.705V72.485C189.705 71.9483 189.581 71.533 189.334 71.239C189.091 70.9403 188.72 70.791 188.221 70.791C187.852 70.791 187.507 70.8797 187.185 71.057C186.867 71.2343 186.573 71.4747 186.303 71.778V77H185.05V69.909H185.799C185.976 69.909 186.086 69.9953 186.128 70.168L186.226 70.938ZM195.327 73.535C195.579 73.535 195.801 73.5 195.992 73.43C196.183 73.36 196.344 73.262 196.475 73.136C196.606 73.01 196.704 72.8607 196.769 72.688C196.834 72.5107 196.867 72.317 196.867 72.107C196.867 71.673 196.734 71.3277 196.468 71.071C196.207 70.8143 195.826 70.686 195.327 70.686C194.823 70.686 194.438 70.8143 194.172 71.071C193.911 71.3277 193.78 71.673 193.78 72.107C193.78 72.317 193.813 72.5107 193.878 72.688C193.948 72.8607 194.048 73.01 194.179 73.136C194.31 73.262 194.471 73.36 194.662 73.43C194.853 73.5 195.075 73.535 195.327 73.535ZM197.574 77.385C197.574 77.2123 197.525 77.0723 197.427 76.965C197.329 76.8577 197.196 76.7737 197.028 76.713C196.865 76.6523 196.673 76.6103 196.454 76.587C196.235 76.559 196.001 76.538 195.754 76.524C195.511 76.51 195.264 76.496 195.012 76.482C194.76 76.468 194.517 76.4447 194.284 76.412C194.023 76.5333 193.808 76.6873 193.64 76.874C193.477 77.056 193.395 77.2707 193.395 77.518C193.395 77.6767 193.435 77.8237 193.514 77.959C193.598 78.099 193.724 78.218 193.892 78.316C194.06 78.4187 194.27 78.498 194.522 78.554C194.779 78.6147 195.08 78.645 195.425 78.645C195.761 78.645 196.062 78.6147 196.328 78.554C196.594 78.4933 196.818 78.407 197 78.295C197.187 78.183 197.329 78.05 197.427 77.896C197.525 77.742 197.574 77.5717 197.574 77.385ZM198.841 70.189V70.651C198.841 70.805 198.743 70.903 198.547 70.945L197.742 71.05C197.901 71.358 197.98 71.6987 197.98 72.072C197.98 72.4173 197.912 72.7323 197.777 73.017C197.646 73.297 197.464 73.5373 197.231 73.738C196.998 73.9387 196.718 74.0927 196.391 74.2C196.064 74.3073 195.71 74.361 195.327 74.361C194.996 74.361 194.683 74.3213 194.389 74.242C194.24 74.3353 194.125 74.4357 194.046 74.543C193.967 74.6457 193.927 74.7507 193.927 74.858C193.927 75.026 193.995 75.1543 194.13 75.243C194.27 75.327 194.452 75.3877 194.676 75.425C194.9 75.4623 195.154 75.4857 195.439 75.495C195.728 75.5043 196.022 75.5207 196.321 75.544C196.624 75.5627 196.918 75.5977 197.203 75.649C197.492 75.7003 197.749 75.7843 197.973 75.901C198.197 76.0177 198.377 76.1787 198.512 76.384C198.652 76.5893 198.722 76.8553 198.722 77.182C198.722 77.4853 198.645 77.7793 198.491 78.064C198.342 78.3487 198.125 78.6007 197.84 78.82C197.555 79.044 197.205 79.2213 196.79 79.352C196.379 79.4873 195.915 79.555 195.397 79.555C194.879 79.555 194.426 79.5037 194.039 79.401C193.652 79.2983 193.33 79.1607 193.073 78.988C192.816 78.8153 192.623 78.6147 192.492 78.386C192.366 78.162 192.303 77.9263 192.303 77.679C192.303 77.329 192.413 77.0327 192.632 76.79C192.851 76.5473 193.152 76.3537 193.535 76.209C193.325 76.1157 193.157 75.992 193.031 75.838C192.91 75.6793 192.849 75.467 192.849 75.201C192.849 75.0983 192.868 74.9933 192.905 74.886C192.942 74.774 192.998 74.6643 193.073 74.557C193.152 74.445 193.248 74.34 193.36 74.242C193.472 74.144 193.603 74.0577 193.752 73.983C193.402 73.787 193.129 73.528 192.933 73.206C192.737 72.8793 192.639 72.5013 192.639 72.072C192.639 71.7267 192.704 71.414 192.835 71.134C192.97 70.8493 193.157 70.609 193.395 70.413C193.633 70.2123 193.915 70.0583 194.242 69.951C194.573 69.8437 194.935 69.79 195.327 69.79C195.635 69.79 195.922 69.825 196.188 69.895C196.454 69.9603 196.697 70.0583 196.916 70.189H198.841ZM32.733 89.681C32.733 89.3917 32.691 89.128 32.607 88.89C32.5277 88.6473 32.4087 88.4397 32.25 88.267C32.096 88.0897 31.907 87.9543 31.683 87.861C31.459 87.763 31.2047 87.714 30.92 87.714C30.3227 87.714 29.849 87.889 29.499 88.239C29.1537 88.5843 28.939 89.065 28.855 89.681H32.733ZM33.741 93.006C33.587 93.1927 33.4027 93.356 33.188 93.496C32.9733 93.6313 32.7423 93.7433 32.495 93.832C32.2523 93.9207 32.0003 93.986 31.739 94.028C31.4777 94.0747 31.2187 94.098 30.962 94.098C30.472 94.098 30.0193 94.0163 29.604 93.853C29.1933 93.685 28.8363 93.4423 28.533 93.125C28.2343 92.803 28.001 92.4063 27.833 91.935C27.665 91.4637 27.581 90.9223 27.581 90.311C27.581 89.8163 27.6557 89.3543 27.805 88.925C27.959 88.4957 28.1783 88.1247 28.463 87.812C28.7477 87.4947 29.0953 87.2473 29.506 87.07C29.9167 86.888 30.3787 86.797 30.892 86.797C31.3167 86.797 31.7087 86.8693 32.068 87.014C32.432 87.154 32.7447 87.3593 33.006 87.63C33.272 87.896 33.4797 88.2273 33.629 88.624C33.7783 89.016 33.853 89.464 33.853 89.968C33.853 90.164 33.832 90.2947 33.79 90.36C33.748 90.4253 33.6687 90.458 33.552 90.458H28.813C28.827 90.906 28.8877 91.2957 28.995 91.627C29.107 91.9583 29.261 92.236 29.457 92.46C29.653 92.6793 29.8863 92.845 30.157 92.957C30.4277 93.0643 30.731 93.118 31.067 93.118C31.3797 93.118 31.648 93.083 31.872 93.013C32.1007 92.9383 32.2967 92.859 32.46 92.775C32.6233 92.691 32.7587 92.614 32.866 92.544C32.978 92.4693 33.0737 92.432 33.153 92.432C33.2557 92.432 33.335 92.4717 33.391 92.551L33.741 93.006ZM41.1118 94H39.9148C39.8121 94 39.7304 93.9743 39.6698 93.923C39.6138 93.867 39.5671 93.8063 39.5298 93.741L37.7448 90.962C37.7261 91.0273 37.7051 91.0927 37.6818 91.158C37.6631 91.2187 37.6351 91.2747 37.5978 91.326L35.9458 93.741C35.8991 93.8063 35.8478 93.867 35.7918 93.923C35.7404 93.9743 35.6681 94 35.5748 94H34.4618L36.9468 90.36L34.5598 86.909H35.7568C35.8594 86.909 35.9341 86.9253 35.9808 86.958C36.0274 86.9907 36.0694 87.0373 36.1068 87.098L37.8498 89.758C37.8871 89.6227 37.9454 89.492 38.0248 89.366L39.5508 87.126C39.5928 87.0607 39.6371 87.0093 39.6838 86.972C39.7351 86.93 39.7958 86.909 39.8658 86.909H41.0138L38.6268 90.297L41.1118 94ZM43.5134 92.292C43.7421 92.6 43.9918 92.817 44.2624 92.943C44.5331 93.069 44.8364 93.132 45.1724 93.132C45.8351 93.132 46.3438 92.8963 46.6984 92.425C47.0531 91.9537 47.2304 91.2817 47.2304 90.409C47.2304 89.947 47.1884 89.5503 47.1044 89.219C47.0251 88.8877 46.9084 88.617 46.7544 88.407C46.6004 88.1923 46.4114 88.036 46.1874 87.938C45.9634 87.84 45.7091 87.791 45.4244 87.791C45.0184 87.791 44.6614 87.8843 44.3534 88.071C44.0501 88.2577 43.7701 88.5213 43.5134 88.862V92.292ZM43.4504 88.008C43.7491 87.6393 44.0944 87.343 44.4864 87.119C44.8784 86.895 45.3264 86.783 45.8304 86.783C46.2411 86.783 46.6121 86.8623 46.9434 87.021C47.2748 87.175 47.5571 87.406 47.7904 87.714C48.0238 88.0173 48.2034 88.3953 48.3294 88.848C48.4554 89.3007 48.5184 89.821 48.5184 90.409C48.5184 90.9317 48.4484 91.4193 48.3084 91.872C48.1684 92.32 47.9654 92.7097 47.6994 93.041C47.4381 93.3677 47.1161 93.6267 46.7334 93.818C46.3554 94.0047 45.9284 94.098 45.4524 94.098C45.0184 94.098 44.6451 94.0257 44.3324 93.881C44.0244 93.7317 43.7514 93.5263 43.5134 93.265V96.401H42.2604V86.909H43.0094C43.1868 86.909 43.2964 86.9953 43.3384 87.168L43.4504 88.008ZM54.8541 89.681C54.8541 89.3917 54.8121 89.128 54.7281 88.89C54.6488 88.6473 54.5298 88.4397 54.3711 88.267C54.2171 88.0897 54.0281 87.9543 53.8041 87.861C53.5801 87.763 53.3258 87.714 53.0411 87.714C52.4438 87.714 51.9701 87.889 51.6201 88.239C51.2748 88.5843 51.0601 89.065 50.9761 89.681H54.8541ZM55.8621 93.006C55.7081 93.1927 55.5238 93.356 55.3091 93.496C55.0944 93.6313 54.8634 93.7433 54.6161 93.832C54.3734 93.9207 54.1214 93.986 53.8601 94.028C53.5988 94.0747 53.3398 94.098 53.0831 94.098C52.5931 94.098 52.1404 94.0163 51.7251 93.853C51.3144 93.685 50.9574 93.4423 50.6541 93.125C50.3554 92.803 50.1221 92.4063 49.9541 91.935C49.7861 91.4637 49.7021 90.9223 49.7021 90.311C49.7021 89.8163 49.7768 89.3543 49.9261 88.925C50.0801 88.4957 50.2994 88.1247 50.5841 87.812C50.8688 87.4947 51.2164 87.2473 51.6271 87.07C52.0378 86.888 52.4998 86.797 53.0131 86.797C53.4378 86.797 53.8298 86.8693 54.1891 87.014C54.5531 87.154 54.8658 87.3593 55.1271 87.63C55.3931 87.896 55.6008 88.2273 55.7501 88.624C55.8994 89.016 55.9741 89.464 55.9741 89.968C55.9741 90.164 55.9531 90.2947 55.9111 90.36C55.8691 90.4253 55.7898 90.458 55.6731 90.458H50.9341C50.9481 90.906 51.0088 91.2957 51.1161 91.627C51.2281 91.9583 51.3821 92.236 51.5781 92.46C51.7741 92.6793 52.0074 92.845 52.2781 92.957C52.5488 93.0643 52.8521 93.118 53.1881 93.118C53.5008 93.118 53.7691 93.083 53.9931 93.013C54.2218 92.9383 54.4178 92.859 54.5811 92.775C54.7444 92.691 54.8798 92.614 54.9871 92.544C55.0991 92.4693 55.1948 92.432 55.2741 92.432C55.3768 92.432 55.4561 92.4717 55.5121 92.551L55.8621 93.006ZM58.6876 88.33C58.9116 87.8447 59.1869 87.4667 59.5136 87.196C59.8402 86.9207 60.2392 86.783 60.7106 86.783C60.8599 86.783 61.0022 86.7993 61.1376 86.832C61.2776 86.8647 61.4012 86.916 61.5086 86.986L61.4176 87.917C61.3896 88.0337 61.3196 88.092 61.2076 88.092C61.1422 88.092 61.0466 88.078 60.9206 88.05C60.7946 88.022 60.6522 88.008 60.4936 88.008C60.2696 88.008 60.0689 88.0407 59.8916 88.106C59.7189 88.1713 59.5626 88.2693 59.4226 88.4C59.2872 88.526 59.1636 88.6847 59.0516 88.876C58.9442 89.0627 58.8462 89.2773 58.7576 89.52V94H57.5046V86.909H58.2186C58.3539 86.909 58.4472 86.9347 58.4986 86.986C58.5499 87.0373 58.5849 87.126 58.6036 87.252L58.6876 88.33ZM63.9202 86.909V94H62.6742V86.909H63.9202ZM64.1862 84.683C64.1862 84.8043 64.1605 84.9187 64.1092 85.026C64.0625 85.1287 63.9972 85.222 63.9132 85.306C63.8339 85.3853 63.7382 85.4483 63.6262 85.495C63.5189 85.5417 63.4045 85.565 63.2832 85.565C63.1619 85.565 63.0475 85.5417 62.9402 85.495C62.8375 85.4483 62.7465 85.3853 62.6672 85.306C62.5879 85.222 62.5249 85.1287 62.4782 85.026C62.4315 84.9187 62.4082 84.8043 62.4082 84.683C62.4082 84.5617 62.4315 84.4473 62.4782 84.34C62.5249 84.228 62.5879 84.1323 62.6672 84.053C62.7465 83.969 62.8375 83.9037 62.9402 83.857C63.0475 83.8103 63.1619 83.787 63.2832 83.787C63.4045 83.787 63.5189 83.8103 63.6262 83.857C63.7382 83.9037 63.8339 83.969 63.9132 84.053C63.9972 84.1323 64.0625 84.228 64.1092 84.34C64.1605 84.4473 64.1862 84.5617 64.1862 84.683ZM70.7135 89.681C70.7135 89.3917 70.6715 89.128 70.5875 88.89C70.5081 88.6473 70.3891 88.4397 70.2305 88.267C70.0765 88.0897 69.8875 87.9543 69.6635 87.861C69.4395 87.763 69.1851 87.714 68.9005 87.714C68.3031 87.714 67.8295 87.889 67.4795 88.239C67.1341 88.5843 66.9195 89.065 66.8355 89.681H70.7135ZM71.7215 93.006C71.5675 93.1927 71.3831 93.356 71.1685 93.496C70.9538 93.6313 70.7228 93.7433 70.4755 93.832C70.2328 93.9207 69.9808 93.986 69.7195 94.028C69.4581 94.0747 69.1991 94.098 68.9425 94.098C68.4525 94.098 67.9998 94.0163 67.5845 93.853C67.1738 93.685 66.8168 93.4423 66.5135 93.125C66.2148 92.803 65.9815 92.4063 65.8135 91.935C65.6455 91.4637 65.5615 90.9223 65.5615 90.311C65.5615 89.8163 65.6361 89.3543 65.7855 88.925C65.9395 88.4957 66.1588 88.1247 66.4435 87.812C66.7281 87.4947 67.0758 87.2473 67.4865 87.07C67.8971 86.888 68.3591 86.797 68.8725 86.797C69.2971 86.797 69.6891 86.8693 70.0485 87.014C70.4125 87.154 70.7251 87.3593 70.9865 87.63C71.2525 87.896 71.4601 88.2273 71.6095 88.624C71.7588 89.016 71.8335 89.464 71.8335 89.968C71.8335 90.164 71.8125 90.2947 71.7705 90.36C71.7285 90.4253 71.6491 90.458 71.5325 90.458H66.7935C66.8075 90.906 66.8681 91.2957 66.9755 91.627C67.0875 91.9583 67.2415 92.236 67.4375 92.46C67.6335 92.6793 67.8668 92.845 68.1375 92.957C68.4081 93.0643 68.7115 93.118 69.0475 93.118C69.3601 93.118 69.6285 93.083 69.8525 93.013C70.0811 92.9383 70.2771 92.859 70.4405 92.775C70.6038 92.691 70.7391 92.614 70.8465 92.544C70.9585 92.4693 71.0541 92.432 71.1335 92.432C71.2361 92.432 71.3155 92.4717 71.3715 92.551L71.7215 93.006ZM74.54 87.938C74.694 87.7653 74.8573 87.609 75.03 87.469C75.2026 87.329 75.3846 87.21 75.576 87.112C75.772 87.0093 75.9773 86.9323 76.192 86.881C76.4113 86.825 76.647 86.797 76.899 86.797C77.2863 86.797 77.627 86.8623 77.921 86.993C78.2196 87.119 78.467 87.301 78.663 87.539C78.8636 87.7723 79.0153 88.0547 79.118 88.386C79.2206 88.7173 79.272 89.0837 79.272 89.485V94H78.019V89.485C78.019 88.9483 77.8953 88.533 77.648 88.239C77.4053 87.9403 77.0343 87.791 76.535 87.791C76.1663 87.791 75.821 87.8797 75.499 88.057C75.1816 88.2343 74.8876 88.4747 74.617 88.778V94H73.364V86.909H74.113C74.2903 86.909 74.4 86.9953 74.442 87.168L74.54 87.938ZM86.1056 88.169C86.0683 88.2203 86.0309 88.26 85.9936 88.288C85.9563 88.316 85.9049 88.33 85.8396 88.33C85.7696 88.33 85.6926 88.302 85.6086 88.246C85.5246 88.1853 85.4196 88.12 85.2936 88.05C85.1723 87.98 85.0206 87.917 84.8386 87.861C84.6613 87.8003 84.4419 87.77 84.1806 87.77C83.8306 87.77 83.5226 87.833 83.2566 87.959C82.9906 88.0803 82.7666 88.2577 82.5846 88.491C82.4073 88.7243 82.2719 89.0067 82.1786 89.338C82.0899 89.6693 82.0456 90.0403 82.0456 90.451C82.0456 90.8803 82.0946 91.263 82.1926 91.599C82.2906 91.9303 82.4283 92.2103 82.6056 92.439C82.7876 92.663 83.0046 92.8357 83.2566 92.957C83.5133 93.0737 83.8003 93.132 84.1176 93.132C84.4209 93.132 84.6706 93.097 84.8666 93.027C85.0626 92.9523 85.2236 92.8707 85.3496 92.782C85.4803 92.6933 85.5876 92.614 85.6716 92.544C85.7603 92.4693 85.8466 92.432 85.9306 92.432C86.0333 92.432 86.1126 92.4717 86.1686 92.551L86.5186 93.006C86.3646 93.1973 86.1896 93.3607 85.9936 93.496C85.7976 93.6313 85.5853 93.7457 85.3566 93.839C85.1326 93.9277 84.8969 93.993 84.6496 94.035C84.4023 94.077 84.1503 94.098 83.8936 94.098C83.4503 94.098 83.0373 94.0163 82.6546 93.853C82.2766 93.6897 81.9476 93.454 81.6676 93.146C81.3876 92.8333 81.1683 92.4507 81.0096 91.998C80.8509 91.5453 80.7716 91.0297 80.7716 90.451C80.7716 89.9237 80.8439 89.436 80.9886 88.988C81.1379 88.54 81.3526 88.155 81.6326 87.833C81.9173 87.5063 82.2649 87.252 82.6756 87.07C83.0909 86.888 83.5669 86.797 84.1036 86.797C84.6029 86.797 85.0416 86.8787 85.4196 87.042C85.8023 87.2007 86.1406 87.427 86.4346 87.721L86.1056 88.169ZM92.4791 89.681C92.4791 89.3917 92.4371 89.128 92.3531 88.89C92.2738 88.6473 92.1548 88.4397 91.9961 88.267C91.8421 88.0897 91.6531 87.9543 91.4291 87.861C91.2051 87.763 90.9508 87.714 90.6661 87.714C90.0688 87.714 89.5951 87.889 89.2451 88.239C88.8998 88.5843 88.6851 89.065 88.6011 89.681H92.4791ZM93.4871 93.006C93.3331 93.1927 93.1488 93.356 92.9341 93.496C92.7194 93.6313 92.4884 93.7433 92.2411 93.832C91.9984 93.9207 91.7464 93.986 91.4851 94.028C91.2238 94.0747 90.9648 94.098 90.7081 94.098C90.2181 94.098 89.7654 94.0163 89.3501 93.853C88.9394 93.685 88.5824 93.4423 88.2791 93.125C87.9804 92.803 87.7471 92.4063 87.5791 91.935C87.4111 91.4637 87.3271 90.9223 87.3271 90.311C87.3271 89.8163 87.4018 89.3543 87.5511 88.925C87.7051 88.4957 87.9244 88.1247 88.2091 87.812C88.4938 87.4947 88.8414 87.2473 89.2521 87.07C89.6628 86.888 90.1248 86.797 90.6381 86.797C91.0628 86.797 91.4548 86.8693 91.8141 87.014C92.1781 87.154 92.4908 87.3593 92.7521 87.63C93.0181 87.896 93.2258 88.2273 93.3751 88.624C93.5244 89.016 93.5991 89.464 93.5991 89.968C93.5991 90.164 93.5781 90.2947 93.5361 90.36C93.4941 90.4253 93.4148 90.458 93.2981 90.458H88.5591C88.5731 90.906 88.6338 91.2957 88.7411 91.627C88.8531 91.9583 89.0071 92.236 89.2031 92.46C89.3991 92.6793 89.6324 92.845 89.9031 92.957C90.1738 93.0643 90.4771 93.118 90.8131 93.118C91.1258 93.118 91.3941 93.083 91.6181 93.013C91.8468 92.9383 92.0428 92.859 92.2061 92.775C92.3694 92.691 92.5048 92.614 92.6121 92.544C92.7241 92.4693 92.8198 92.432 92.8991 92.432C93.0018 92.432 93.0811 92.4717 93.1371 92.551L93.4871 93.006ZM94.9196 93.23C94.9196 93.1087 94.9406 92.9943 94.9826 92.887C95.0292 92.7797 95.0899 92.6863 95.1646 92.607C95.2439 92.5277 95.3372 92.4647 95.4446 92.418C95.5519 92.3713 95.6662 92.348 95.7876 92.348C95.9089 92.348 96.0232 92.3713 96.1306 92.418C96.2379 92.4647 96.3312 92.5277 96.4106 92.607C96.4899 92.6863 96.5529 92.7797 96.5996 92.887C96.6462 92.9943 96.6696 93.1087 96.6696 93.23C96.6696 93.356 96.6462 93.4727 96.5996 93.58C96.5529 93.6827 96.4899 93.7737 96.4106 93.853C96.3312 93.9323 96.2379 93.993 96.1306 94.035C96.0232 94.0817 95.9089 94.105 95.7876 94.105C95.6662 94.105 95.5519 94.0817 95.4446 94.035C95.3372 93.993 95.2439 93.9323 95.1646 93.853C95.0899 93.7737 95.0292 93.6827 94.9826 93.58C94.9406 93.4727 94.9196 93.356 94.9196 93.23Z" fill="#333333"/>
<g clip-path="url(#clip1_3570_3753)">
<mask id="mask0_3570_3753" style="mask-type:luminance" maskUnits="userSpaceOnUse" x="201" y="45" width="91" height="91">
<path d="M291.37 45H201.631V135.149H291.37V45Z" fill="white"/>
</mask>
<g mask="url(#mask0_3570_3753)">
<path d="M262.647 90.4841C262.602 90.5761 261.732 92.6528 260.208 97.1001L257.455 105.179L260.547 113.797C261.038 115.164 260.818 117.421 261.304 119.489C262.445 124.336 264.113 129.553 264.113 129.676C264.113 129.699 267.189 129.042 267.152 127.787C266.937 120.397 262.999 91.9297 262.648 90.1681C262.615 89.9845 262.705 90.3461 262.647 90.4841Z" fill="#275AA6"/>
<path d="M229.216 104.711C229.216 104.711 224.124 97.6696 229.216 93.3042C231.063 91.7221 232.289 91.1364 236.344 90.0403C240.398 88.9442 243.529 87.7578 247.293 87.7578C251.056 87.7578 263.431 90.0403 263.431 90.0403C263.431 90.0403 264.65 93.4477 265.675 97.55C264.157 98.9267 264.085 97.5537 263.431 99.4942C261.913 103.993 251.459 123.101 251.332 123.466C250.441 126.005 236.291 123.542 236.344 123.466C236.847 118.767 233.839 113.265 232.787 106.852C233.469 105.826 231.622 109.277 232.787 106.852" fill="#3D86CF"/>
<path d="M245.697 94.6374C240.487 97.902 233.163 107.475 233.093 107.531C233.023 107.574 233.85 113.972 233.85 114.038C233.85 114.093 231.367 131.795 231.367 131.795C231.367 131.795 239.262 135.152 246.61 135.152C253.959 135.152 263.52 130.482 263.52 130.482L259.854 118.116C258.411 115.049 257.165 112.532 257.094 112.532C257.023 112.532 255.988 112.884 254.797 113.301C254.068 113.584 253.325 113.83 252.571 114.037C252.543 114.016 254.923 108.684 257.865 102.188C259.647 98.2427 261.036 94.1311 262.01 89.913C262.511 89.7337 262.053 89.8042 262.01 89.913C261.922 89.9467 261.842 89.3134 261.619 89.2768C260.975 89.1779 259.951 88.9812 258.34 88.7169L254.932 88.0781L245.697 94.6374Z" fill="#275AA6"/>
<path d="M240.586 83.25H247.824V89.5225C247.824 89.5225 245.922 90.1959 244.113 90.1959C242.909 90.166 241.717 89.9385 240.586 89.5225V83.25Z" fill="#F6BC91"/>
<path d="M257.158 77.0148C256.374 77.0148 255.968 76.9298 255.801 76.7303C255.621 76.5159 255.69 76.1218 255.794 75.5253C255.926 74.8554 255.996 74.1747 256.003 73.4917C256.002 72.8441 256.121 72.2019 256.355 71.5978C256.574 71.0277 256.899 70.5038 257.311 70.053C257.709 69.616 258.19 69.263 258.726 69.0142C259.269 68.7632 259.859 68.6334 260.456 68.6338C260.576 68.6272 260.696 68.6542 260.801 68.7117C260.907 68.7691 260.994 68.8547 261.054 68.959C261.201 69.2482 261.269 69.5714 261.25 69.8954C261.225 70.6174 261.094 71.3319 260.864 72.0163C260.608 72.8298 260.275 73.617 259.869 74.367C259.512 75.0557 259.062 75.6921 258.531 76.2585C258.036 76.761 257.574 77.0148 257.158 77.0148Z" fill="#302E2E"/>
<path d="M260.456 68.7387C259.874 68.7383 259.299 68.8646 258.771 69.1093C258.248 69.3521 257.778 69.697 257.39 70.1236C256.987 70.5643 256.669 71.0768 256.455 71.6345C256.226 72.226 256.109 72.8552 256.111 73.4895C256.104 74.1786 256.034 74.8657 255.9 75.5417C255.804 76.0881 255.735 76.482 255.882 76.6588C256.024 76.8268 256.428 76.9041 257.157 76.9041C257.538 76.9041 257.986 76.6537 258.454 76.1801C258.977 75.621 259.421 74.9928 259.774 74.3131C260.176 73.569 260.507 72.788 260.76 71.9809C260.988 71.3072 261.117 70.6038 261.143 69.893C261.16 69.5889 261.098 69.2853 260.962 69.0124C260.912 68.9239 260.838 68.8513 260.748 68.8029C260.659 68.7544 260.558 68.7321 260.456 68.7387ZM260.456 68.5234C262.975 68.5234 259.676 77.1204 257.158 77.1204C254.639 77.1204 255.896 76.2322 255.896 73.4895C255.896 70.7469 257.937 68.5234 260.456 68.5234Z" fill="#707070"/>
<path d="M231.248 76.7727C230.832 76.7727 230.369 76.5184 229.874 76.0163C229.344 75.4501 228.894 74.8141 228.536 74.1257C228.131 73.3757 227.798 72.5885 227.542 71.7749C227.311 71.0903 227.181 70.3756 227.155 69.6534C227.137 69.3294 227.204 69.0063 227.352 68.717C227.411 68.6128 227.499 68.5271 227.604 68.4697C227.71 68.4122 227.83 68.385 227.949 68.3916C228.547 68.3912 229.137 68.521 229.679 68.772C230.216 69.0208 230.697 69.374 231.095 69.8113C231.508 70.2618 231.832 70.7855 232.052 71.3556C232.286 71.9597 232.405 72.6022 232.403 73.2497C232.41 73.9327 232.48 74.6134 232.612 75.2833C232.717 75.8798 232.786 76.2739 232.606 76.4883C232.437 76.688 232.032 76.7727 231.248 76.7727Z" fill="#302E2E"/>
<path d="M227.948 68.5043C227.847 68.4978 227.746 68.5201 227.656 68.5685C227.567 68.6167 227.493 68.6893 227.443 68.7778C227.307 69.0507 227.245 69.3545 227.262 69.6587C227.288 70.3698 227.417 71.0734 227.644 71.7476C227.898 72.5546 228.228 73.3357 228.631 74.0798C228.983 74.7595 229.427 75.3876 229.95 75.9467C230.418 76.4203 230.866 76.6701 231.247 76.6701C231.975 76.6701 232.38 76.5918 232.521 76.4248C232.669 76.2488 232.6 75.8541 232.504 75.3077C232.371 74.6317 232.3 73.9447 232.294 73.2556C232.295 72.6213 232.179 71.9921 231.95 71.4005C231.735 70.8428 231.418 70.3304 231.015 69.8896C230.626 69.4628 230.157 69.1178 229.634 68.8749C229.105 68.6302 228.53 68.5039 227.948 68.5043ZM227.948 68.2891C230.467 68.2891 232.509 70.5125 232.509 73.2552C232.509 75.9978 233.766 76.886 231.247 76.886C228.728 76.886 225.43 68.2891 227.948 68.2891Z" fill="#707070"/>
<path d="M244.323 88.0116H244.323C242.587 88.0187 240.889 87.5093 239.444 86.5484L239.444 86.5482C238.7 86.0594 238.007 85.4991 237.372 84.8756L237.372 84.8754C236.675 84.1931 236.017 83.4723 235.4 82.7168L235.4 82.7162C233.993 81.0412 232.784 79.2106 231.794 77.2603C230.739 75.1192 230.205 73.1354 230.205 71.3635C230.202 69.5464 230.58 67.7488 231.313 66.0863C231.67 65.2773 232.105 64.5056 232.613 63.7824C233.122 63.0593 233.699 62.3868 234.336 61.7741C234.979 61.1568 235.679 60.6018 236.426 60.1164C237.184 59.6242 237.987 59.205 238.824 58.8643C242.352 57.4411 246.294 57.4411 249.821 58.8643C250.659 59.205 251.462 59.6242 252.22 60.1164C252.967 60.6018 253.667 61.1568 254.309 61.7741C254.947 62.3868 255.524 63.0593 256.033 63.7824C256.541 64.5056 256.976 65.2773 257.332 66.0863C258.065 67.7486 258.443 69.546 258.44 71.3631C258.429 72.443 258.263 73.5158 257.947 74.5487C257.61 75.656 257.164 76.727 256.613 77.7454C255.459 79.858 254.032 81.8104 252.369 83.5522L252.369 83.5524C251.328 84.6581 250.08 85.8999 248.692 86.7534L248.692 86.7536C248.057 87.1497 247.374 87.4607 246.658 87.6782C245.901 87.9038 245.114 88.0161 244.323 88.0116Z" fill="#F6BC91"/>
<path d="M257.332 66.0863C256.976 65.2773 256.541 64.5056 256.033 63.7824C255.524 63.0593 254.947 62.3868 254.309 61.7741C253.667 61.1568 252.967 60.6018 252.22 60.1164C251.462 59.6242 250.659 59.205 249.821 58.8643C246.294 57.4411 242.352 57.4411 238.824 58.8643C237.987 59.205 237.184 59.6242 236.426 60.1164C235.679 60.6018 234.979 61.1568 234.336 61.7741C233.699 62.3868 233.122 63.0593 232.613 63.7824C232.105 64.5056 231.67 65.2773 231.313 66.0863C230.58 67.7488 230.202 69.5464 230.205 71.3635C230.205 73.1354 230.739 75.1192 231.794 77.2603C232.784 79.2106 233.993 81.0412 235.4 82.7162L235.4 82.7168C236.017 83.4723 236.675 84.1931 237.372 84.8754L237.372 84.8756C238.007 85.4991 238.7 86.0594 239.444 86.5482L239.444 86.5484C240.889 87.5093 242.587 88.0187 244.323 88.0116H244.323C245.114 88.0161 245.901 87.9038 246.658 87.6782C247.374 87.4607 248.057 87.1497 248.692 86.7536L248.692 86.7534C250.08 85.8999 251.328 84.6581 252.369 83.5524L252.369 83.5522C254.032 81.8104 255.459 79.858 256.613 77.7454C257.164 76.727 257.61 75.656 257.947 74.5487C258.263 73.5158 258.429 72.443 258.44 71.3631C258.443 69.546 258.065 67.7486 257.332 66.0863ZM257.332 66.0863L257.379 66.0656" stroke="black" stroke-width="0.102208"/>
<path d="M253.718 59.6598C257.363 59.6598 260.318 56.7733 260.318 53.2127C260.318 49.6521 257.363 46.7656 253.718 46.7656C250.072 46.7656 247.117 49.6521 247.117 53.2127C247.117 56.7733 250.072 59.6598 253.718 59.6598Z" fill="#302E2E"/>
<path d="M237.907 75.2189C237.307 75.2203 236.711 75.1042 236.155 74.8771C235.624 74.6606 235.138 74.3444 234.726 73.9454C234.318 73.5527 233.99 73.0836 233.763 72.5648C233.53 72.0318 233.41 71.4566 233.41 70.8753C233.41 70.2937 233.53 69.7185 233.763 69.1855C233.99 68.6667 234.318 68.1974 234.726 67.8047C235.139 67.4057 235.624 67.0895 236.156 66.873C237.279 66.4173 238.536 66.4173 239.659 66.873C240.191 67.0895 240.676 67.4057 241.089 67.8047C241.497 68.1974 241.824 68.6665 242.052 69.1853C242.284 69.7183 242.405 70.2935 242.405 70.8751C242.405 71.4564 242.284 72.0316 242.052 72.5646C241.824 73.0834 241.497 73.5525 241.089 73.9452C240.676 74.3442 240.191 74.6604 239.659 74.8769C239.103 75.104 238.508 75.2203 237.907 75.2189Z" fill="white"/>
<path d="M237.91 66.6371C237.323 66.6359 236.742 66.7491 236.199 66.9709C235.68 67.1823 235.206 67.491 234.803 67.8806C234.405 68.2637 234.086 68.7212 233.864 69.2271C233.637 69.7463 233.52 70.307 233.52 70.8737C233.52 71.4403 233.637 72.0008 233.864 72.52C234.086 73.026 234.405 73.4834 234.803 73.8663C235.206 74.2559 235.68 74.5646 236.199 74.7758C237.296 75.2208 238.523 75.2208 239.621 74.7758C240.14 74.5646 240.613 74.2559 241.016 73.8663C241.415 73.4834 241.734 73.026 241.955 72.5198C242.182 72.0006 242.299 71.4401 242.299 70.8735C242.299 70.3068 242.182 69.7461 241.955 69.2269C241.734 68.7209 241.415 68.2635 241.016 67.8804C240.614 67.491 240.14 67.1823 239.621 66.9709C239.078 66.7491 238.497 66.6359 237.91 66.6371M237.91 66.4219C240.453 66.4219 242.515 68.4149 242.515 70.8735C242.515 73.332 240.453 75.325 237.91 75.325C235.367 75.325 233.305 73.3312 233.305 70.8735C233.305 68.4158 235.366 66.4219 237.91 66.4219H237.91Z" fill="#707070"/>
<path d="M250.495 75.2189C249.894 75.2203 249.299 75.1042 248.743 74.8771C248.212 74.6606 247.727 74.3444 247.314 73.9454C246.905 73.5527 246.578 73.0836 246.351 72.5648C246.118 72.0318 245.998 71.4566 245.998 70.8753C245.998 70.2937 246.118 69.7185 246.351 69.1855C246.578 68.6667 246.905 68.1974 247.314 67.8047C247.727 67.4057 248.212 67.0895 248.744 66.873C249.867 66.4173 251.124 66.4173 252.247 66.873C252.779 67.0895 253.264 67.4057 253.677 67.8047C254.085 68.1974 254.412 68.6665 254.64 69.1853C254.873 69.7183 254.993 70.2935 254.993 70.8751C254.993 71.4564 254.873 72.0316 254.64 72.5646C254.412 73.0834 254.085 73.5525 253.677 73.9452C253.264 74.3442 252.779 74.6604 252.247 74.8769C251.691 75.104 251.096 75.2203 250.495 75.2189Z" fill="white"/>
<path d="M250.496 66.6371C249.909 66.6359 249.328 66.7491 248.785 66.9709C248.266 67.1823 247.792 67.491 247.389 67.8806C246.991 68.2637 246.671 68.7212 246.45 69.2271C246.223 69.7463 246.106 70.307 246.106 70.8737C246.106 71.4403 246.223 72.0008 246.45 72.52C246.671 73.026 246.991 73.4834 247.389 73.8663C247.792 74.2559 248.266 74.5646 248.785 74.7758C249.882 75.2208 251.109 75.2208 252.206 74.7758C252.725 74.5646 253.199 74.2559 253.602 73.8663C254 73.4834 254.319 73.026 254.541 72.5198C254.768 72.0006 254.885 71.4401 254.885 70.8735C254.885 70.3068 254.768 69.7461 254.541 69.2269C254.319 68.7209 254 68.2635 253.602 67.8804C253.199 67.491 252.726 67.1823 252.207 66.9709C251.664 66.7491 251.083 66.6359 250.496 66.6371M250.496 66.4219C253.039 66.4219 255.101 68.4149 255.101 70.8735C255.101 73.332 253.039 75.325 250.496 75.325C247.953 75.325 245.891 73.3312 245.891 70.8735C245.891 68.4158 247.952 66.4219 250.496 66.4219H250.496Z" fill="#707070"/>
<path d="M242.469 71.21C243.009 70.9845 243.584 70.8553 244.168 70.8281C244.782 70.8612 245.386 70.99 245.96 71.21" stroke="#707070" stroke-width="0.204417"/>
<path d="M237.667 68.7266C238.432 68.7266 239.354 69.3893 239.354 70.303C239.354 71.2168 238.432 71.9572 237.667 71.9572C236.902 71.9572 235.848 71.2168 235.848 70.303C235.848 69.3893 236.902 68.7266 237.667 68.7266Z" fill="white"/>
<path d="M237.667 69.1719C238.432 69.1719 239.354 69.8346 239.354 70.7483C239.354 71.6621 238.432 72.1925 237.667 72.1925C236.902 72.1925 235.848 71.6611 235.848 70.7483C235.848 69.8356 236.902 69.1719 237.667 69.1719Z" fill="#302E2E"/>
<path d="M237.469 71.6297C237.639 71.6297 237.776 71.4921 237.776 71.3227C237.776 71.153 237.639 71.0156 237.469 71.0156C237.3 71.0156 237.162 71.153 237.162 71.3227C237.162 71.4921 237.3 71.6297 237.469 71.6297Z" fill="#F7F7F7"/>
<path d="M253.778 60.362C254.048 63.5507 255.007 66.6427 256.59 69.424C254.533 66.9121 253.683 63.4213 253.778 60.362ZM257.144 55.0435C256.366 54.5486 255.481 54.2481 254.562 54.1671C255.599 53.928 256.484 54.3716 257.144 55.0435ZM253.174 60.8526C252.867 61.7078 252.414 62.5032 251.835 63.2034C251.086 64.1437 250.059 64.822 248.979 65.433C250.725 64.2456 252.167 62.6627 253.186 60.8131L253.174 60.8526ZM236.325 52.2121C237.975 51.2719 239.792 50.6631 241.676 50.42C243.31 50.2357 244.965 50.335 246.566 50.7135C243.079 50.2001 239.518 50.7213 236.325 52.2125M231.358 56.7853C230.338 58.3318 229.601 60.0465 229.179 61.8501C228.708 63.8554 228.644 65.9348 228.991 67.9652C229.021 68.1355 229.056 68.3035 229.091 68.472C228.506 66.1048 228.464 63.6361 228.969 61.2504C229.433 59.0991 230.558 57.1471 232.188 55.6682C231.886 56.0217 231.609 56.3951 231.357 56.7857M257.032 55.9693C257.612 56.0533 258.626 57.0549 259.102 57.3986C258.864 56.7458 258.474 56.1591 257.964 55.687L257.952 55.6387C257.263 54.4875 255.808 53.5717 254.35 54.1545C254.251 54.1508 254.152 54.1455 254.052 54.1455C253.379 52.6328 251.874 51.4284 250.102 50.9815L250.886 51.9699C250.642 51.8599 250.393 51.7569 250.142 51.6579L250.119 51.6299C244.978 48.875 238.623 49.9936 234.212 53.235C234.195 53.2466 234.181 53.2621 234.172 53.2803C234.162 53.2986 234.157 53.3188 234.158 53.3393C234.159 53.3598 234.164 53.38 234.174 53.3978C234.184 53.4157 234.199 53.4307 234.217 53.4415C233.951 53.6283 233.691 53.8209 233.441 54.0228C234.001 53.782 234.562 53.5403 235.124 53.2976C234.707 53.4817 234.319 53.7254 233.972 54.021C231.263 55.5421 229.598 58.1228 228.806 60.8467C227.833 64.1991 229.989 70.5793 230.094 70.8079C230.676 69.0069 232.958 64.915 239.254 61.8504C245.159 59.3974 248.813 60.5349 250.101 59.0126C249.843 59.4746 250.703 60.3499 250.101 61.8504C249.398 63.6047 247.211 66.049 246.883 66.6365C247.058 66.5548 247.231 66.4662 247.403 66.3781C247.411 66.3961 247.423 66.4121 247.438 66.4254C247.453 66.4384 247.47 66.4487 247.489 66.455C247.507 66.4615 247.527 66.464 247.547 66.4628C247.567 66.4613 247.586 66.4562 247.604 66.4472C249.143 65.6848 250.613 64.8361 251.776 63.6533C252.864 62.5452 253.272 61.2911 253.615 59.9282C253.623 59.9094 253.63 59.8926 253.638 59.8759C253.422 61.8624 253.83 63.862 254.392 65.787C254.931 67.6337 255.877 69.461 257.437 70.8068C257.669 71.1578 257.909 71.5078 258.161 71.8477C258.238 70.721 258.315 69.594 258.392 68.4671C258.578 69.1024 258.765 69.739 258.952 70.3767C260.175 65.7831 260.099 59.2535 257.031 55.9681" fill="#302E2E"/>
<path d="M250.495 71.7703C250.664 71.7703 250.802 71.6329 250.802 71.4633C250.802 71.2938 250.664 71.1562 250.495 71.1562C250.325 71.1562 250.188 71.2938 250.188 71.4633C250.188 71.6329 250.325 71.7703 250.495 71.7703Z" fill="#F7F7F7"/>
<path d="M250.87 69.1719C251.635 69.1719 252.557 69.8346 252.557 70.7483C252.557 71.6621 251.635 72.2512 250.87 72.2512C250.105 72.2512 249.051 71.6617 249.051 70.7483C249.051 69.835 250.105 69.1719 250.87 69.1719Z" fill="#302E2E"/>
<path d="M250.582 71.4891C250.752 71.4891 250.889 71.3517 250.889 71.182C250.889 71.0124 250.752 70.875 250.582 70.875C250.413 70.875 250.275 71.0124 250.275 71.182C250.275 71.3517 250.413 71.4891 250.582 71.4891Z" fill="#F7F7F7"/>
<path d="M247.992 50.1484C247.992 50.1484 252.156 50.6137 254.787 52.7188C257.419 54.8239 258.517 58.5675 258.517 58.5675" stroke="#707070" stroke-width="0.204417"/>
<path d="M217.07 117.252C217.109 116.627 226.298 97.7137 228.014 94.605C228.226 94.2201 230.036 92.3901 230.369 92.0857C230.594 91.8797 231.835 91.8552 232.017 92.0857C233.994 94.5931 234.366 100.671 233.708 103.692C232.973 107.076 225.75 116.981 225.283 117.254C222.33 118.978 216.861 119.724 217.07 117.254" fill="#3D86CF"/>
<path d="M276.202 117.238C276.162 116.61 265.357 95.1177 263.641 91.9999C263.427 91.589 263.149 91.2141 262.818 90.8891C262.593 90.6824 261.124 90.1798 260.942 90.4112C258.965 92.9255 260.285 101.342 260.942 104.371C261.678 107.765 269.579 116.963 270.046 117.238C272.999 118.967 276.412 119.714 276.202 117.238Z" fill="#3D86CF"/>
<path d="M270.152 111.682C274.841 113.506 276.127 116.434 275.635 117.711C274.998 119.365 271.144 120.61 269.856 120.106C267.28 119.097 249.487 112.484 249.487 112.484C248.953 112.484 248.543 111.066 248.621 110.651C248.71 110.037 248.959 109.457 249.341 108.969C255.851 109.848 265.097 110.955 270.153 111.682" fill="#F1C1A4"/>
<path d="M223.12 111.682C218.431 113.506 217.146 116.434 217.637 117.711C218.274 119.365 222.128 120.61 223.416 120.106C225.992 119.097 243.391 112.484 243.391 112.484C243.925 112.484 244.334 111.066 244.257 110.651C244.046 109.519 243.931 108.969 243.931 108.969C237.422 109.848 228.176 110.955 223.12 111.682Z" fill="#F1C1A4"/>
<path d="M246.143 109.642C246.143 109.642 246.365 103.195 246.343 102.721C246.321 102.247 245.428 102.626 245.346 103.527C245.265 104.427 245.478 109.122 246.144 109.642" fill="#C87652"/>
<path d="M245.689 108.413C245.689 108.413 246.079 101.266 246.377 99.7519C246.714 98.0397 245.42 97.1701 245.29 98.5497C245.16 99.9293 244.148 107.843 244.127 108.204C244.107 108.565 245.249 109.567 245.69 108.413" fill="#C87652"/>
<path d="M245.162 108.789C245.162 108.789 245.254 101.031 245.71 99.4927C246 98.5131 245.301 97.257 244.862 98.6769C244.629 99.4332 243.645 104.501 243.063 107.216C242.611 109.323 244.002 111.706 243.989 111.918C243.989 111.918 244.78 109.996 245.162 108.79" fill="#E29D72"/>
<path d="M244.887 113.32C243.546 113.761 242.942 113.246 242.934 111.587C242.925 109.929 245.216 101.232 245.227 100.14C245.239 99.048 246.094 100.119 246.043 101.075C245.991 102.031 245.632 105.788 245.879 107.074C246.127 108.359 246.358 112.836 244.887 113.32" fill="#F1C1A4"/>
<path d="M246.482 109.642C246.482 109.642 246.261 103.195 246.283 102.721C246.304 102.247 247.198 102.626 247.279 103.527C247.36 104.427 247.147 109.122 246.482 109.642" fill="#C87652"/>
<path d="M246.935 108.091C246.935 108.091 246.545 100.506 246.247 98.8983C245.91 97.081 247.204 96.1591 247.334 97.6225C247.464 99.0859 248.476 107.486 248.497 107.869C248.517 108.253 247.374 109.316 246.934 108.091" fill="#C87652"/>
<path d="M247.618 108.503C247.618 108.503 247.526 100.269 247.07 98.6365C246.78 97.5971 247.479 96.2637 247.918 97.7706C248.152 98.5732 249.136 103.952 249.717 106.833C250.169 109.07 248.778 111.599 248.791 111.823C248.791 111.823 248 109.784 247.618 108.503" fill="#E29D72"/>
<path d="M247.796 113.313C249.205 113.781 249.84 113.234 249.849 111.474C249.857 109.713 247.45 100.483 247.439 99.3245C247.427 98.1657 246.528 99.3016 246.582 100.317C246.636 101.332 247.014 105.319 246.754 106.684C246.495 108.049 246.251 112.799 247.797 113.313" fill="#F1C1A4"/>
<path d="M255.619 101.993C257.777 101.993 259.526 100.244 259.526 98.0863C259.526 95.9287 257.777 94.1797 255.619 94.1797C253.462 94.1797 251.713 95.9287 251.713 98.0863C251.713 100.244 253.462 101.993 255.619 101.993Z" fill="white"/>
<path fill-rule="evenodd" clip-rule="evenodd" d="M258.097 98.2067C258.439 99.471 257.873 100.019 256.817 99.8063C256.738 100.034 256.631 100.251 256.497 100.452C258.184 100.877 258.866 99.6368 258.097 98.2067ZM254.767 97.5127H255.486C255.564 97.526 255.638 97.5575 255.702 97.6045C255.766 97.6515 255.818 97.7128 255.854 97.7836C255.882 97.8475 255.892 97.9175 255.885 97.9868C255.877 98.0587 255.853 98.128 255.813 98.1887C255.762 98.2635 255.693 98.3245 255.613 98.3659C255.532 98.4072 255.442 98.4279 255.352 98.4256C255.225 98.4042 255.161 98.5385 255.268 98.6409L255.989 99.3083H254.767C254.758 99.3083 254.75 99.3065 254.742 99.3032C254.734 99.2997 254.726 99.2948 254.72 99.2887C254.714 99.2824 254.709 99.275 254.706 99.267C254.702 99.2588 254.701 99.2503 254.701 99.2415V97.5757C254.701 97.5585 254.709 97.5424 254.721 97.5305C254.734 97.5188 254.75 97.5123 254.767 97.5123L254.767 97.5127ZM255.973 97.5127H256.474C256.483 97.5127 256.491 97.5143 256.499 97.5178C256.508 97.5211 256.515 97.526 256.521 97.5321C256.527 97.5385 256.532 97.5458 256.535 97.5538C256.539 97.562 256.541 97.5706 256.541 97.5794V99.2451C256.541 99.2539 256.539 99.2625 256.536 99.2707C256.532 99.2789 256.527 99.2862 256.521 99.2924C256.515 99.2985 256.508 99.3036 256.499 99.3069C256.491 99.3101 256.483 99.312 256.474 99.312H256.357L255.625 98.6327C255.79 98.5787 255.931 98.4702 256.025 98.3249C256.086 98.2308 256.123 98.1237 256.135 98.0125C256.146 97.9009 256.129 97.7883 256.084 97.6854C256.056 97.6225 256.019 97.5644 255.972 97.5133L255.973 97.5127ZM254.23 96.4064C255.154 95.478 255.912 95.6938 256.256 96.7157C256.493 96.6693 256.735 96.6536 256.975 96.6689C256.499 94.9957 255.084 95.0256 254.23 96.4056L254.23 96.4064ZM254.578 100.63C253.312 100.294 253.12 99.5297 253.833 98.721C253.674 98.5391 253.54 98.3373 253.432 98.1211C252.222 99.3698 252.955 100.58 254.577 100.63" fill="#2E3192"/>
<path d="M258.095 98.2067C258.438 99.471 257.872 100.019 256.815 99.8063C256.737 100.034 256.629 100.251 256.496 100.452C258.183 100.877 258.865 99.6368 258.095 98.2067ZM254.765 97.5127H255.484C255.563 97.526 255.637 97.5575 255.7 97.6045C255.764 97.6515 255.816 97.7128 255.852 97.7836C255.88 97.8475 255.891 97.9175 255.883 97.9868C255.876 98.0587 255.851 98.128 255.812 98.1887C255.761 98.2635 255.692 98.3245 255.611 98.3659C255.53 98.4072 255.441 98.4279 255.35 98.4256C255.224 98.4042 255.16 98.5385 255.267 98.6409L255.987 99.3083H254.765C254.757 99.3083 254.748 99.3065 254.74 99.3032C254.732 99.2997 254.725 99.2948 254.718 99.2887C254.712 99.2824 254.707 99.275 254.704 99.267C254.701 99.2588 254.699 99.2503 254.699 99.2415V97.5757C254.7 97.5585 254.707 97.5424 254.72 97.5305C254.732 97.5188 254.749 97.5123 254.766 97.5123L254.765 97.5127ZM255.972 97.5127H256.472C256.481 97.5127 256.49 97.5143 256.498 97.5178C256.506 97.5211 256.513 97.526 256.52 97.5321C256.526 97.5385 256.531 97.5458 256.534 97.5538C256.537 97.562 256.539 97.5706 256.539 97.5794V99.2451C256.539 99.2539 256.537 99.2625 256.534 99.2707C256.531 99.2789 256.526 99.2862 256.52 99.2924C256.513 99.2985 256.506 99.3036 256.498 99.3069C256.49 99.3101 256.481 99.312 256.472 99.312H256.355L255.623 98.6327C255.788 98.5787 255.929 98.4702 256.023 98.3249C256.084 98.2308 256.122 98.1237 256.133 98.0125C256.145 97.9009 256.127 97.7883 256.083 97.6854C256.055 97.6225 256.017 97.5644 255.971 97.5133L255.972 97.5127ZM254.229 96.4064C255.153 95.478 255.91 95.6938 256.254 96.7157C256.491 96.6693 256.733 96.6536 256.974 96.6689C256.497 94.9957 255.082 95.0256 254.228 96.4056L254.229 96.4064ZM254.576 100.63C253.31 100.294 253.118 99.5297 253.831 98.721C253.672 98.5391 253.538 98.3373 253.431 98.1211C252.219 99.3698 252.953 100.58 254.576 100.63H254.576Z" stroke="#231F20" stroke-width="0.058872" stroke-miterlimit="2.613"/>
<path fill-rule="evenodd" clip-rule="evenodd" d="M253.15 97.591C254.514 96.8028 256.104 96.5001 257.662 96.7325C257.699 98.2223 257.171 99.6708 256.185 100.788C254.837 100.102 253.766 98.9735 253.15 97.5918V97.591ZM253.437 98.1168C254.471 97.237 255.773 96.7337 257.13 96.6891C257.392 97.9467 257.169 99.257 256.505 100.357C255.256 99.9843 254.173 99.1937 253.437 98.1176" fill="#D3D2D2"/>
<path d="M245.376 77.586C245.376 77.9877 244.782 78.3111 244.047 78.3111C243.313 78.3111 242.719 77.9877 242.719 77.586C242.719 77.1866 243.314 77.3058 244.047 77.3058C244.78 77.3058 245.376 77.1864 245.376 77.586Z" fill="#C6896C"/>
<path d="M248.435 80.64C248.372 80.7837 248.291 80.9517 248.204 81.1436C248.156 81.2313 248.099 81.3346 248.044 81.4382C247.988 81.5418 247.933 81.6463 247.868 81.7581C247.684 82.0848 247.479 82.3994 247.255 82.6997L247.238 82.7234L247.191 82.7874C246.409 83.8246 245.299 84.7906 243.87 84.7906C241.428 84.7906 239.832 81.9339 239.258 80.7518C239.282 80.7518 239.37 80.7285 239.513 80.6968C240.256 80.5531 242.394 80.1306 243.687 80.1776C245.132 80.122 247.477 80.4887 248.211 80.6089C248.331 80.6242 248.41 80.64 248.434 80.64" fill="#EC6E40"/>
<path d="M243.87 84.8007C242.814 84.8007 241.801 84.2694 240.858 83.2216C240.211 82.4777 239.671 81.6484 239.25 80.7573L239.244 80.7443H239.258C239.3 80.7381 239.342 80.7295 239.383 80.7181C239.418 80.7101 239.461 80.6999 239.512 80.6889L239.564 80.6789C240.346 80.527 242.423 80.1235 243.688 80.1696C245.071 80.1167 247.313 80.4538 248.214 80.6014C248.272 80.6087 248.319 80.6161 248.357 80.6222C248.383 80.6269 248.409 80.6304 248.435 80.6324V80.641L248.443 80.6445C248.404 80.7318 248.359 80.8295 248.311 80.9327C248.279 81.0014 248.246 81.0726 248.212 81.1482L248.211 81.1496C248.162 81.239 248.106 81.3401 248.052 81.4434L248.036 81.4722C247.986 81.5654 247.934 81.6619 247.876 81.7635C247.691 82.0906 247.486 82.4054 247.261 82.7058L247.245 82.7292L247.197 82.7937C246.804 83.3336 246.325 83.8044 245.777 84.1866C245.218 84.5787 244.553 84.7927 243.87 84.8007ZM239.271 80.7606C239.69 81.6464 240.228 82.4704 240.871 83.2101C241.811 84.2545 242.82 84.7835 243.87 84.7835C244.55 84.7754 245.211 84.5624 245.768 84.1723C246.314 83.7911 246.792 83.3218 247.183 82.7835L247.231 82.7195L247.247 82.696C247.472 82.396 247.677 82.0816 247.861 81.7549C247.919 81.6537 247.971 81.5574 248.021 81.4642L248.037 81.4354C248.091 81.332 248.147 81.2308 248.196 81.1414V81.1406C248.23 81.0656 248.263 80.9945 248.295 80.9256C248.341 80.8269 248.384 80.7334 248.421 80.6492C248.406 80.6478 248.384 80.6443 248.354 80.6396C248.316 80.6339 248.268 80.6265 248.211 80.619C247.311 80.4716 245.069 80.1345 243.688 80.1883C242.424 80.1421 240.348 80.5456 239.567 80.6972L239.515 80.7073C239.466 80.7183 239.422 80.7283 239.387 80.7365C239.331 80.7488 239.293 80.7576 239.271 80.7606Z" fill="#050505"/>
<path d="M247.991 80.7109C247.887 80.9096 247.768 81.1091 247.64 81.3091L247.632 81.3246C246.746 82.7373 245.43 84.2065 243.745 84.2065C242.189 84.2065 241.057 83.0491 240.218 81.7884C240.02 81.4851 239.836 81.1739 239.668 80.8706C239.732 80.9902 241.751 81.1819 243.745 81.1421C245.852 81.0946 247.944 80.8064 247.991 80.7113" fill="#44060F"/>
<path d="M244.692 84.0534C245.584 83.8009 246.236 83.2698 246.933 82.7359C246.829 82.5983 246.713 82.4699 246.587 82.3526C245.948 81.8326 245.145 81.5556 244.321 81.5709C243.116 81.5709 242.079 82.1055 241.593 82.8951C241.485 83.0646 241.405 83.2496 241.354 83.4436C242.202 84.2116 243.66 84.3469 244.692 84.0534Z" fill="#750414"/>
<path d="M247.991 80.7111C247.887 80.91 247.136 81.5535 246.647 81.7868C245.67 82.2257 244.609 82.4442 243.538 82.4264C242.238 82.4264 240.335 81.8258 239.668 80.8704C239.746 80.9814 241.751 81.1817 243.745 81.1418C245.852 81.0944 247.944 80.8062 247.991 80.7111Z" fill="#F4F4F4"/>
<path d="M243.745 81.1416C241.75 81.1809 239.746 80.9812 239.668 80.8702C240.037 81.398 240.784 81.8121 241.596 82.082C242.438 81.4501 243.8 81.3299 244.746 81.3559C245.43 81.3751 246.053 81.5178 246.547 81.8275L246.648 81.7864C247.136 81.5533 247.888 80.9096 247.992 80.7109C247.944 80.8058 245.852 81.0942 243.746 81.1418" fill="#EAEDEF"/>
<path d="M248.435 80.632C248.372 80.7757 248.291 80.9438 248.204 81.1357C248.156 81.2234 248.099 81.3268 248.044 81.4305C247.988 81.5341 247.933 81.6384 247.868 81.7502C247.692 82.0133 247.502 82.3164 247.254 82.6917L247.238 82.7154L247.191 82.7794C246.409 83.8168 245.299 84.7829 243.87 84.7829C241.428 84.7829 239.833 81.926 239.258 80.7438C239.282 80.7438 239.37 80.7207 239.513 80.6888C239.57 80.7449 239.62 80.8064 239.665 80.8726C240.011 81.3712 240.41 81.8313 240.854 82.2455C241.077 82.4521 241.324 82.6756 241.589 82.891C241.873 83.1118 242.174 83.3097 242.49 83.4822C242.714 83.6016 242.953 83.6925 243.2 83.7533C243.863 83.9211 244.501 83.7447 245.083 83.4344C245.357 83.2878 245.621 83.1226 245.873 82.9401C246.122 82.7582 246.359 82.5605 246.583 82.3485C247.07 81.909 247.504 81.4137 247.876 80.873C247.966 80.7588 248.08 80.666 248.211 80.6016C248.331 80.6167 248.41 80.6324 248.434 80.6324" fill="#EC6E40"/>
<path d="M243.87 84.7929C242.814 84.7929 241.801 84.2616 240.858 83.2138C240.211 82.4697 239.671 81.6404 239.25 80.7491L239.244 80.736H239.258C239.3 80.7299 239.342 80.7213 239.383 80.7099C239.418 80.7019 239.461 80.6917 239.512 80.6806L239.516 80.6796L239.52 80.6831C239.577 80.7395 239.628 80.8014 239.672 80.8683C240.018 81.3664 240.416 81.826 240.86 82.2391C241.056 82.4208 241.317 82.6584 241.594 82.8842C241.878 83.105 242.179 83.3027 242.494 83.4756C242.718 83.5944 242.956 83.6853 243.202 83.7459C243.786 83.8936 244.401 83.7896 245.08 83.4278C245.354 83.2814 245.617 83.1165 245.868 82.9341C246.117 82.7522 246.354 82.5549 246.577 82.3431C247.065 81.9045 247.498 81.4098 247.869 80.8693C247.96 80.7536 248.076 80.66 248.208 80.595L248.21 80.5938H248.213C248.271 80.6013 248.319 80.6085 248.358 80.6146C248.383 80.6193 248.409 80.6226 248.435 80.6248V80.6334L248.443 80.6369C248.405 80.7242 248.359 80.8219 248.311 80.9251C248.279 80.9938 248.246 81.0649 248.212 81.1406L248.211 81.1426C248.162 81.2317 248.106 81.3327 248.052 81.4359L248.037 81.465C247.986 81.5582 247.935 81.6545 247.876 81.7561C247.784 81.8945 247.685 82.0472 247.58 82.2088C247.486 82.3546 247.38 82.5198 247.262 82.698L247.246 82.7219L247.198 82.7863C246.805 83.3264 246.325 83.7972 245.778 84.1794C245.218 84.5713 244.553 84.7851 243.87 84.7929ZM239.272 80.753C239.69 81.6385 240.228 82.4627 240.871 83.2023C241.811 84.2469 242.82 84.7757 243.87 84.7757C244.55 84.7677 245.211 84.5547 245.768 84.1645C246.314 83.7835 246.792 83.3141 247.183 82.7759L247.231 82.7119L247.247 82.6884C247.365 82.5104 247.471 82.345 247.565 82.1994C247.67 82.038 247.769 81.8851 247.86 81.7469C247.918 81.6461 247.97 81.5498 248.02 81.4568L248.036 81.4278C248.091 81.3243 248.146 81.2236 248.195 81.1342L248.195 81.1328C248.23 81.0578 248.263 80.9866 248.295 80.9178C248.34 80.819 248.384 80.7256 248.421 80.6414C248.406 80.6399 248.384 80.6365 248.354 80.632C248.316 80.626 248.27 80.6189 248.213 80.6115C248.084 80.6749 247.971 80.7665 247.883 80.8791C247.511 81.4206 247.077 81.9163 246.589 82.3558C246.364 82.568 246.127 82.7657 245.878 82.948C245.626 83.131 245.362 83.2963 245.087 83.4431C244.404 83.807 243.786 83.9116 243.198 83.7628C242.95 83.7019 242.711 83.6105 242.485 83.4911C242.169 83.318 241.868 83.1199 241.583 82.899C241.306 82.6723 241.045 82.4345 240.849 82.2528C240.404 81.8389 240.005 81.3783 239.658 80.8791C239.615 80.8147 239.566 80.7546 239.511 80.6998C239.463 80.7105 239.421 80.7203 239.387 80.7281C239.331 80.7409 239.293 80.7497 239.272 80.753Z" fill="#020202"/>
</g>
</g>
<g filter="url(#filter0_d_3570_3753)">
<path d="M278.254 57.9177C278.223 57.8275 278.096 57.8275 278.065 57.9177L275.335 65.9124C275.325 65.9417 275.302 65.9647 275.273 65.9747L267.278 68.7048C267.188 68.7356 267.188 68.8633 267.278 68.8941L275.273 71.6242C275.302 71.6342 275.325 71.6572 275.335 71.6865L278.065 79.6811C278.096 79.7714 278.223 79.7714 278.254 79.6811L280.984 71.6865C280.994 71.6572 281.017 71.6342 281.047 71.6242L289.041 68.8941C289.131 68.8633 289.131 68.7356 289.041 68.7048L281.047 65.9747C281.017 65.9647 280.994 65.9417 280.984 65.9124L278.254 57.9177Z" fill="white"/>
<path d="M291.646 46.8274C291.62 46.7287 291.48 46.7287 291.453 46.8274L289.671 53.4465C289.661 53.4809 289.635 53.5078 289.6 53.5171L282.981 55.2992C282.882 55.3258 282.882 55.4658 282.981 55.4924L289.6 57.2746C289.635 57.2838 289.661 57.3107 289.671 57.3451L291.453 63.9642C291.48 64.0629 291.62 64.0629 291.646 63.9642L293.428 57.3451C293.438 57.3107 293.464 57.2838 293.499 57.2746L300.118 55.4924C300.217 55.4658 300.217 55.3258 300.118 55.2992L293.499 53.5171C293.464 53.5078 293.438 53.4809 293.428 53.4465L291.646 46.8274Z" fill="white"/>
<path d="M278.254 42.3143C278.225 42.2198 278.091 42.2198 278.063 42.3143L276.611 47.082C276.602 47.1138 276.577 47.1388 276.545 47.1485L271.777 48.5996C271.683 48.6284 271.683 48.7622 271.777 48.791L276.545 50.2421C276.577 50.2518 276.602 50.2767 276.611 50.3086L278.063 55.0763C278.091 55.1708 278.225 55.1708 278.254 55.0763L279.705 50.3086C279.715 50.2767 279.74 50.2518 279.772 50.2421L284.539 48.791C284.634 48.7622 284.634 48.6284 284.539 48.5996L279.772 47.1485C279.74 47.1388 279.715 47.1138 279.705 47.082L278.254 42.3143Z" fill="white"/>
</g>
</g>
<rect x="1" y="1" width="317" height="130" rx="20" stroke="#EFEFEF"/>
<defs>
<filter id="filter0_d_3570_3753" x="255.211" y="34.2422" width="56.9805" height="61.5078" filterUnits="userSpaceOnUse" color-interpolation-filters="sRGB">
<feFlood flood-opacity="0" result="BackgroundImageFix"/>
<feColorMatrix in="SourceAlpha" type="matrix" values="0 0 0 0 0 0 0 0 0 0 0 0 0 0 0 0 0 0 127 0" result="hardAlpha"/>
<feOffset dy="4"/>
<feGaussianBlur stdDeviation="6"/>
<feComposite in2="hardAlpha" operator="out"/>
<feColorMatrix type="matrix" values="0 0 0 0 0 0 0 0 0 0 0 0 0 0 0 0 0 0 0.08 0"/>
<feBlend mode="normal" in2="BackgroundImageFix" result="effect1_dropShadow_3570_3753"/>
<feBlend mode="normal" in="SourceGraphic" in2="effect1_dropShadow_3570_3753" result="shape"/>
</filter>
<radialGradient id="paint0_radial_3570_3753" cx="0" cy="0" r="1" gradientUnits="userSpaceOnUse" gradientTransform="translate(58.6522 137.123) rotate(90) scale(33.8772 34.1447)">
<stop stop-color="#FFFC99"/>
<stop offset="1" stop-color="#5D73FF"/>
</radialGradient>
<radialGradient id="paint1_radial_3570_3753" cx="0" cy="0" r="1" gradientUnits="userSpaceOnUse" gradientTransform="translate(177.574 76.8806) rotate(90) scale(33.8772 34.1447)">
<stop stop-color="#FFFC99"/>
<stop offset="1" stop-color="#5D73FF"/>
</radialGradient>
<radialGradient id="paint2_radial_3570_3753" cx="0" cy="0" r="1" gradientUnits="userSpaceOnUse" gradientTransform="translate(2.75313 89.5193) rotate(90) scale(21.5744 21.7527)">
<stop stop-color="#FFF5F5"/>
<stop offset="1" stop-color="#5D73FF"/>
</radialGradient>
<radialGradient id="paint3_radial_3570_3753" cx="0" cy="0" r="1" gradientUnits="userSpaceOnUse" gradientTransform="translate(51.1628 4.10857) rotate(90) scale(45.1102 45.5559)">
<stop stop-color="white"/>
<stop offset="1" stop-color="#5D73FF"/>
</radialGradient>
<clipPath id="clip0_3570_3753">
<rect x="1" y="1" width="317" height="130" rx="20" fill="white"/>
</clipPath>
<clipPath id="clip1_3570_3753">
<rect width="89.7389" height="90.1477" fill="white" transform="translate(201.631 45)"/>
</clipPath>
</defs>
</svg>
