<svg width="319" height="132" viewBox="0 0 319 132" fill="none" xmlns="http://www.w3.org/2000/svg">
<g clip-path="url(#clip0_3570_3740)">
<rect x="1" y="1" width="317" height="130" rx="20" fill="#DBFFDB"/>
<ellipse cx="299.5" cy="105" rx="65.5" ry="65" transform="rotate(-180 299.5 105)" fill="#ABD0AB" fill-opacity="0.22"/>
<ellipse cx="40.5" cy="140" rx="52.5" ry="52" transform="rotate(-180 40.5 140)" fill="#ABD0AB" fill-opacity="0.22"/>
<path d="M35.199 40.987L33.984 37.396C33.894 37.168 33.798 36.901 33.696 36.595C33.594 36.283 33.492 35.947 33.39 35.587C33.3 35.953 33.204 36.292 33.102 36.604C33 36.916 32.904 37.186 32.814 37.414L31.608 40.987H35.199ZM40.032 46H37.674C37.41 46 37.197 45.94 37.035 45.82C36.873 45.694 36.75 45.535 36.666 45.343L35.892 43.057H30.906L30.132 45.343C30.066 45.511 29.946 45.664 29.772 45.802C29.604 45.934 29.394 46 29.142 46H26.766L31.842 32.887H34.956L40.032 46ZM46.2095 39.169C45.9995 38.935 45.7715 38.773 45.5255 38.683C45.2795 38.587 45.0215 38.539 44.7515 38.539C44.4935 38.539 44.2565 38.59 44.0405 38.692C43.8245 38.794 43.6355 38.959 43.4735 39.187C43.3175 39.409 43.1945 39.7 43.1045 40.06C43.0145 40.42 42.9695 40.855 42.9695 41.365C42.9695 41.857 43.0055 42.271 43.0775 42.607C43.1495 42.943 43.2485 43.216 43.3745 43.426C43.5065 43.63 43.6625 43.777 43.8425 43.867C44.0225 43.957 44.2235 44.002 44.4455 44.002C44.6495 44.002 44.8325 43.984 44.9945 43.948C45.1625 43.906 45.3155 43.849 45.4535 43.777C45.5915 43.705 45.7205 43.615 45.8405 43.507C45.9665 43.393 46.0895 43.264 46.2095 43.12V39.169ZM48.9995 32.527V46H47.2715C46.9235 46 46.6955 45.844 46.5875 45.532L46.3715 44.821C46.1855 45.019 45.9905 45.199 45.7865 45.361C45.5825 45.523 45.3605 45.664 45.1205 45.784C44.8865 45.898 44.6315 45.985 44.3555 46.045C44.0855 46.111 43.7915 46.144 43.4735 46.144C42.9875 46.144 42.5375 46.036 42.1235 45.82C41.7095 45.604 41.3525 45.292 41.0525 44.884C40.7525 44.476 40.5155 43.978 40.3415 43.39C40.1735 42.796 40.0895 42.121 40.0895 41.365C40.0895 40.669 40.1855 40.024 40.3775 39.43C40.5695 38.83 40.8395 38.314 41.1875 37.882C41.5415 37.444 41.9645 37.102 42.4565 36.856C42.9485 36.61 43.4915 36.487 44.0855 36.487C44.5715 36.487 44.9795 36.556 45.3095 36.694C45.6395 36.832 45.9395 37.018 46.2095 37.252V32.527H48.9995ZM59.6775 36.667L56.0595 46H53.5215L49.9035 36.667H52.2255C52.4235 36.667 52.5885 36.715 52.7205 36.811C52.8585 36.901 52.9515 37.015 52.9995 37.153L54.2955 41.338C54.4095 41.68 54.5085 42.013 54.5925 42.337C54.6825 42.661 54.7605 42.985 54.8265 43.309C54.9585 42.661 55.1415 42.004 55.3755 41.338L56.7255 37.153C56.7735 37.015 56.8635 36.901 56.9955 36.811C57.1275 36.715 57.2835 36.667 57.4635 36.667H59.6775ZM66.0762 40.213C66.0762 39.991 66.0462 39.775 65.9862 39.565C65.9322 39.355 65.8392 39.169 65.7072 39.007C65.5812 38.839 65.4132 38.704 65.2032 38.602C64.9932 38.5 64.7382 38.449 64.4382 38.449C63.9102 38.449 63.4962 38.602 63.1962 38.908C62.8962 39.208 62.6982 39.643 62.6022 40.213H66.0762ZM62.5662 41.833C62.6562 42.613 62.8932 43.18 63.2772 43.534C63.6612 43.882 64.1562 44.056 64.7622 44.056C65.0862 44.056 65.3652 44.017 65.5992 43.939C65.8332 43.861 66.0402 43.774 66.2202 43.678C66.4062 43.582 66.5742 43.495 66.7242 43.417C66.8802 43.339 67.0422 43.3 67.2102 43.3C67.4322 43.3 67.6002 43.381 67.7142 43.543L68.5242 44.542C68.2362 44.872 67.9242 45.142 67.5882 45.352C67.2582 45.556 66.9162 45.718 66.5622 45.838C66.2142 45.952 65.8632 46.03 65.5092 46.072C65.1612 46.12 64.8282 46.144 64.5102 46.144C63.8562 46.144 63.2412 46.039 62.6652 45.829C62.0952 45.613 61.5942 45.295 61.1622 44.875C60.7362 44.455 60.3972 43.933 60.1452 43.309C59.8992 42.685 59.7762 41.959 59.7762 41.131C59.7762 40.507 59.8812 39.916 60.0912 39.358C60.3072 38.8 60.6132 38.311 61.0092 37.891C61.4112 37.471 61.8942 37.138 62.4582 36.892C63.0282 36.646 63.6702 36.523 64.3842 36.523C65.0022 36.523 65.5662 36.619 66.0762 36.811C66.5922 37.003 67.0332 37.282 67.3992 37.648C67.7712 38.014 68.0592 38.464 68.2632 38.998C68.4732 39.526 68.5782 40.126 68.5782 40.798C68.5782 41.008 68.5692 41.179 68.5512 41.311C68.5332 41.443 68.5002 41.548 68.4522 41.626C68.4042 41.704 68.3382 41.758 68.2542 41.788C68.1762 41.818 68.0742 41.833 67.9482 41.833H62.5662ZM72.5843 38.107C72.8723 37.603 73.2023 37.207 73.5743 36.919C73.9523 36.631 74.3843 36.487 74.8703 36.487C75.2903 36.487 75.6323 36.586 75.8963 36.784L75.7163 38.836C75.6863 38.968 75.6353 39.058 75.5633 39.106C75.4973 39.154 75.4043 39.178 75.2843 39.178C75.2363 39.178 75.1733 39.175 75.0953 39.169C75.0173 39.163 74.9363 39.157 74.8523 39.151C74.7683 39.139 74.6813 39.13 74.5913 39.124C74.5073 39.112 74.4293 39.106 74.3573 39.106C73.9493 39.106 73.6223 39.214 73.3763 39.43C73.1363 39.646 72.9323 39.946 72.7643 40.33V46H69.9743V36.667H71.6303C71.7683 36.667 71.8823 36.679 71.9723 36.703C72.0683 36.727 72.1463 36.766 72.2063 36.82C72.2723 36.868 72.3203 36.934 72.3503 37.018C72.3863 37.102 72.4163 37.204 72.4403 37.324L72.5843 38.107ZM86.9363 46H84.1463V38.593H80.2403V43.228C80.2403 43.444 80.2913 43.624 80.3933 43.768C80.5013 43.906 80.6543 43.975 80.8523 43.975C80.9543 43.975 81.0383 43.966 81.1043 43.948C81.1763 43.924 81.2363 43.9 81.2843 43.876C81.3383 43.846 81.3863 43.822 81.4283 43.804C81.4763 43.78 81.5303 43.768 81.5903 43.768C81.6743 43.768 81.7403 43.789 81.7883 43.831C81.8423 43.867 81.8963 43.927 81.9503 44.011L82.7963 45.334C82.4363 45.604 82.0313 45.808 81.5813 45.946C81.1313 46.078 80.6663 46.144 80.1863 46.144C79.7423 46.144 79.3493 46.081 79.0073 45.955C78.6713 45.823 78.3863 45.64 78.1523 45.406C77.9243 45.166 77.7503 44.878 77.6303 44.542C77.5103 44.206 77.4503 43.831 77.4503 43.417V38.593H76.6583C76.5143 38.593 76.3913 38.548 76.2893 38.458C76.1873 38.362 76.1363 38.224 76.1363 38.044V36.955L77.6213 36.658L78.1703 34.39C78.2423 34.102 78.4463 33.958 78.7823 33.958H80.2403V36.685H86.9363V46ZM87.3233 34.102C87.3233 34.324 87.2783 34.534 87.1883 34.732C87.0983 34.93 86.9753 35.104 86.8193 35.254C86.6633 35.398 86.4803 35.512 86.2703 35.596C86.0663 35.68 85.8473 35.722 85.6133 35.722C85.3853 35.722 85.1723 35.68 84.9743 35.596C84.7763 35.512 84.5993 35.398 84.4433 35.254C84.2933 35.104 84.1733 34.93 84.0833 34.732C83.9993 34.534 83.9573 34.324 83.9573 34.102C83.9573 33.88 83.9993 33.67 84.0833 33.472C84.1733 33.268 84.2933 33.094 84.4433 32.95C84.5993 32.8 84.7763 32.683 84.9743 32.599C85.1723 32.509 85.3853 32.464 85.6133 32.464C85.8473 32.464 86.0663 32.509 86.2703 32.599C86.4803 32.683 86.6633 32.8 86.8193 32.95C86.9753 33.094 87.0983 33.268 87.1883 33.472C87.2783 33.67 87.3233 33.88 87.3233 34.102ZM94.8194 38.71C94.7474 38.824 94.6694 38.905 94.5854 38.953C94.5074 39.001 94.4054 39.025 94.2794 39.025C94.1474 39.025 94.0154 38.998 93.8834 38.944C93.7514 38.884 93.6074 38.821 93.4514 38.755C93.3014 38.689 93.1304 38.629 92.9384 38.575C92.7464 38.515 92.5274 38.485 92.2814 38.485C91.9274 38.485 91.6544 38.554 91.4624 38.692C91.2764 38.824 91.1834 39.01 91.1834 39.25C91.1834 39.424 91.2434 39.568 91.3634 39.682C91.4894 39.796 91.6544 39.898 91.8584 39.988C92.0624 40.072 92.2934 40.153 92.5514 40.231C92.8094 40.309 93.0734 40.396 93.3434 40.492C93.6134 40.588 93.8774 40.702 94.1354 40.834C94.3934 40.96 94.6244 41.119 94.8284 41.311C95.0324 41.497 95.1944 41.725 95.3144 41.995C95.4404 42.265 95.5034 42.589 95.5034 42.967C95.5034 43.429 95.4194 43.855 95.2514 44.245C95.0834 44.635 94.8314 44.971 94.4954 45.253C94.1654 45.535 93.7544 45.754 93.2624 45.91C92.7764 46.066 92.2154 46.144 91.5794 46.144C91.2614 46.144 90.9434 46.114 90.6254 46.054C90.3074 45.994 89.9984 45.913 89.6984 45.811C89.4044 45.709 89.1314 45.589 88.8794 45.451C88.6274 45.307 88.4114 45.154 88.2314 44.992L88.8794 43.966C88.9514 43.846 89.0414 43.753 89.1494 43.687C89.2634 43.615 89.4074 43.579 89.5814 43.579C89.7434 43.579 89.8874 43.615 90.0134 43.687C90.1454 43.759 90.2864 43.837 90.4364 43.921C90.5864 44.005 90.7604 44.083 90.9584 44.155C91.1624 44.227 91.4174 44.263 91.7234 44.263C91.9394 44.263 92.1224 44.242 92.2724 44.2C92.4224 44.152 92.5424 44.089 92.6324 44.011C92.7224 43.933 92.7884 43.846 92.8304 43.75C92.8724 43.654 92.8934 43.555 92.8934 43.453C92.8934 43.267 92.8304 43.114 92.7044 42.994C92.5784 42.874 92.4134 42.772 92.2094 42.688C92.0054 42.598 91.7714 42.517 91.5074 42.445C91.2494 42.367 90.9854 42.28 90.7154 42.184C90.4454 42.088 90.1784 41.974 89.9144 41.842C89.6564 41.704 89.4254 41.533 89.2214 41.329C89.0174 41.119 88.8524 40.864 88.7264 40.564C88.6004 40.264 88.5374 39.901 88.5374 39.475C88.5374 39.079 88.6124 38.704 88.7624 38.35C88.9184 37.99 89.1494 37.675 89.4554 37.405C89.7614 37.135 90.1454 36.922 90.6074 36.766C91.0694 36.604 91.6094 36.523 92.2274 36.523C92.5634 36.523 92.8874 36.553 93.1994 36.613C93.5174 36.673 93.8144 36.757 94.0904 36.865C94.3664 36.973 94.6184 37.102 94.8464 37.252C95.0744 37.396 95.2754 37.555 95.4494 37.729L94.8194 38.71ZM102.709 40.213C102.709 39.991 102.679 39.775 102.619 39.565C102.565 39.355 102.472 39.169 102.34 39.007C102.214 38.839 102.046 38.704 101.836 38.602C101.626 38.5 101.371 38.449 101.071 38.449C100.543 38.449 100.129 38.602 99.829 38.908C99.529 39.208 99.331 39.643 99.235 40.213H102.709ZM99.199 41.833C99.289 42.613 99.526 43.18 99.91 43.534C100.294 43.882 100.789 44.056 101.395 44.056C101.719 44.056 101.998 44.017 102.232 43.939C102.466 43.861 102.673 43.774 102.853 43.678C103.039 43.582 103.207 43.495 103.357 43.417C103.513 43.339 103.675 43.3 103.843 43.3C104.065 43.3 104.233 43.381 104.347 43.543L105.157 44.542C104.869 44.872 104.557 45.142 104.221 45.352C103.891 45.556 103.549 45.718 103.195 45.838C102.847 45.952 102.496 46.03 102.142 46.072C101.794 46.12 101.461 46.144 101.143 46.144C100.489 46.144 99.874 46.039 99.298 45.829C98.728 45.613 98.227 45.295 97.795 44.875C97.369 44.455 97.03 43.933 96.778 43.309C96.532 42.685 96.409 41.959 96.409 41.131C96.409 40.507 96.514 39.916 96.724 39.358C96.94 38.8 97.246 38.311 97.642 37.891C98.044 37.471 98.527 37.138 99.091 36.892C99.661 36.646 100.303 36.523 101.017 36.523C101.635 36.523 102.199 36.619 102.709 36.811C103.225 37.003 103.666 37.282 104.032 37.648C104.404 38.014 104.692 38.464 104.896 38.998C105.106 39.526 105.211 40.126 105.211 40.798C105.211 41.008 105.202 41.179 105.184 41.311C105.166 41.443 105.133 41.548 105.085 41.626C105.037 41.704 104.971 41.758 104.887 41.788C104.809 41.818 104.707 41.833 104.581 41.833H99.199ZM115.075 36.523C115.783 36.523 116.428 36.634 117.01 36.856C117.592 37.078 118.09 37.396 118.504 37.81C118.924 38.224 119.248 38.728 119.476 39.322C119.71 39.91 119.827 40.573 119.827 41.311C119.827 42.055 119.71 42.727 119.476 43.327C119.248 43.921 118.924 44.428 118.504 44.848C118.09 45.262 117.592 45.583 117.01 45.811C116.428 46.033 115.783 46.144 115.075 46.144C114.361 46.144 113.71 46.033 113.122 45.811C112.54 45.583 112.036 45.262 111.61 44.848C111.19 44.428 110.863 43.921 110.629 43.327C110.401 42.727 110.287 42.055 110.287 41.311C110.287 40.573 110.401 39.91 110.629 39.322C110.863 38.728 111.19 38.224 111.61 37.81C112.036 37.396 112.54 37.078 113.122 36.856C113.71 36.634 114.361 36.523 115.075 36.523ZM115.075 44.074C115.717 44.074 116.188 43.849 116.488 43.399C116.794 42.943 116.947 42.253 116.947 41.329C116.947 40.405 116.794 39.718 116.488 39.268C116.188 38.818 115.717 38.593 115.075 38.593C114.415 38.593 113.932 38.818 113.626 39.268C113.32 39.718 113.167 40.405 113.167 41.329C113.167 42.253 113.32 42.943 113.626 43.399C113.932 43.849 114.415 44.074 115.075 44.074ZM123.806 37.675C123.986 37.507 124.172 37.351 124.364 37.207C124.556 37.063 124.76 36.943 124.976 36.847C125.198 36.745 125.435 36.667 125.687 36.613C125.945 36.553 126.224 36.523 126.524 36.523C127.034 36.523 127.484 36.613 127.874 36.793C128.27 36.967 128.603 37.213 128.873 37.531C129.143 37.843 129.347 38.218 129.485 38.656C129.623 39.088 129.692 39.559 129.692 40.069V46H126.902V40.069C126.902 39.613 126.797 39.259 126.587 39.007C126.377 38.749 126.068 38.62 125.66 38.62C125.354 38.62 125.066 38.686 124.796 38.818C124.532 38.944 124.274 39.118 124.022 39.34V46H121.232V36.667H122.96C123.308 36.667 123.536 36.823 123.644 37.135L123.806 37.675ZM142.303 40.987L141.088 37.396C140.998 37.168 140.902 36.901 140.8 36.595C140.698 36.283 140.596 35.947 140.494 35.587C140.404 35.953 140.308 36.292 140.206 36.604C140.104 36.916 140.008 37.186 139.918 37.414L138.712 40.987H142.303ZM147.136 46H144.778C144.514 46 144.301 45.94 144.139 45.82C143.977 45.694 143.854 45.535 143.77 45.343L142.996 43.057H138.01L137.236 45.343C137.17 45.511 137.05 45.664 136.876 45.802C136.708 45.934 136.498 46 136.246 46H133.87L138.946 32.887H142.06L147.136 46ZM153.776 38.71C153.704 38.824 153.626 38.905 153.542 38.953C153.464 39.001 153.362 39.025 153.236 39.025C153.104 39.025 152.972 38.998 152.84 38.944C152.708 38.884 152.564 38.821 152.408 38.755C152.258 38.689 152.087 38.629 151.895 38.575C151.703 38.515 151.484 38.485 151.238 38.485C150.884 38.485 150.611 38.554 150.419 38.692C150.233 38.824 150.14 39.01 150.14 39.25C150.14 39.424 150.2 39.568 150.32 39.682C150.446 39.796 150.611 39.898 150.815 39.988C151.019 40.072 151.25 40.153 151.508 40.231C151.766 40.309 152.03 40.396 152.3 40.492C152.57 40.588 152.834 40.702 153.092 40.834C153.35 40.96 153.581 41.119 153.785 41.311C153.989 41.497 154.151 41.725 154.271 41.995C154.397 42.265 154.46 42.589 154.46 42.967C154.46 43.429 154.376 43.855 154.208 44.245C154.04 44.635 153.788 44.971 153.452 45.253C153.122 45.535 152.711 45.754 152.219 45.91C151.733 46.066 151.172 46.144 150.536 46.144C150.218 46.144 149.9 46.114 149.582 46.054C149.264 45.994 148.955 45.913 148.655 45.811C148.361 45.709 148.088 45.589 147.836 45.451C147.584 45.307 147.368 45.154 147.188 44.992L147.836 43.966C147.908 43.846 147.998 43.753 148.106 43.687C148.22 43.615 148.364 43.579 148.538 43.579C148.7 43.579 148.844 43.615 148.97 43.687C149.102 43.759 149.243 43.837 149.393 43.921C149.543 44.005 149.717 44.083 149.915 44.155C150.119 44.227 150.374 44.263 150.68 44.263C150.896 44.263 151.079 44.242 151.229 44.2C151.379 44.152 151.499 44.089 151.589 44.011C151.679 43.933 151.745 43.846 151.787 43.75C151.829 43.654 151.85 43.555 151.85 43.453C151.85 43.267 151.787 43.114 151.661 42.994C151.535 42.874 151.37 42.772 151.166 42.688C150.962 42.598 150.728 42.517 150.464 42.445C150.206 42.367 149.942 42.28 149.672 42.184C149.402 42.088 149.135 41.974 148.871 41.842C148.613 41.704 148.382 41.533 148.178 41.329C147.974 41.119 147.809 40.864 147.683 40.564C147.557 40.264 147.494 39.901 147.494 39.475C147.494 39.079 147.569 38.704 147.719 38.35C147.875 37.99 148.106 37.675 148.412 37.405C148.718 37.135 149.102 36.922 149.564 36.766C150.026 36.604 150.566 36.523 151.184 36.523C151.52 36.523 151.844 36.553 152.156 36.613C152.474 36.673 152.771 36.757 153.047 36.865C153.323 36.973 153.575 37.102 153.803 37.252C154.031 37.396 154.232 37.555 154.406 37.729L153.776 38.71ZM158.651 32.527V40.078H159.065C159.239 40.078 159.371 40.054 159.461 40.006C159.551 39.952 159.641 39.865 159.731 39.745L161.495 37.117C161.603 36.967 161.726 36.856 161.864 36.784C162.002 36.706 162.179 36.667 162.395 36.667H164.951L162.539 39.988C162.311 40.288 162.041 40.534 161.729 40.726C161.867 40.828 161.993 40.948 162.107 41.086C162.221 41.218 162.329 41.368 162.431 41.536L165.059 46H162.539C162.329 46 162.149 45.967 161.999 45.901C161.849 45.829 161.723 45.706 161.621 45.532L159.857 42.229C159.773 42.079 159.686 41.983 159.596 41.941C159.506 41.893 159.371 41.869 159.191 41.869H158.651V46H155.861V32.527H158.651ZM178.138 39.439C178.138 40.387 177.973 41.263 177.643 42.067C177.319 42.865 176.86 43.558 176.266 44.146C175.672 44.728 174.955 45.184 174.115 45.514C173.281 45.838 172.354 46 171.334 46H166.24V32.887H171.334C172.354 32.887 173.281 33.052 174.115 33.382C174.955 33.712 175.672 34.168 176.266 34.75C176.86 35.332 177.319 36.025 177.643 36.829C177.973 37.627 178.138 38.497 178.138 39.439ZM175.024 39.439C175.024 38.791 174.94 38.206 174.772 37.684C174.604 37.162 174.361 36.721 174.043 36.361C173.731 35.995 173.347 35.716 172.891 35.524C172.435 35.326 171.916 35.227 171.334 35.227H169.3V43.66H171.334C171.916 43.66 172.435 43.564 172.891 43.372C173.347 43.174 173.731 42.895 174.043 42.535C174.361 42.169 174.604 41.725 174.772 41.203C174.94 40.681 175.024 40.093 175.024 39.439ZM182.321 36.667V46H179.531V36.667H182.321ZM182.609 34.111C182.609 34.333 182.564 34.543 182.474 34.741C182.384 34.933 182.261 35.104 182.105 35.254C181.949 35.398 181.766 35.515 181.556 35.605C181.352 35.689 181.133 35.731 180.899 35.731C180.671 35.731 180.458 35.689 180.26 35.605C180.062 35.515 179.885 35.398 179.729 35.254C179.579 35.104 179.459 34.933 179.369 34.741C179.285 34.543 179.243 34.333 179.243 34.111C179.243 33.883 179.285 33.67 179.369 33.472C179.459 33.274 179.579 33.1 179.729 32.95C179.885 32.8 180.062 32.683 180.26 32.599C180.458 32.515 180.671 32.473 180.899 32.473C181.133 32.473 181.352 32.515 181.556 32.599C181.766 32.683 181.949 32.8 182.105 32.95C182.261 33.1 182.384 33.274 182.474 33.472C182.564 33.67 182.609 33.883 182.609 34.111ZM190.198 38.71C190.126 38.824 190.048 38.905 189.964 38.953C189.886 39.001 189.784 39.025 189.658 39.025C189.526 39.025 189.394 38.998 189.262 38.944C189.13 38.884 188.986 38.821 188.83 38.755C188.68 38.689 188.509 38.629 188.317 38.575C188.125 38.515 187.906 38.485 187.66 38.485C187.306 38.485 187.033 38.554 186.841 38.692C186.655 38.824 186.562 39.01 186.562 39.25C186.562 39.424 186.622 39.568 186.742 39.682C186.868 39.796 187.033 39.898 187.237 39.988C187.441 40.072 187.672 40.153 187.93 40.231C188.188 40.309 188.452 40.396 188.722 40.492C188.992 40.588 189.256 40.702 189.514 40.834C189.772 40.96 190.003 41.119 190.207 41.311C190.411 41.497 190.573 41.725 190.693 41.995C190.819 42.265 190.882 42.589 190.882 42.967C190.882 43.429 190.798 43.855 190.63 44.245C190.462 44.635 190.21 44.971 189.874 45.253C189.544 45.535 189.133 45.754 188.641 45.91C188.155 46.066 187.594 46.144 186.958 46.144C186.64 46.144 186.322 46.114 186.004 46.054C185.686 45.994 185.377 45.913 185.077 45.811C184.783 45.709 184.51 45.589 184.258 45.451C184.006 45.307 183.79 45.154 183.61 44.992L184.258 43.966C184.33 43.846 184.42 43.753 184.528 43.687C184.642 43.615 184.786 43.579 184.96 43.579C185.122 43.579 185.266 43.615 185.392 43.687C185.524 43.759 185.665 43.837 185.815 43.921C185.965 44.005 186.139 44.083 186.337 44.155C186.541 44.227 186.796 44.263 187.102 44.263C187.318 44.263 187.501 44.242 187.651 44.2C187.801 44.152 187.921 44.089 188.011 44.011C188.101 43.933 188.167 43.846 188.209 43.75C188.251 43.654 188.272 43.555 188.272 43.453C188.272 43.267 188.209 43.114 188.083 42.994C187.957 42.874 187.792 42.772 187.588 42.688C187.384 42.598 187.15 42.517 186.886 42.445C186.628 42.367 186.364 42.28 186.094 42.184C185.824 42.088 185.557 41.974 185.293 41.842C185.035 41.704 184.804 41.533 184.6 41.329C184.396 41.119 184.231 40.864 184.105 40.564C183.979 40.264 183.916 39.901 183.916 39.475C183.916 39.079 183.991 38.704 184.141 38.35C184.297 37.99 184.528 37.675 184.834 37.405C185.14 37.135 185.524 36.922 185.986 36.766C186.448 36.604 186.988 36.523 187.606 36.523C187.942 36.523 188.266 36.553 188.578 36.613C188.896 36.673 189.193 36.757 189.469 36.865C189.745 36.973 189.997 37.102 190.225 37.252C190.453 37.396 190.654 37.555 190.828 37.729L190.198 38.71ZM195.073 37.486C195.409 37.198 195.772 36.967 196.162 36.793C196.558 36.613 197.029 36.523 197.575 36.523C198.085 36.523 198.535 36.613 198.925 36.793C199.321 36.967 199.654 37.213 199.924 37.531C200.194 37.843 200.398 38.218 200.536 38.656C200.674 39.088 200.743 39.559 200.743 40.069V46H197.953V40.069C197.953 39.613 197.848 39.259 197.638 39.007C197.428 38.749 197.119 38.62 196.711 38.62C196.405 38.62 196.117 38.686 195.847 38.818C195.583 38.944 195.325 39.118 195.073 39.34V46H192.283V32.527H195.073V37.486ZM207.364 42.202C206.806 42.226 206.347 42.274 205.987 42.346C205.627 42.418 205.342 42.508 205.132 42.616C204.922 42.724 204.775 42.847 204.691 42.985C204.613 43.123 204.574 43.273 204.574 43.435C204.574 43.753 204.661 43.978 204.835 44.11C205.009 44.236 205.264 44.299 205.6 44.299C205.96 44.299 206.275 44.236 206.545 44.11C206.815 43.984 207.088 43.78 207.364 43.498V42.202ZM202.342 37.963C202.906 37.465 203.53 37.096 204.214 36.856C204.904 36.61 205.642 36.487 206.428 36.487C206.992 36.487 207.499 36.58 207.949 36.766C208.405 36.946 208.789 37.201 209.101 37.531C209.419 37.855 209.662 38.242 209.83 38.692C209.998 39.142 210.082 39.634 210.082 40.168V46H208.804C208.54 46 208.339 45.964 208.201 45.892C208.069 45.82 207.958 45.67 207.868 45.442L207.67 44.929C207.436 45.127 207.211 45.301 206.995 45.451C206.779 45.601 206.554 45.73 206.32 45.838C206.092 45.94 205.846 46.015 205.582 46.063C205.324 46.117 205.036 46.144 204.718 46.144C204.292 46.144 203.905 46.09 203.557 45.982C203.209 45.868 202.912 45.703 202.666 45.487C202.426 45.271 202.24 45.004 202.108 44.686C201.976 44.362 201.91 43.99 201.91 43.57C201.91 43.234 201.994 42.895 202.162 42.553C202.33 42.205 202.621 41.89 203.035 41.608C203.449 41.32 204.007 41.08 204.709 40.888C205.411 40.696 206.296 40.588 207.364 40.564V40.168C207.364 39.622 207.25 39.229 207.022 38.989C206.8 38.743 206.482 38.62 206.068 38.62C205.738 38.62 205.468 38.656 205.258 38.728C205.048 38.8 204.859 38.881 204.691 38.971C204.529 39.061 204.37 39.142 204.214 39.214C204.058 39.286 203.872 39.322 203.656 39.322C203.464 39.322 203.302 39.274 203.17 39.178C203.038 39.082 202.93 38.968 202.846 38.836L202.342 37.963Z" fill="#2A2A2A"/>
<path d="M31.06 62.827C31.452 62.827 31.7973 62.7803 32.096 62.687C32.3993 62.589 32.6513 62.4537 32.852 62.281C33.0573 62.1037 33.2113 61.8937 33.314 61.651C33.4167 61.4083 33.468 61.14 33.468 60.846C33.468 60.2487 33.272 59.7983 32.88 59.495C32.488 59.1917 31.9 59.04 31.116 59.04H29.632V62.827H31.06ZM35.694 68H34.49C34.2427 68 34.0607 67.9043 33.944 67.713L31.34 64.129C31.2607 64.017 31.1743 63.9377 31.081 63.891C30.9923 63.8397 30.8523 63.814 30.661 63.814H29.632V68H28.281V57.969H31.116C31.7507 57.969 32.299 58.0343 32.761 58.165C33.223 58.291 33.6033 58.4753 33.902 58.718C34.2053 58.9607 34.4293 59.2547 34.574 59.6C34.7187 59.9407 34.791 60.3233 34.791 60.748C34.791 61.1027 34.735 61.434 34.623 61.742C34.511 62.05 34.3477 62.3277 34.133 62.575C33.923 62.8177 33.664 63.0253 33.356 63.198C33.0527 63.3707 32.7073 63.5013 32.32 63.59C32.4927 63.688 32.642 63.8303 32.768 64.017L35.694 68ZM41.0592 63.681C41.0592 63.3917 41.0172 63.128 40.9332 62.89C40.8538 62.6473 40.7348 62.4397 40.5762 62.267C40.4222 62.0897 40.2332 61.9543 40.0092 61.861C39.7852 61.763 39.5308 61.714 39.2462 61.714C38.6488 61.714 38.1752 61.889 37.8252 62.239C37.4798 62.5843 37.2652 63.065 37.1812 63.681H41.0592ZM42.0672 67.006C41.9132 67.1927 41.7288 67.356 41.5142 67.496C41.2995 67.6313 41.0685 67.7433 40.8212 67.832C40.5785 67.9207 40.3265 67.986 40.0652 68.028C39.8038 68.0747 39.5448 68.098 39.2882 68.098C38.7982 68.098 38.3455 68.0163 37.9302 67.853C37.5195 67.685 37.1625 67.4423 36.8592 67.125C36.5605 66.803 36.3272 66.4063 36.1592 65.935C35.9912 65.4637 35.9072 64.9223 35.9072 64.311C35.9072 63.8163 35.9818 63.3543 36.1312 62.925C36.2852 62.4957 36.5045 62.1247 36.7892 61.812C37.0738 61.4947 37.4215 61.2473 37.8322 61.07C38.2428 60.888 38.7048 60.797 39.2182 60.797C39.6428 60.797 40.0348 60.8693 40.3942 61.014C40.7582 61.154 41.0708 61.3593 41.3322 61.63C41.5982 61.896 41.8058 62.2273 41.9552 62.624C42.1045 63.016 42.1792 63.464 42.1792 63.968C42.1792 64.164 42.1582 64.2947 42.1162 64.36C42.0742 64.4253 41.9948 64.458 41.8782 64.458H37.1392C37.1532 64.906 37.2138 65.2957 37.3212 65.627C37.4332 65.9583 37.5872 66.236 37.7832 66.46C37.9792 66.6793 38.2125 66.845 38.4832 66.957C38.7538 67.0643 39.0572 67.118 39.3932 67.118C39.7058 67.118 39.9742 67.083 40.1982 67.013C40.4268 66.9383 40.6228 66.859 40.7862 66.775C40.9495 66.691 41.0848 66.614 41.1922 66.544C41.3042 66.4693 41.3998 66.432 41.4792 66.432C41.5818 66.432 41.6612 66.4717 41.7172 66.551L42.0672 67.006ZM47.5527 64.808C46.9787 64.8267 46.4887 64.8733 46.0827 64.948C45.6813 65.018 45.3523 65.1113 45.0957 65.228C44.8437 65.3447 44.6593 65.4823 44.5427 65.641C44.4307 65.7997 44.3747 65.977 44.3747 66.173C44.3747 66.3597 44.405 66.5207 44.4657 66.656C44.5263 66.7913 44.608 66.9033 44.7107 66.992C44.818 67.076 44.9417 67.139 45.0817 67.181C45.2263 67.2183 45.3803 67.237 45.5437 67.237C45.763 67.237 45.9637 67.216 46.1457 67.174C46.3277 67.1273 46.498 67.062 46.6567 66.978C46.82 66.894 46.974 66.7937 47.1187 66.677C47.268 66.5603 47.4127 66.4273 47.5527 66.278V64.808ZM43.5277 61.91C43.9197 61.532 44.342 61.2497 44.7947 61.063C45.2473 60.8763 45.749 60.783 46.2997 60.783C46.6963 60.783 47.0487 60.8483 47.3567 60.979C47.6647 61.1097 47.9237 61.2917 48.1337 61.525C48.3437 61.7583 48.5023 62.0407 48.6097 62.372C48.717 62.7033 48.7707 63.0673 48.7707 63.464V68H48.2177C48.0963 68 48.003 67.9813 47.9377 67.944C47.8723 67.902 47.821 67.8227 47.7837 67.706L47.6437 67.034C47.457 67.2067 47.275 67.3607 47.0977 67.496C46.9203 67.6267 46.7337 67.7387 46.5377 67.832C46.3417 67.9207 46.1317 67.9883 45.9077 68.035C45.6883 68.0863 45.4433 68.112 45.1727 68.112C44.8973 68.112 44.6383 68.0747 44.3957 68C44.153 67.9207 43.9407 67.804 43.7587 67.65C43.5813 67.496 43.439 67.3023 43.3317 67.069C43.229 66.831 43.1777 66.551 43.1777 66.229C43.1777 65.949 43.2547 65.6807 43.4087 65.424C43.5627 65.1627 43.8123 64.9317 44.1577 64.731C44.503 64.5303 44.9533 64.367 45.5087 64.241C46.064 64.1103 46.7453 64.0357 47.5527 64.017V63.464C47.5527 62.9133 47.4337 62.498 47.1957 62.218C46.9577 61.9333 46.61 61.791 46.1527 61.791C45.8447 61.791 45.5857 61.8307 45.3757 61.91C45.1703 61.9847 44.9907 62.071 44.8367 62.169C44.6873 62.2623 44.5567 62.3487 44.4447 62.428C44.3373 62.5027 44.23 62.54 44.1227 62.54C44.0387 62.54 43.9663 62.519 43.9057 62.477C43.845 62.4303 43.7937 62.3743 43.7517 62.309L43.5277 61.91ZM55.6036 62.169C55.5663 62.2203 55.529 62.26 55.4916 62.288C55.4543 62.316 55.403 62.33 55.3376 62.33C55.2676 62.33 55.1906 62.302 55.1066 62.246C55.0226 62.1853 54.9176 62.12 54.7916 62.05C54.6703 61.98 54.5186 61.917 54.3366 61.861C54.1593 61.8003 53.94 61.77 53.6786 61.77C53.3286 61.77 53.0206 61.833 52.7546 61.959C52.4886 62.0803 52.2646 62.2577 52.0826 62.491C51.9053 62.7243 51.77 63.0067 51.6766 63.338C51.588 63.6693 51.5436 64.0403 51.5436 64.451C51.5436 64.8803 51.5926 65.263 51.6906 65.599C51.7886 65.9303 51.9263 66.2103 52.1036 66.439C52.2856 66.663 52.5026 66.8357 52.7546 66.957C53.0113 67.0737 53.2983 67.132 53.6156 67.132C53.919 67.132 54.1686 67.097 54.3646 67.027C54.5606 66.9523 54.7216 66.8707 54.8476 66.782C54.9783 66.6933 55.0856 66.614 55.1696 66.544C55.2583 66.4693 55.3446 66.432 55.4286 66.432C55.5313 66.432 55.6106 66.4717 55.6666 66.551L56.0166 67.006C55.8626 67.1973 55.6876 67.3607 55.4916 67.496C55.2956 67.6313 55.0833 67.7457 54.8546 67.839C54.6306 67.9277 54.395 67.993 54.1476 68.035C53.9003 68.077 53.6483 68.098 53.3916 68.098C52.9483 68.098 52.5353 68.0163 52.1526 67.853C51.7746 67.6897 51.4456 67.454 51.1656 67.146C50.8856 66.8333 50.6663 66.4507 50.5076 65.998C50.349 65.5453 50.2696 65.0297 50.2696 64.451C50.2696 63.9237 50.342 63.436 50.4866 62.988C50.636 62.54 50.8506 62.155 51.1306 61.833C51.4153 61.5063 51.763 61.252 52.1736 61.07C52.589 60.888 53.065 60.797 53.6016 60.797C54.101 60.797 54.5396 60.8787 54.9176 61.042C55.3003 61.2007 55.6386 61.427 55.9326 61.721L55.6036 62.169ZM58.6072 61.854C58.9105 61.532 59.2465 61.2753 59.6152 61.084C59.9839 60.8927 60.4085 60.797 60.8892 60.797C61.2765 60.797 61.6172 60.8623 61.9112 60.993C62.2099 61.119 62.4572 61.301 62.6532 61.539C62.8539 61.7723 63.0055 62.0547 63.1082 62.386C63.2109 62.7173 63.2622 63.0837 63.2622 63.485V68H62.0092V63.485C62.0092 62.9483 61.8855 62.533 61.6382 62.239C61.3955 61.9403 61.0245 61.791 60.5252 61.791C60.1565 61.791 59.8112 61.8797 59.4892 62.057C59.1719 62.2343 58.8779 62.4747 58.6072 62.778V68H57.3542V57.689H58.6072V61.854ZM71.7319 60.797C72.2499 60.797 72.7165 60.8833 73.1319 61.056C73.5472 61.2287 73.9019 61.4737 74.1959 61.791C74.4899 62.1083 74.7139 62.4933 74.8679 62.946C75.0265 63.394 75.1059 63.8957 75.1059 64.451C75.1059 65.011 75.0265 65.515 74.8679 65.963C74.7139 66.411 74.4899 66.7937 74.1959 67.111C73.9019 67.4283 73.5472 67.6733 73.1319 67.846C72.7165 68.014 72.2499 68.098 71.7319 68.098C71.2092 68.098 70.7379 68.014 70.3179 67.846C69.9025 67.6733 69.5479 67.4283 69.2539 67.111C68.9599 66.7937 68.7335 66.411 68.5749 65.963C68.4209 65.515 68.3439 65.011 68.3439 64.451C68.3439 63.8957 68.4209 63.394 68.5749 62.946C68.7335 62.4933 68.9599 62.1083 69.2539 61.791C69.5479 61.4737 69.9025 61.2287 70.3179 61.056C70.7379 60.8833 71.2092 60.797 71.7319 60.797ZM71.7319 67.125C72.4319 67.125 72.9545 66.8917 73.2999 66.425C73.6452 65.9537 73.8179 65.298 73.8179 64.458C73.8179 63.6133 73.6452 62.9553 73.2999 62.484C72.9545 62.0127 72.4319 61.777 71.7319 61.777C71.3772 61.777 71.0669 61.8377 70.8009 61.959C70.5395 62.0803 70.3202 62.2553 70.1429 62.484C69.9702 62.7127 69.8395 62.995 69.7509 63.331C69.6669 63.6623 69.6249 64.038 69.6249 64.458C69.6249 65.298 69.7975 65.9537 70.1429 66.425C70.4929 66.8917 71.0225 67.125 71.7319 67.125ZM82.5172 60.909V68H81.7752C81.5979 68 81.4859 67.9137 81.4392 67.741L81.3412 66.978C81.0332 67.3187 80.6879 67.594 80.3052 67.804C79.9226 68.0093 79.4839 68.112 78.9892 68.112C78.6019 68.112 78.2589 68.049 77.9602 67.923C77.6662 67.7923 77.4189 67.6103 77.2182 67.377C77.0176 67.1437 76.8659 66.8613 76.7632 66.53C76.6652 66.1987 76.6162 65.8323 76.6162 65.431V60.909H77.8622V65.431C77.8622 65.9677 77.9836 66.383 78.2262 66.677C78.4736 66.971 78.8492 67.118 79.3532 67.118C79.7219 67.118 80.0649 67.0317 80.3822 66.859C80.7042 66.6817 81.0006 66.439 81.2712 66.131V60.909H82.5172ZM86.6699 68.112C86.1099 68.112 85.6782 67.9557 85.3749 67.643C85.0762 67.3303 84.9269 66.88 84.9269 66.292V61.952H84.0729C83.9982 61.952 83.9352 61.931 83.8839 61.889C83.8325 61.8423 83.8069 61.7723 83.8069 61.679V61.182L84.9689 61.035L85.2559 58.844C85.2699 58.774 85.3002 58.718 85.3469 58.676C85.3982 58.6293 85.4635 58.606 85.5429 58.606H86.1729V61.049H88.2239V61.952H86.1729V66.208C86.1729 66.5067 86.2452 66.7283 86.3899 66.873C86.5345 67.0177 86.7212 67.09 86.9499 67.09C87.0805 67.09 87.1925 67.0737 87.2859 67.041C87.3839 67.0037 87.4679 66.964 87.5379 66.922C87.6079 66.88 87.6662 66.8427 87.7129 66.81C87.7642 66.7727 87.8085 66.754 87.8459 66.754C87.9112 66.754 87.9695 66.7937 88.0209 66.873L88.3849 67.468C88.1702 67.6687 87.9112 67.8273 87.6079 67.944C87.3045 68.056 86.9919 68.112 86.6699 68.112ZM95.2695 68.112C94.7095 68.112 94.2778 67.9557 93.9745 67.643C93.6758 67.3303 93.5265 66.88 93.5265 66.292V61.952H92.6725C92.5978 61.952 92.5348 61.931 92.4835 61.889C92.4321 61.8423 92.4065 61.7723 92.4065 61.679V61.182L93.5685 61.035L93.8555 58.844C93.8695 58.774 93.8998 58.718 93.9465 58.676C93.9978 58.6293 94.0631 58.606 94.1425 58.606H94.7725V61.049H96.8235V61.952H94.7725V66.208C94.7725 66.5067 94.8448 66.7283 94.9895 66.873C95.1341 67.0177 95.3208 67.09 95.5495 67.09C95.6801 67.09 95.7921 67.0737 95.8855 67.041C95.9835 67.0037 96.0675 66.964 96.1375 66.922C96.2075 66.88 96.2658 66.8427 96.3125 66.81C96.3638 66.7727 96.4081 66.754 96.4455 66.754C96.5108 66.754 96.5691 66.7937 96.6205 66.873L96.9845 67.468C96.7698 67.6687 96.5108 67.8273 96.2075 67.944C95.9041 68.056 95.5915 68.112 95.2695 68.112ZM101.058 60.797C101.576 60.797 102.043 60.8833 102.458 61.056C102.873 61.2287 103.228 61.4737 103.522 61.791C103.816 62.1083 104.04 62.4933 104.194 62.946C104.353 63.394 104.432 63.8957 104.432 64.451C104.432 65.011 104.353 65.515 104.194 65.963C104.04 66.411 103.816 66.7937 103.522 67.111C103.228 67.4283 102.873 67.6733 102.458 67.846C102.043 68.014 101.576 68.098 101.058 68.098C100.535 68.098 100.064 68.014 99.644 67.846C99.2287 67.6733 98.874 67.4283 98.58 67.111C98.286 66.7937 98.0597 66.411 97.901 65.963C97.747 65.515 97.67 65.011 97.67 64.451C97.67 63.8957 97.747 63.394 97.901 62.946C98.0597 62.4933 98.286 62.1083 98.58 61.791C98.874 61.4737 99.2287 61.2287 99.644 61.056C100.064 60.8833 100.535 60.797 101.058 60.797ZM101.058 67.125C101.758 67.125 102.281 66.8917 102.626 66.425C102.971 65.9537 103.144 65.298 103.144 64.458C103.144 63.6133 102.971 62.9553 102.626 62.484C102.281 62.0127 101.758 61.777 101.058 61.777C100.703 61.777 100.393 61.8377 100.127 61.959C99.8657 62.0803 99.6464 62.2553 99.469 62.484C99.2964 62.7127 99.1657 62.995 99.077 63.331C98.993 63.6623 98.951 64.038 98.951 64.458C98.951 65.298 99.1237 65.9537 99.469 66.425C99.819 66.8917 100.349 67.125 101.058 67.125ZM109.594 68V60.909H110.343C110.521 60.909 110.63 60.9953 110.672 61.168L110.763 61.896C111.025 61.574 111.319 61.3103 111.645 61.105C111.972 60.8997 112.35 60.797 112.779 60.797C113.255 60.797 113.64 60.93 113.934 61.196C114.233 61.462 114.448 61.8213 114.578 62.274C114.681 62.0173 114.812 61.7957 114.97 61.609C115.134 61.4223 115.316 61.2683 115.516 61.147C115.717 61.0257 115.929 60.937 116.153 60.881C116.382 60.825 116.613 60.797 116.846 60.797C117.22 60.797 117.551 60.8577 117.84 60.979C118.134 61.0957 118.382 61.2683 118.582 61.497C118.788 61.7257 118.944 62.008 119.051 62.344C119.159 62.6753 119.212 63.0557 119.212 63.485V68H117.959V63.485C117.959 62.9297 117.838 62.5097 117.595 62.225C117.353 61.9357 117.003 61.791 116.545 61.791C116.34 61.791 116.144 61.8283 115.957 61.903C115.775 61.973 115.614 62.078 115.474 62.218C115.334 62.358 115.222 62.5353 115.138 62.75C115.059 62.96 115.019 63.205 115.019 63.485V68H113.766V63.485C113.766 62.9157 113.652 62.491 113.423 62.211C113.195 61.931 112.861 61.791 112.422 61.791C112.114 61.791 111.83 61.875 111.568 62.043C111.307 62.2063 111.067 62.4303 110.847 62.715V68H109.594ZM122.422 60.909V68H121.176V60.909H122.422ZM122.688 58.683C122.688 58.8043 122.662 58.9187 122.611 59.026C122.564 59.1287 122.499 59.222 122.415 59.306C122.336 59.3853 122.24 59.4483 122.128 59.495C122.021 59.5417 121.906 59.565 121.785 59.565C121.664 59.565 121.549 59.5417 121.442 59.495C121.339 59.4483 121.248 59.3853 121.169 59.306C121.09 59.222 121.027 59.1287 120.98 59.026C120.933 58.9187 120.91 58.8043 120.91 58.683C120.91 58.5617 120.933 58.4473 120.98 58.34C121.027 58.228 121.09 58.1323 121.169 58.053C121.248 57.969 121.339 57.9037 121.442 57.857C121.549 57.8103 121.664 57.787 121.785 57.787C121.906 57.787 122.021 57.8103 122.128 57.857C122.24 57.9037 122.336 57.969 122.415 58.053C122.499 58.1323 122.564 58.228 122.611 58.34C122.662 58.4473 122.688 58.5617 122.688 58.683ZM125.757 57.689V68H124.511V57.689H125.757ZM129.066 57.689V68H127.82V57.689H129.066ZM132.403 60.909V68H131.157V60.909H132.403ZM132.669 58.683C132.669 58.8043 132.643 58.9187 132.592 59.026C132.545 59.1287 132.48 59.222 132.396 59.306C132.316 59.3853 132.221 59.4483 132.109 59.495C132.001 59.5417 131.887 59.565 131.766 59.565C131.644 59.565 131.53 59.5417 131.423 59.495C131.32 59.4483 131.229 59.3853 131.15 59.306C131.07 59.222 131.007 59.1287 130.961 59.026C130.914 58.9187 130.891 58.8043 130.891 58.683C130.891 58.5617 130.914 58.4473 130.961 58.34C131.007 58.228 131.07 58.1323 131.15 58.053C131.229 57.969 131.32 57.9037 131.423 57.857C131.53 57.8103 131.644 57.787 131.766 57.787C131.887 57.787 132.001 57.8103 132.109 57.857C132.221 57.9037 132.316 57.969 132.396 58.053C132.48 58.1323 132.545 58.228 132.592 58.34C132.643 58.4473 132.669 58.5617 132.669 58.683ZM137.439 60.797C137.957 60.797 138.424 60.8833 138.839 61.056C139.254 61.2287 139.609 61.4737 139.903 61.791C140.197 62.1083 140.421 62.4933 140.575 62.946C140.734 63.394 140.813 63.8957 140.813 64.451C140.813 65.011 140.734 65.515 140.575 65.963C140.421 66.411 140.197 66.7937 139.903 67.111C139.609 67.4283 139.254 67.6733 138.839 67.846C138.424 68.014 137.957 68.098 137.439 68.098C136.916 68.098 136.445 68.014 136.025 67.846C135.61 67.6733 135.255 67.4283 134.961 67.111C134.667 66.7937 134.441 66.411 134.282 65.963C134.128 65.515 134.051 65.011 134.051 64.451C134.051 63.8957 134.128 63.394 134.282 62.946C134.441 62.4933 134.667 62.1083 134.961 61.791C135.255 61.4737 135.61 61.2287 136.025 61.056C136.445 60.8833 136.916 60.797 137.439 60.797ZM137.439 67.125C138.139 67.125 138.662 66.8917 139.007 66.425C139.352 65.9537 139.525 65.298 139.525 64.458C139.525 63.6133 139.352 62.9553 139.007 62.484C138.662 62.0127 138.139 61.777 137.439 61.777C137.084 61.777 136.774 61.8377 136.508 61.959C136.247 62.0803 136.027 62.2553 135.85 62.484C135.677 62.7127 135.547 62.995 135.458 63.331C135.374 63.6623 135.332 64.038 135.332 64.458C135.332 65.298 135.505 65.9537 135.85 66.425C136.2 66.8917 136.73 67.125 137.439 67.125ZM143.569 61.938C143.723 61.7653 143.887 61.609 144.059 61.469C144.232 61.329 144.414 61.21 144.605 61.112C144.801 61.0093 145.007 60.9323 145.221 60.881C145.441 60.825 145.676 60.797 145.928 60.797C146.316 60.797 146.656 60.8623 146.95 60.993C147.249 61.119 147.496 61.301 147.692 61.539C147.893 61.7723 148.045 62.0547 148.147 62.386C148.25 62.7173 148.301 63.0837 148.301 63.485V68H147.048V63.485C147.048 62.9483 146.925 62.533 146.677 62.239C146.435 61.9403 146.064 61.791 145.564 61.791C145.196 61.791 144.85 61.8797 144.528 62.057C144.211 62.2343 143.917 62.4747 143.646 62.778V68H142.393V60.909H143.142C143.32 60.909 143.429 60.9953 143.471 61.168L143.569 61.938ZM154.33 62.078C154.274 62.1807 154.188 62.232 154.071 62.232C154.001 62.232 153.922 62.2063 153.833 62.155C153.744 62.1037 153.635 62.0477 153.504 61.987C153.378 61.9217 153.226 61.8633 153.049 61.812C152.872 61.756 152.662 61.728 152.419 61.728C152.209 61.728 152.02 61.756 151.852 61.812C151.684 61.8633 151.539 61.9357 151.418 62.029C151.301 62.1223 151.21 62.232 151.145 62.358C151.084 62.4793 151.054 62.6123 151.054 62.757C151.054 62.939 151.105 63.0907 151.208 63.212C151.315 63.3333 151.455 63.4383 151.628 63.527C151.801 63.6157 151.997 63.695 152.216 63.765C152.435 63.8303 152.659 63.9027 152.888 63.982C153.121 64.0567 153.348 64.1407 153.567 64.234C153.786 64.3273 153.982 64.444 154.155 64.584C154.328 64.724 154.465 64.8967 154.568 65.102C154.675 65.3027 154.729 65.5453 154.729 65.83C154.729 66.1567 154.671 66.46 154.554 66.74C154.437 67.0153 154.265 67.2557 154.036 67.461C153.807 67.6617 153.527 67.8203 153.196 67.937C152.865 68.0537 152.482 68.112 152.048 68.112C151.553 68.112 151.105 68.0327 150.704 67.874C150.303 67.7107 149.962 67.503 149.682 67.251L149.976 66.775C150.013 66.7143 150.058 66.6677 150.109 66.635C150.16 66.6023 150.226 66.586 150.305 66.586C150.389 66.586 150.478 66.6187 150.571 66.684C150.664 66.7493 150.776 66.8217 150.907 66.901C151.042 66.9803 151.206 67.0527 151.397 67.118C151.588 67.1833 151.826 67.216 152.111 67.216C152.354 67.216 152.566 67.1857 152.748 67.125C152.93 67.0597 153.082 66.9733 153.203 66.866C153.324 66.7587 153.413 66.635 153.469 66.495C153.53 66.355 153.56 66.2057 153.56 66.047C153.56 65.851 153.506 65.69 153.399 65.564C153.296 65.4333 153.159 65.3237 152.986 65.235C152.813 65.1417 152.615 65.0623 152.391 64.997C152.172 64.927 151.945 64.8547 151.712 64.78C151.483 64.7053 151.257 64.6213 151.033 64.528C150.814 64.43 150.618 64.3087 150.445 64.164C150.272 64.0193 150.132 63.842 150.025 63.632C149.922 63.4173 149.871 63.1583 149.871 62.855C149.871 62.5843 149.927 62.3253 150.039 62.078C150.151 61.826 150.314 61.6067 150.529 61.42C150.744 61.2287 151.007 61.077 151.32 60.965C151.633 60.853 151.99 60.797 152.391 60.797C152.858 60.797 153.275 60.8717 153.644 61.021C154.017 61.1657 154.339 61.3663 154.61 61.623L154.33 62.078ZM162.828 60.797C163.346 60.797 163.812 60.8833 164.228 61.056C164.643 61.2287 164.998 61.4737 165.292 61.791C165.586 62.1083 165.81 62.4933 165.964 62.946C166.122 63.394 166.202 63.8957 166.202 64.451C166.202 65.011 166.122 65.515 165.964 65.963C165.81 66.411 165.586 66.7937 165.292 67.111C164.998 67.4283 164.643 67.6733 164.228 67.846C163.812 68.014 163.346 68.098 162.828 68.098C162.305 68.098 161.834 68.014 161.414 67.846C160.998 67.6733 160.644 67.4283 160.35 67.111C160.056 66.7937 159.829 66.411 159.671 65.963C159.517 65.515 159.44 65.011 159.44 64.451C159.44 63.8957 159.517 63.394 159.671 62.946C159.829 62.4933 160.056 62.1083 160.35 61.791C160.644 61.4737 160.998 61.2287 161.414 61.056C161.834 60.8833 162.305 60.797 162.828 60.797ZM162.828 67.125C163.528 67.125 164.05 66.8917 164.396 66.425C164.741 65.9537 164.914 65.298 164.914 64.458C164.914 63.6133 164.741 62.9553 164.396 62.484C164.05 62.0127 163.528 61.777 162.828 61.777C162.473 61.777 162.163 61.8377 161.897 61.959C161.635 62.0803 161.416 62.2553 161.239 62.484C161.066 62.7127 160.935 62.995 160.847 63.331C160.763 63.6623 160.721 64.038 160.721 64.458C160.721 65.298 160.893 65.9537 161.239 66.425C161.589 66.8917 162.118 67.125 162.828 67.125ZM168.094 68V61.973L167.31 61.882C167.212 61.8587 167.13 61.8237 167.065 61.777C167.004 61.7257 166.974 61.6533 166.974 61.56V61.049H168.094V60.363C168.094 59.957 168.15 59.5977 168.262 59.285C168.378 58.9677 168.542 58.7017 168.752 58.487C168.966 58.2677 169.223 58.102 169.522 57.99C169.82 57.878 170.156 57.822 170.53 57.822C170.847 57.822 171.139 57.8687 171.405 57.962L171.377 58.585C171.367 58.697 171.304 58.7577 171.188 58.767C171.076 58.7763 170.924 58.781 170.733 58.781C170.518 58.781 170.322 58.809 170.145 58.865C169.972 58.921 169.823 59.012 169.697 59.138C169.571 59.264 169.473 59.4297 169.403 59.635C169.337 59.8403 169.305 60.0947 169.305 60.398V61.049H171.349V61.952H169.347V68H168.094ZM181.693 60.909V68H180.951C180.774 68 180.662 67.9137 180.615 67.741L180.517 66.978C180.209 67.3187 179.864 67.594 179.481 67.804C179.098 68.0093 178.66 68.112 178.165 68.112C177.778 68.112 177.435 68.049 177.136 67.923C176.842 67.7923 176.595 67.6103 176.394 67.377C176.193 67.1437 176.042 66.8613 175.939 66.53C175.841 66.1987 175.792 65.8323 175.792 65.431V60.909H177.038V65.431C177.038 65.9677 177.159 66.383 177.402 66.677C177.649 66.971 178.025 67.118 178.529 67.118C178.898 67.118 179.241 67.0317 179.558 66.859C179.88 66.6817 180.176 66.439 180.447 66.131V60.909H181.693ZM187.799 62.078C187.743 62.1807 187.656 62.232 187.54 62.232C187.47 62.232 187.39 62.2063 187.302 62.155C187.213 62.1037 187.103 62.0477 186.973 61.987C186.847 61.9217 186.695 61.8633 186.518 61.812C186.34 61.756 186.13 61.728 185.888 61.728C185.678 61.728 185.489 61.756 185.321 61.812C185.153 61.8633 185.008 61.9357 184.887 62.029C184.77 62.1223 184.679 62.232 184.614 62.358C184.553 62.4793 184.523 62.6123 184.523 62.757C184.523 62.939 184.574 63.0907 184.677 63.212C184.784 63.3333 184.924 63.4383 185.097 63.527C185.269 63.6157 185.465 63.695 185.685 63.765C185.904 63.8303 186.128 63.9027 186.357 63.982C186.59 64.0567 186.816 64.1407 187.036 64.234C187.255 64.3273 187.451 64.444 187.624 64.584C187.796 64.724 187.934 64.8967 188.037 65.102C188.144 65.3027 188.198 65.5453 188.198 65.83C188.198 66.1567 188.139 66.46 188.023 66.74C187.906 67.0153 187.733 67.2557 187.505 67.461C187.276 67.6617 186.996 67.8203 186.665 67.937C186.333 68.0537 185.951 68.112 185.517 68.112C185.022 68.112 184.574 68.0327 184.173 67.874C183.771 67.7107 183.431 67.503 183.151 67.251L183.445 66.775C183.482 66.7143 183.526 66.6677 183.578 66.635C183.629 66.6023 183.694 66.586 183.774 66.586C183.858 66.586 183.946 66.6187 184.04 66.684C184.133 66.7493 184.245 66.8217 184.376 66.901C184.511 66.9803 184.674 67.0527 184.866 67.118C185.057 67.1833 185.295 67.216 185.58 67.216C185.822 67.216 186.035 67.1857 186.217 67.125C186.399 67.0597 186.55 66.9733 186.672 66.866C186.793 66.7587 186.882 66.635 186.938 66.495C186.998 66.355 187.029 66.2057 187.029 66.047C187.029 65.851 186.975 65.69 186.868 65.564C186.765 65.4333 186.627 65.3237 186.455 65.235C186.282 65.1417 186.084 65.0623 185.86 64.997C185.64 64.927 185.414 64.8547 185.181 64.78C184.952 64.7053 184.726 64.6213 184.502 64.528C184.282 64.43 184.086 64.3087 183.914 64.164C183.741 64.0193 183.601 63.842 183.494 63.632C183.391 63.4173 183.34 63.1583 183.34 62.855C183.34 62.5843 183.396 62.3253 183.508 62.078C183.62 61.826 183.783 61.6067 183.998 61.42C184.212 61.2287 184.476 61.077 184.789 60.965C185.101 60.853 185.458 60.797 185.86 60.797C186.326 60.797 186.744 60.8717 187.113 61.021C187.486 61.1657 187.808 61.3663 188.079 61.623L187.799 62.078ZM194.471 63.681C194.471 63.3917 194.429 63.128 194.345 62.89C194.266 62.6473 194.147 62.4397 193.988 62.267C193.834 62.0897 193.645 61.9543 193.421 61.861C193.197 61.763 192.943 61.714 192.658 61.714C192.061 61.714 191.587 61.889 191.237 62.239C190.892 62.5843 190.677 63.065 190.593 63.681H194.471ZM195.479 67.006C195.325 67.1927 195.141 67.356 194.926 67.496C194.712 67.6313 194.481 67.7433 194.233 67.832C193.991 67.9207 193.739 67.986 193.477 68.028C193.216 68.0747 192.957 68.098 192.7 68.098C192.21 68.098 191.758 68.0163 191.342 67.853C190.932 67.685 190.575 67.4423 190.271 67.125C189.973 66.803 189.739 66.4063 189.571 65.935C189.403 65.4637 189.319 64.9223 189.319 64.311C189.319 63.8163 189.394 63.3543 189.543 62.925C189.697 62.4957 189.917 62.1247 190.201 61.812C190.486 61.4947 190.834 61.2473 191.244 61.07C191.655 60.888 192.117 60.797 192.63 60.797C193.055 60.797 193.447 60.8693 193.806 61.014C194.17 61.154 194.483 61.3593 194.744 61.63C195.01 61.896 195.218 62.2273 195.367 62.624C195.517 63.016 195.591 63.464 195.591 63.968C195.591 64.164 195.57 64.2947 195.528 64.36C195.486 64.4253 195.407 64.458 195.29 64.458H190.551C190.565 64.906 190.626 65.2957 190.733 65.627C190.845 65.9583 190.999 66.236 191.195 66.46C191.391 66.6793 191.625 66.845 191.895 66.957C192.166 67.0643 192.469 67.118 192.805 67.118C193.118 67.118 193.386 67.083 193.61 67.013C193.839 66.9383 194.035 66.859 194.198 66.775C194.362 66.691 194.497 66.614 194.604 66.544C194.716 66.4693 194.812 66.432 194.891 66.432C194.994 66.432 195.073 66.4717 195.129 66.551L195.479 67.006ZM198.305 62.33C198.529 61.8447 198.804 61.4667 199.131 61.196C199.457 60.9207 199.856 60.783 200.328 60.783C200.477 60.783 200.619 60.7993 200.755 60.832C200.895 60.8647 201.018 60.916 201.126 60.986L201.035 61.917C201.007 62.0337 200.937 62.092 200.825 62.092C200.759 62.092 200.664 62.078 200.538 62.05C200.412 62.022 200.269 62.008 200.111 62.008C199.887 62.008 199.686 62.0407 199.509 62.106C199.336 62.1713 199.18 62.2693 199.04 62.4C198.904 62.526 198.781 62.6847 198.669 62.876C198.561 63.0627 198.463 63.2773 198.375 63.52V68H197.122V60.909H197.836C197.971 60.909 198.064 60.9347 198.116 60.986C198.167 61.0373 198.202 61.126 198.221 61.252L198.305 62.33ZM206.31 62.078C206.254 62.1807 206.168 62.232 206.051 62.232C205.981 62.232 205.902 62.2063 205.813 62.155C205.725 62.1037 205.615 62.0477 205.484 61.987C205.358 61.9217 205.207 61.8633 205.029 61.812C204.852 61.756 204.642 61.728 204.399 61.728C204.189 61.728 204 61.756 203.832 61.812C203.664 61.8633 203.52 61.9357 203.398 62.029C203.282 62.1223 203.191 62.232 203.125 62.358C203.065 62.4793 203.034 62.6123 203.034 62.757C203.034 62.939 203.086 63.0907 203.188 63.212C203.296 63.3333 203.436 63.4383 203.608 63.527C203.781 63.6157 203.977 63.695 204.196 63.765C204.416 63.8303 204.64 63.9027 204.868 63.982C205.102 64.0567 205.328 64.1407 205.547 64.234C205.767 64.3273 205.963 64.444 206.135 64.584C206.308 64.724 206.446 64.8967 206.548 65.102C206.656 65.3027 206.709 65.5453 206.709 65.83C206.709 66.1567 206.651 66.46 206.534 66.74C206.418 67.0153 206.245 67.2557 206.016 67.461C205.788 67.6617 205.508 67.8203 205.176 67.937C204.845 68.0537 204.462 68.112 204.028 68.112C203.534 68.112 203.086 68.0327 202.684 67.874C202.283 67.7107 201.942 67.503 201.662 67.251L201.956 66.775C201.994 66.7143 202.038 66.6677 202.089 66.635C202.141 66.6023 202.206 66.586 202.285 66.586C202.369 66.586 202.458 66.6187 202.551 66.684C202.645 66.7493 202.757 66.8217 202.887 66.901C203.023 66.9803 203.186 67.0527 203.377 67.118C203.569 67.1833 203.807 67.216 204.091 67.216C204.334 67.216 204.546 67.1857 204.728 67.125C204.91 67.0597 205.062 66.9733 205.183 66.866C205.305 66.7587 205.393 66.635 205.449 66.495C205.51 66.355 205.54 66.2057 205.54 66.047C205.54 65.851 205.487 65.69 205.379 65.564C205.277 65.4333 205.139 65.3237 204.966 65.235C204.794 65.1417 204.595 65.0623 204.371 64.997C204.152 64.927 203.926 64.8547 203.692 64.78C203.464 64.7053 203.237 64.6213 203.013 64.528C202.794 64.43 202.598 64.3087 202.425 64.164C202.253 64.0193 202.113 63.842 202.005 63.632C201.903 63.4173 201.851 63.1583 201.851 62.855C201.851 62.5843 201.907 62.3253 202.019 62.078C202.131 61.826 202.295 61.6067 202.509 61.42C202.724 61.2287 202.988 61.077 203.3 60.965C203.613 60.853 203.97 60.797 204.371 60.797C204.838 60.797 205.256 60.8717 205.624 61.021C205.998 61.1657 206.32 61.3663 206.59 61.623L206.31 62.078ZM208.027 67.23C208.027 67.1087 208.048 66.9943 208.09 66.887C208.137 66.7797 208.197 66.6863 208.272 66.607C208.351 66.5277 208.445 66.4647 208.552 66.418C208.659 66.3713 208.774 66.348 208.895 66.348C209.016 66.348 209.131 66.3713 209.238 66.418C209.345 66.4647 209.439 66.5277 209.518 66.607C209.597 66.6863 209.66 66.7797 209.707 66.887C209.754 66.9943 209.777 67.1087 209.777 67.23C209.777 67.356 209.754 67.4727 209.707 67.58C209.66 67.6827 209.597 67.7737 209.518 67.853C209.439 67.9323 209.345 67.993 209.238 68.035C209.131 68.0817 209.016 68.105 208.895 68.105C208.774 68.105 208.659 68.0817 208.552 68.035C208.445 67.993 208.351 67.9323 208.272 67.853C208.197 67.7737 208.137 67.6827 208.09 67.58C208.048 67.4727 208.027 67.356 208.027 67.23Z" fill="#333333"/>
<rect x="27" y="79" width="76" height="26" rx="13" fill="#3F2C2C"/>
<rect x="27" y="79" width="76" height="26" rx="13" stroke="white" stroke-opacity="0.44"/>
<path d="M45.77 94.295C45.8433 94.295 45.9083 94.3233 45.965 94.38L46.495 94.955C46.2017 95.3183 45.84 95.5967 45.41 95.79C44.9833 95.9833 44.47 96.08 43.87 96.08C43.3333 96.08 42.85 95.9883 42.42 95.805C41.9933 95.6217 41.6283 95.3667 41.325 95.04C41.0217 94.7133 40.7883 94.3233 40.625 93.87C40.465 93.4167 40.385 92.9217 40.385 92.385C40.385 91.8417 40.4717 91.345 40.645 90.895C40.8183 90.4417 41.0617 90.0517 41.375 89.725C41.6917 89.3983 42.0683 89.145 42.505 88.965C42.9417 88.7817 43.425 88.69 43.955 88.69C44.4817 88.69 44.9483 88.7767 45.355 88.95C45.765 89.1233 46.1133 89.35 46.4 89.63L45.95 90.255C45.9233 90.295 45.8883 90.33 45.845 90.36C45.805 90.39 45.7483 90.405 45.675 90.405C45.625 90.405 45.5733 90.3917 45.52 90.365C45.4667 90.335 45.4083 90.3 45.345 90.26C45.2817 90.2167 45.2083 90.17 45.125 90.12C45.0417 90.07 44.945 90.025 44.835 89.985C44.725 89.9417 44.5967 89.9067 44.45 89.88C44.3067 89.85 44.14 89.835 43.95 89.835C43.6267 89.835 43.33 89.8933 43.06 90.01C42.7933 90.1233 42.5633 90.29 42.37 90.51C42.1767 90.7267 42.0267 90.9933 41.92 91.31C41.8133 91.6233 41.76 91.9817 41.76 92.385C41.76 92.7917 41.8167 93.1533 41.93 93.47C42.0467 93.7867 42.2033 94.0533 42.4 94.27C42.5967 94.4867 42.8283 94.6533 43.095 94.77C43.3617 94.8833 43.6483 94.94 43.955 94.94C44.1383 94.94 44.3033 94.93 44.45 94.91C44.6 94.89 44.7367 94.8583 44.86 94.815C44.9867 94.7717 45.105 94.7167 45.215 94.65C45.3283 94.58 45.44 94.495 45.55 94.395C45.5833 94.365 45.6183 94.3417 45.655 94.325C45.6917 94.305 45.73 94.295 45.77 94.295ZM49.3839 90.79C49.7639 90.79 50.1089 90.8517 50.4189 90.975C50.7322 91.0983 50.9989 91.2733 51.2189 91.5C51.4422 91.7267 51.6139 92.0033 51.7339 92.33C51.8539 92.6567 51.9139 93.0217 51.9139 93.425C51.9139 93.8317 51.8539 94.1983 51.7339 94.525C51.6139 94.8517 51.4422 95.13 51.2189 95.36C50.9989 95.59 50.7322 95.7667 50.4189 95.89C50.1089 96.0133 49.7639 96.075 49.3839 96.075C49.0006 96.075 48.6522 96.0133 48.3389 95.89C48.0256 95.7667 47.7572 95.59 47.5339 95.36C47.3139 95.13 47.1422 94.8517 47.0189 94.525C46.8989 94.1983 46.8389 93.8317 46.8389 93.425C46.8389 93.0217 46.8989 92.6567 47.0189 92.33C47.1422 92.0033 47.3139 91.7267 47.5339 91.5C47.7572 91.2733 48.0256 91.0983 48.3389 90.975C48.6522 90.8517 49.0006 90.79 49.3839 90.79ZM49.3839 95.125C49.8106 95.125 50.1256 94.9817 50.3289 94.695C50.5356 94.4083 50.6389 93.9883 50.6389 93.435C50.6389 92.8817 50.5356 92.46 50.3289 92.17C50.1256 91.88 49.8106 91.735 49.3839 91.735C48.9506 91.735 48.6289 91.8817 48.4189 92.175C48.2122 92.465 48.1089 92.885 48.1089 93.435C48.1089 93.985 48.2122 94.405 48.4189 94.695C48.6289 94.9817 48.9506 95.125 49.3839 95.125ZM54.0111 91.5C54.1144 91.3967 54.2228 91.3017 54.3361 91.215C54.4528 91.125 54.5744 91.05 54.7011 90.99C54.8311 90.9267 54.9694 90.8783 55.1161 90.845C55.2628 90.8083 55.4228 90.79 55.5961 90.79C55.8761 90.79 56.1244 90.8383 56.3411 90.935C56.5578 91.0283 56.7378 91.1617 56.8811 91.335C57.0278 91.505 57.1378 91.71 57.2111 91.95C57.2878 92.1867 57.3261 92.4483 57.3261 92.735V96H56.0911V92.735C56.0911 92.4217 56.0194 92.18 55.8761 92.01C55.7328 91.8367 55.5144 91.75 55.2211 91.75C55.0078 91.75 54.8078 91.7983 54.6211 91.895C54.4344 91.9917 54.2578 92.1233 54.0911 92.29V96H52.8561V90.87H53.6111C53.7711 90.87 53.8761 90.945 53.9261 91.095L54.0111 91.5ZM60.1423 96.08C59.6956 96.08 59.3523 95.955 59.1123 95.705C58.8756 95.4517 58.7573 95.1033 58.7573 94.66V91.795H58.2323C58.1656 91.795 58.1089 91.7733 58.0623 91.73C58.0156 91.6867 57.9923 91.6217 57.9923 91.535V91.045L58.8173 90.91L59.0773 89.51C59.0939 89.4433 59.1256 89.3917 59.1723 89.355C59.2189 89.3183 59.2789 89.3 59.3523 89.3H59.9923V90.915H61.3623V91.795H59.9923V94.575C59.9923 94.735 60.0306 94.86 60.1073 94.95C60.1873 95.04 60.2956 95.085 60.4323 95.085C60.5089 95.085 60.5723 95.0767 60.6223 95.06C60.6756 95.04 60.7206 95.02 60.7573 95C60.7973 94.98 60.8323 94.9617 60.8623 94.945C60.8923 94.925 60.9223 94.915 60.9523 94.915C60.9889 94.915 61.0189 94.925 61.0423 94.945C61.0656 94.9617 61.0906 94.9883 61.1173 95.025L61.4873 95.625C61.3073 95.775 61.1006 95.8883 60.8673 95.965C60.6339 96.0417 60.3923 96.08 60.1423 96.08ZM64.863 93.81C64.5063 93.8267 64.2063 93.8583 63.963 93.905C63.7196 93.9483 63.5246 94.005 63.378 94.075C63.2313 94.145 63.1263 94.2267 63.063 94.32C62.9996 94.4133 62.968 94.515 62.968 94.625C62.968 94.8417 63.0313 94.9967 63.158 95.09C63.288 95.1833 63.4563 95.23 63.663 95.23C63.9163 95.23 64.1346 95.185 64.318 95.095C64.5046 95.0017 64.6863 94.8617 64.863 94.675V93.81ZM62.033 91.585C62.623 91.045 63.333 90.775 64.163 90.775C64.463 90.775 64.7313 90.825 64.968 90.925C65.2046 91.0217 65.4046 91.1583 65.568 91.335C65.7313 91.5083 65.8546 91.7167 65.938 91.96C66.0246 92.2033 66.068 92.47 66.068 92.76V96H65.508C65.3913 96 65.3013 95.9833 65.238 95.95C65.1746 95.9133 65.1246 95.8417 65.088 95.735L64.978 95.365C64.848 95.4817 64.7213 95.585 64.598 95.675C64.4746 95.7617 64.3463 95.835 64.213 95.895C64.0796 95.955 63.9363 96 63.783 96.03C63.633 96.0633 63.4663 96.08 63.283 96.08C63.0663 96.08 62.8663 96.0517 62.683 95.995C62.4996 95.935 62.3413 95.8467 62.208 95.73C62.0746 95.6133 61.9713 95.4683 61.898 95.295C61.8246 95.1217 61.788 94.92 61.788 94.69C61.788 94.56 61.8096 94.4317 61.853 94.305C61.8963 94.175 61.9663 94.0517 62.063 93.935C62.163 93.8183 62.2913 93.7083 62.448 93.605C62.6046 93.5017 62.7963 93.4117 63.023 93.335C63.253 93.2583 63.5196 93.1967 63.823 93.15C64.1263 93.1 64.473 93.07 64.863 93.06V92.76C64.863 92.4167 64.7896 92.1633 64.643 92C64.4963 91.8333 64.2846 91.75 64.008 91.75C63.808 91.75 63.6413 91.7733 63.508 91.82C63.378 91.8667 63.263 91.92 63.163 91.98C63.063 92.0367 62.9713 92.0883 62.888 92.135C62.808 92.1817 62.718 92.205 62.618 92.205C62.5313 92.205 62.458 92.1833 62.398 92.14C62.338 92.0933 62.2896 92.04 62.253 91.98L62.033 91.585ZM70.9061 91.955C70.8694 92.0017 70.8328 92.0383 70.7961 92.065C70.7628 92.0917 70.7128 92.105 70.6461 92.105C70.5828 92.105 70.5211 92.0867 70.4611 92.05C70.4011 92.01 70.3294 91.9667 70.2461 91.92C70.1628 91.87 70.0628 91.8267 69.9461 91.79C69.8328 91.75 69.6911 91.73 69.5211 91.73C69.3044 91.73 69.1144 91.77 68.9511 91.85C68.7878 91.9267 68.6511 92.0383 68.5411 92.185C68.4344 92.3317 68.3544 92.51 68.3011 92.72C68.2478 92.9267 68.2211 93.1617 68.2211 93.425C68.2211 93.6983 68.2494 93.9417 68.3061 94.155C68.3661 94.3683 68.4511 94.5483 68.5611 94.695C68.6711 94.8383 68.8044 94.9483 68.9611 95.025C69.1178 95.0983 69.2944 95.135 69.4911 95.135C69.6878 95.135 69.8461 95.1117 69.9661 95.065C70.0894 95.015 70.1928 94.9617 70.2761 94.905C70.3594 94.845 70.4311 94.7917 70.4911 94.745C70.5544 94.695 70.6244 94.67 70.7011 94.67C70.8011 94.67 70.8761 94.7083 70.9261 94.785L71.2811 95.235C71.1444 95.395 70.9961 95.53 70.8361 95.64C70.6761 95.7467 70.5094 95.8333 70.3361 95.9C70.1661 95.9633 69.9894 96.0083 69.8061 96.035C69.6261 96.0617 69.4461 96.075 69.2661 96.075C68.9494 96.075 68.6511 96.0167 68.3711 95.9C68.0911 95.78 67.8461 95.6067 67.6361 95.38C67.4261 95.1533 67.2594 94.8767 67.1361 94.55C67.0161 94.22 66.9561 93.845 66.9561 93.425C66.9561 93.0483 67.0094 92.7 67.1161 92.38C67.2261 92.0567 67.3861 91.7783 67.5961 91.545C67.8061 91.3083 68.0661 91.1233 68.3761 90.99C68.6861 90.8567 69.0428 90.79 69.4461 90.79C69.8294 90.79 70.1644 90.8517 70.4511 90.975C70.7411 91.0983 71.0011 91.275 71.2311 91.505L70.9061 91.955ZM73.7653 96.08C73.3186 96.08 72.9753 95.955 72.7353 95.705C72.4986 95.4517 72.3803 95.1033 72.3803 94.66V91.795H71.8553C71.7886 91.795 71.732 91.7733 71.6853 91.73C71.6386 91.6867 71.6153 91.6217 71.6153 91.535V91.045L72.4403 90.91L72.7003 89.51C72.717 89.4433 72.7486 89.3917 72.7953 89.355C72.842 89.3183 72.902 89.3 72.9753 89.3H73.6153V90.915H74.9853V91.795H73.6153V94.575C73.6153 94.735 73.6536 94.86 73.7303 94.95C73.8103 95.04 73.9186 95.085 74.0553 95.085C74.132 95.085 74.1953 95.0767 74.2453 95.06C74.2986 95.04 74.3436 95.02 74.3803 95C74.4203 94.98 74.4553 94.9617 74.4853 94.945C74.5153 94.925 74.5453 94.915 74.5753 94.915C74.612 94.915 74.642 94.925 74.6653 94.945C74.6886 94.9617 74.7136 94.9883 74.7403 95.025L75.1103 95.625C74.9303 95.775 74.7236 95.8883 74.4903 95.965C74.257 96.0417 74.0153 96.08 73.7653 96.08ZM81.3127 94.915C81.5727 94.915 81.8043 94.8717 82.0077 94.785C82.2143 94.6983 82.3877 94.5767 82.5277 94.42C82.6677 94.2633 82.7743 94.0733 82.8477 93.85C82.9243 93.6267 82.9627 93.3767 82.9627 93.1V88.77H84.3077V93.1C84.3077 93.53 84.2377 93.9283 84.0977 94.295C83.961 94.6583 83.7627 94.9733 83.5027 95.24C83.246 95.5033 82.9327 95.71 82.5627 95.86C82.1927 96.0067 81.776 96.08 81.3127 96.08C80.846 96.08 80.4277 96.0067 80.0577 95.86C79.6877 95.71 79.3727 95.5033 79.1127 95.24C78.856 94.9733 78.6577 94.6583 78.5177 94.295C78.381 93.9283 78.3127 93.53 78.3127 93.1V88.77H79.6577V93.095C79.6577 93.3717 79.6943 93.6217 79.7677 93.845C79.8443 94.0683 79.9527 94.26 80.0927 94.42C80.236 94.5767 80.4093 94.6983 80.6127 94.785C80.8193 94.8717 81.0527 94.915 81.3127 94.915ZM88.5447 91.87C88.5114 91.9233 88.4764 91.9617 88.4397 91.985C88.403 92.005 88.3564 92.015 88.2997 92.015C88.2397 92.015 88.1747 91.9983 88.1047 91.965C88.038 91.9317 87.9597 91.895 87.8697 91.855C87.7797 91.8117 87.6764 91.7733 87.5597 91.74C87.4464 91.7067 87.3114 91.69 87.1547 91.69C86.9114 91.69 86.7197 91.7417 86.5797 91.845C86.443 91.9483 86.3747 92.0833 86.3747 92.25C86.3747 92.36 86.4097 92.4533 86.4797 92.53C86.553 92.6033 86.648 92.6683 86.7647 92.725C86.8847 92.7817 87.0197 92.8333 87.1697 92.88C87.3197 92.9233 87.4714 92.9717 87.6247 93.025C87.7814 93.0783 87.9347 93.14 88.0847 93.21C88.2347 93.2767 88.368 93.3633 88.4847 93.47C88.6047 93.5733 88.6997 93.6983 88.7697 93.845C88.843 93.9917 88.8797 94.1683 88.8797 94.375C88.8797 94.6217 88.8347 94.85 88.7447 95.06C88.658 95.2667 88.528 95.4467 88.3547 95.6C88.1814 95.75 87.9664 95.8683 87.7097 95.955C87.4564 96.0383 87.163 96.08 86.8297 96.08C86.653 96.08 86.4797 96.0633 86.3097 96.03C86.143 96 85.9814 95.9567 85.8247 95.9C85.6714 95.8433 85.528 95.7767 85.3947 95.7C85.2647 95.6233 85.1497 95.54 85.0497 95.45L85.3347 94.98C85.3714 94.9233 85.4147 94.88 85.4647 94.85C85.5147 94.82 85.578 94.805 85.6547 94.805C85.7314 94.805 85.803 94.8267 85.8697 94.87C85.9397 94.9133 86.0197 94.96 86.1097 95.01C86.1997 95.06 86.3047 95.1067 86.4247 95.15C86.548 95.1933 86.703 95.215 86.8897 95.215C87.0364 95.215 87.1614 95.1983 87.2647 95.165C87.3714 95.1283 87.458 95.0817 87.5247 95.025C87.5947 94.9683 87.6447 94.9033 87.6747 94.83C87.708 94.7533 87.7247 94.675 87.7247 94.595C87.7247 94.475 87.688 94.3767 87.6147 94.3C87.5447 94.2233 87.4497 94.1567 87.3297 94.1C87.213 94.0433 87.078 93.9933 86.9247 93.95C86.7747 93.9033 86.6197 93.8533 86.4597 93.8C86.303 93.7467 86.148 93.685 85.9947 93.615C85.8447 93.5417 85.7097 93.45 85.5897 93.34C85.473 93.23 85.378 93.095 85.3047 92.935C85.2347 92.775 85.1997 92.5817 85.1997 92.355C85.1997 92.145 85.2414 91.945 85.3247 91.755C85.408 91.565 85.5297 91.4 85.6897 91.26C85.853 91.1167 86.0547 91.0033 86.2947 90.92C86.538 90.8333 86.818 90.79 87.1347 90.79C87.488 90.79 87.8097 90.8483 88.0997 90.965C88.3897 91.0817 88.6314 91.235 88.8247 91.425L88.5447 91.87Z" fill="white"/>
<path d="M246.697 30.6328L247.41 31.9367L248.713 32.6497L247.41 33.3627L246.697 34.6666L245.984 33.3627L244.68 32.6497L245.984 31.9367L246.697 30.6328Z" fill="#F5F5F5"/>
<path d="M276.437 65.9531L276.971 66.9309L277.949 67.4657L276.971 68.0006L276.437 68.9784L275.902 68.0006L274.924 67.4657L275.902 66.9309L276.437 65.9531Z" fill="#EBEBEB"/>
<path d="M277.948 61.125L278.189 61.5663L278.631 61.8075L278.189 62.0489L277.948 62.49L277.707 62.0489L277.266 61.8075L277.707 61.5663L277.948 61.125Z" fill="#E0E0E0"/>
<path d="M241.605 31.1172L241.846 31.5584L242.287 31.7997L241.846 32.041L241.605 32.4821L241.363 32.041L240.922 31.7997L241.363 31.5584L241.605 31.1172Z" fill="#E0E0E0"/>
<path d="M229.509 72.1052C230.053 71.8687 230.435 71.2996 230.429 70.6347C230.422 69.7639 229.754 69.0635 228.937 69.0704C228.121 69.0771 227.465 69.7886 227.473 70.6594C227.479 71.3303 227.878 71.896 228.434 72.1192C226.163 72.4914 226.298 74.9626 226.298 74.9626L231.678 74.9178C231.678 74.9178 231.769 72.4165 229.509 72.1052Z" fill="white"/>
<path d="M281.113 88.3947C281.037 88.0077 280.655 87.7049 280.261 87.7192C279.87 87.7334 279.514 88.0571 279.461 88.444C279.405 88.0576 279.046 87.737 278.655 87.7264C278.261 87.7157 277.882 88.0217 277.809 88.4093C277.757 88.6916 277.853 88.9855 278.012 89.2248C278.171 89.464 278.388 89.658 278.603 89.8489C278.904 90.1164 279.181 90.368 279.482 90.6355C279.78 90.3653 280.034 90.1114 280.332 89.8412C280.545 89.6483 280.76 89.4526 280.917 89.2119C281.074 88.9713 281.168 88.6765 281.113 88.3947Z" fill="white"/>
<path d="M284.617 56.3585L285.194 56.2442L286.104 54.2414L285.876 53.0906C285.876 53.0906 286.756 52.8592 286.95 54.3868C287.144 55.9144 287.181 55.5082 287.181 55.5082C287.181 55.5082 289.075 55.1402 289.265 55.2735C289.403 55.3702 289.827 57.2393 290.049 58.2547C290.161 58.7659 289.941 59.3055 289.488 59.5213C289.423 59.5522 289.357 59.5757 289.289 59.5891C288.818 59.6827 286.33 59.7771 286.33 59.7771L285.334 59.9746L284.617 56.3585Z" fill="white"/>
<path d="M282.904 56.3663L284.041 60.239L285.028 60.0432L284.262 56.1797L282.904 56.3663Z" fill="white"/>
<path d="M290.511 98.3364C290.511 98.3583 275.437 98.3759 256.847 98.3759C238.25 98.3759 223.18 98.3581 223.18 98.3364C223.18 98.3145 238.25 98.2969 256.847 98.2969C275.437 98.2969 290.511 98.3145 290.511 98.3364Z" fill="#263238"/>
<path d="M278.802 54.8403C275.735 56.3321 272.039 55.055 270.547 51.9877C269.055 48.9205 270.333 45.2247 273.4 43.7328C276.467 42.2411 280.163 43.5182 281.655 46.5854C283.147 49.6527 281.869 53.3485 278.802 54.8403Z" fill="#2F79F9"/>
<path d="M274.592 48.7289L273.551 49.0078L274.452 52.3709L275.493 52.092L274.592 48.7289Z" fill="white"/>
<path d="M273.948 48.4278C274.288 48.3367 274.489 47.9848 274.397 47.6421C274.306 47.2994 273.956 47.0955 273.616 47.1866C273.276 47.2777 273.074 47.6295 273.166 47.972C273.258 48.3147 273.608 48.519 273.948 48.4278Z" fill="white"/>
<path d="M276.683 49.878C276.556 49.4053 276.698 49.0652 277.115 48.9536C277.498 48.851 277.754 49.072 277.884 49.5562C278.014 50.0406 278.357 51.3216 278.357 51.3216L279.393 51.044C279.393 51.044 279.064 49.8155 278.822 48.9146C278.581 48.0139 277.954 47.7151 277.241 47.9062C276.527 48.0973 276.376 48.7334 276.376 48.7334L276.255 48.2805L275.256 48.5481L276.157 51.9112L277.156 51.6436C277.156 51.6436 276.822 50.3962 276.683 49.878Z" fill="white"/>
<path d="M284.971 72.2551C282.773 71.4154 281.672 68.9533 282.512 66.7559C283.352 64.5584 285.814 63.4576 288.011 64.2974C290.209 65.1371 291.31 67.5992 290.47 69.7966C289.63 71.9941 287.168 73.0947 284.971 72.2551Z" fill="#2F79F9"/>
<path fill-rule="evenodd" clip-rule="evenodd" d="M288.715 69.0045C289.125 67.8439 288.531 66.559 287.365 66.1137C286.213 65.6736 284.93 66.2167 284.447 67.329C284.434 67.3598 284.421 67.3905 284.409 67.4215C284.256 67.8238 284.225 68.2418 284.297 68.6373L283.475 69.6303L284.806 69.7065C285.048 69.9922 285.364 70.2236 285.74 70.3669C286.923 70.8193 288.246 70.2336 288.695 69.059C288.702 69.041 288.709 69.0229 288.715 69.0045ZM285.869 70.028C285.503 69.8881 285.204 69.6498 284.991 69.3534L284.215 69.3096L284.693 68.7314C284.59 68.354 284.601 67.9433 284.75 67.552C284.773 67.4938 284.798 67.4368 284.826 67.3819C285.26 66.5108 286.301 66.0959 287.235 66.4528C288.181 66.8142 288.681 67.8386 288.401 68.787C288.388 68.8348 288.372 68.8816 288.354 68.9287C287.977 69.9149 286.862 70.4075 285.869 70.028Z" fill="white"/>
<path fill-rule="evenodd" clip-rule="evenodd" d="M287.37 69.0474C287.327 69.001 287.118 68.7761 287.076 68.7406C287.035 68.7042 287.003 68.6827 286.947 68.7215C286.892 68.7602 286.746 68.8388 286.703 68.8615C286.659 68.8847 286.627 68.8773 286.584 68.8308C286.541 68.7847 286.393 68.6659 286.26 68.4105C286.157 68.2137 286.116 68.0025 286.106 67.9388C286.096 67.8751 286.134 67.8575 286.17 67.8414C286.203 67.8265 286.245 67.8002 286.284 67.7805C286.294 67.7741 286.303 67.7683 286.312 67.7627C286.332 67.7482 286.348 67.7336 286.369 67.7131C286.401 67.685 286.403 67.6514 286.4 67.6204C286.397 67.5894 286.39 67.2922 286.386 67.1711C286.382 67.0502 286.331 67.0515 286.3 67.0396C286.27 67.0281 286.237 67.0097 286.202 66.9963C286.167 66.9829 286.104 66.9741 286.036 67.0078C285.968 67.0416 285.785 67.1162 285.686 67.3731C285.664 67.4333 285.652 67.4977 285.646 67.561C285.629 67.7648 285.685 67.96 285.695 67.9939C285.708 68.0379 285.838 68.7104 286.291 69.124C286.747 69.5359 286.773 69.4667 286.873 69.4946C286.972 69.5233 287.232 69.488 287.322 69.3821C287.412 69.2777 287.452 69.1732 287.447 69.1462C287.443 69.1199 287.412 69.0934 287.37 69.0474Z" fill="white"/>
<path d="M229.584 52.5741C227.79 52.5741 226.336 51.12 226.336 49.3261C226.336 47.5323 227.79 46.0781 229.584 46.0781C231.378 46.0781 232.832 47.5323 232.832 49.3261C232.832 51.12 231.378 52.5741 229.584 52.5741Z" fill="#2F79F9"/>
<path d="M227.854 50.4078C228.168 50.6093 228.541 50.7268 228.942 50.7268C230.26 50.7268 231.005 49.6133 230.96 48.6145C231.099 48.5145 231.22 48.3894 231.315 48.2469C231.187 48.3033 231.05 48.3416 230.907 48.3587C231.053 48.271 231.166 48.1317 231.219 47.9659C231.082 48.0472 230.93 48.1065 230.768 48.1383C230.639 48.0002 230.454 47.9141 230.25 47.9141C229.792 47.9141 229.455 48.3418 229.558 48.7859C228.968 48.7563 228.445 48.4736 228.095 48.044C227.909 48.3632 227.998 48.7808 228.314 48.9922C228.198 48.9886 228.088 48.9565 227.993 48.9033C227.985 49.2324 228.221 49.54 228.562 49.6086C228.462 49.6358 228.353 49.6418 228.242 49.6206C228.332 49.9028 228.594 50.1079 228.905 50.1138C228.606 50.3477 228.23 50.4522 227.854 50.4078Z" fill="white"/>
<path d="M235.421 88.9592C232.416 89.6751 229.399 87.8192 228.683 84.8137C227.967 81.8082 229.823 78.7915 232.828 78.0754C235.834 77.3595 238.85 79.2154 239.566 82.2209C240.283 85.2266 238.427 88.2433 235.421 88.9592Z" fill="#002B66"/>
<path d="M233.542 81.0675C234.339 80.8776 234.434 80.8583 234.752 80.7977C235.046 80.7417 235.216 80.7527 235.331 80.7685C235.483 80.7894 235.598 80.8303 235.727 80.91C235.856 80.9895 235.945 81.0735 236.032 81.1998C236.098 81.2953 236.184 81.4417 236.267 81.7296C236.356 82.0407 236.382 82.1343 236.571 82.9311C236.761 83.7278 236.781 83.8229 236.841 84.1409C236.897 84.435 236.886 84.6045 236.87 84.7194C236.849 84.8716 236.808 84.9863 236.729 85.1157C236.649 85.245 236.565 85.3333 236.439 85.4206C236.344 85.4865 236.197 85.5727 235.909 85.6554C235.598 85.7446 235.505 85.7702 234.708 85.9599C233.911 86.1497 233.816 86.1692 233.498 86.2298C233.204 86.2859 233.035 86.2748 232.92 86.259C232.767 86.238 232.653 86.1971 232.523 86.1177C232.394 86.038 232.306 85.9541 232.218 85.8278C232.153 85.7323 232.066 85.586 231.984 85.2982C231.895 84.9869 231.869 84.8933 231.679 84.0967C231.489 83.2999 231.47 83.2049 231.409 82.8869C231.353 82.5928 231.364 82.4231 231.38 82.3082C231.401 82.1561 231.442 82.0413 231.522 81.9121C231.601 81.7828 231.685 81.6945 231.812 81.6072C231.907 81.5412 232.054 81.4551 232.341 81.3724C232.652 81.2828 232.746 81.2573 233.542 81.0675ZM233.414 80.53C232.604 80.723 232.503 80.7507 232.188 80.841C231.874 80.9311 231.669 81.0333 231.497 81.1523C231.319 81.2752 231.177 81.4169 231.051 81.6223C230.924 81.8276 230.862 82.0185 230.833 82.2328C230.804 82.4402 230.805 82.6691 230.866 82.9901C230.928 83.3119 230.948 83.4143 231.141 84.2246C231.334 85.035 231.362 85.1357 231.452 85.4505C231.543 85.7647 231.645 85.9695 231.764 86.1417C231.886 86.3197 232.028 86.4618 232.234 86.5882C232.439 86.7146 232.63 86.777 232.844 86.8065C233.051 86.8351 233.28 86.8339 233.601 86.7726C233.923 86.7114 234.026 86.6905 234.836 86.4975C235.646 86.3045 235.747 86.2768 236.062 86.1865C236.376 86.0964 236.581 85.9942 236.753 85.8752C236.931 85.7522 237.073 85.6106 237.2 85.4052C237.326 85.1997 237.388 85.0091 237.418 84.7948C237.446 84.5873 237.445 84.3586 237.384 84.0375C237.323 83.7159 237.302 83.6135 237.109 82.8031C236.916 81.9928 236.888 81.8921 236.798 81.5771C236.708 81.2631 236.605 81.0582 236.486 80.886C236.363 80.708 236.222 80.5657 236.016 80.4394C235.811 80.3131 235.62 80.2506 235.406 80.2211C235.199 80.1927 234.97 80.1938 234.649 80.255C234.327 80.3161 234.225 80.3369 233.414 80.53Z" fill="white"/>
<path d="M233.759 81.9808C232.913 82.1823 232.39 83.0319 232.592 83.878C232.794 84.7242 233.643 85.2468 234.489 85.0453C235.335 84.8437 235.858 83.9943 235.657 83.1481C235.455 82.3016 234.605 81.7791 233.759 81.9808ZM234.361 84.5075C233.812 84.6383 233.261 84.2991 233.13 83.7499C232.999 83.2006 233.338 82.6493 233.887 82.5184C234.437 82.3875 234.988 82.7266 235.119 83.2761C235.25 83.8253 234.911 84.3768 234.361 84.5075Z" fill="white"/>
<path d="M235.697 81.4547C235.744 81.6525 235.622 81.851 235.424 81.8981C235.226 81.9452 235.028 81.823 234.981 81.6254C234.934 81.4277 235.056 81.2292 235.254 81.182C235.451 81.1348 235.65 81.257 235.697 81.4547Z" fill="white"/>
<path d="M277.794 84.0301C276.354 84.0301 275.186 82.8621 275.186 81.4213C275.186 79.9805 276.354 78.8125 277.794 78.8125C279.235 78.8125 280.403 79.9805 280.403 81.4213C280.403 82.8619 279.235 84.0301 277.794 84.0301Z" fill="#002B66"/>
<path d="M277.397 82.9976H278.032V81.4072H278.475L278.522 80.8748H278.032C278.032 80.8748 278.032 80.6759 278.032 80.5715C278.032 80.446 278.057 80.3964 278.178 80.3964C278.276 80.3964 278.522 80.3964 278.522 80.3964V79.8438C278.522 79.8438 278.16 79.8438 278.082 79.8438C277.61 79.8438 277.397 80.0518 277.397 80.4502C277.397 80.7972 277.397 80.8748 277.397 80.8748H277.066V81.4139H277.397V82.9976Z" fill="white"/>
<path d="M268.897 98.4453L247.938 98.4329C245.417 98.4315 243.374 96.3873 243.375 93.8666L243.385 41.3225C243.386 38.8004 245.431 36.7564 247.953 36.7578L268.912 36.7701C271.433 36.7716 273.475 38.8157 273.475 41.3365L273.465 93.8808C273.464 96.4029 271.419 98.4469 268.897 98.4453Z" fill="#263238"/>
<path d="M268.89 38.6293L264.826 38.6271C264.281 38.6268 263.839 39.0884 263.84 39.6579L263.839 40.395C263.839 40.9647 263.397 41.4263 262.852 41.426L254.932 41.4213C254.387 41.421 253.945 40.9589 253.945 40.3892L253.945 39.6522C253.945 39.0825 253.504 38.6204 252.959 38.6201L251.53 38.6192L247.973 38.6172C246.207 38.6163 244.774 40.0477 244.774 41.8141L244.764 93.101C244.763 94.8666 246.194 96.2981 247.959 96.2992L268.876 96.3114C270.642 96.3124 272.075 94.8811 272.075 93.1147L272.086 41.8276C272.086 40.0619 270.655 38.6304 268.89 38.6293Z" fill="white"/>
<path d="M269.197 42.7983C269.197 42.812 268.668 42.8276 268.017 42.8329C267.364 42.8382 266.836 42.8316 266.836 42.8177C266.836 42.8041 267.364 42.7885 268.016 42.7831C268.668 42.7778 269.197 42.7844 269.197 42.7983Z" fill="#263238"/>
<path d="M269.201 43.3998C269.201 43.4135 268.672 43.4292 268.02 43.4345C267.368 43.4398 266.84 43.4331 266.84 43.4193C266.84 43.4056 267.368 43.3901 268.02 43.3846C268.672 43.3793 269.2 43.386 269.201 43.3998Z" fill="#263238"/>
<path d="M269.206 44.0014C269.207 44.0151 268.678 44.0307 268.026 44.036C267.374 44.0414 266.846 44.0347 266.846 44.0208C266.846 44.0072 267.374 43.9917 268.026 43.9862C268.678 43.9809 269.206 43.9877 269.206 44.0014Z" fill="#263238"/>
<path d="M246.971 44.5919C246.972 44.5907 246.993 44.5895 247.033 44.5878C247.082 44.5861 247.138 44.5843 247.205 44.5822C247.367 44.5784 247.58 44.5732 247.84 44.567L247.823 44.5849C247.82 44.444 247.818 44.2902 247.815 44.1244C247.816 44.0388 247.808 43.9579 247.816 43.8591C247.833 43.7605 247.921 43.6734 248.029 43.6633C248.132 43.6614 248.222 43.6566 248.333 43.6618C248.447 43.6758 248.545 43.7858 248.541 43.9071C248.544 44.1219 248.546 44.3463 248.549 44.579L248.519 44.55C248.777 44.5474 249.045 44.5446 249.321 44.5417L249.29 44.5728C249.287 44.2501 249.285 43.9163 249.281 43.5743C249.281 43.489 249.28 43.4042 249.279 43.32C249.279 43.2415 249.231 43.1891 249.167 43.1306C249.048 43.0137 248.931 42.8985 248.816 42.7852C248.701 42.672 248.589 42.5607 248.478 42.4517C248.423 42.3973 248.369 42.3434 248.315 42.29C248.258 42.2358 248.214 42.1797 248.149 42.1663C248.086 42.1493 248.016 42.1628 247.965 42.2014C247.917 42.2424 247.865 42.3005 247.816 42.3481C247.717 42.4476 247.621 42.5445 247.528 42.6381C247.347 42.826 247.159 42.9976 247.022 43.1598C246.964 43.2494 246.986 43.359 246.982 43.4589C246.982 43.5581 246.981 43.6524 246.981 43.7413C246.98 43.9144 246.979 44.0661 246.979 44.1961C246.977 44.3124 246.976 44.4083 246.975 44.487C246.974 44.5542 246.973 44.5904 246.971 44.5919C246.97 44.5934 246.968 44.5603 246.966 44.4955C246.963 44.4182 246.961 44.3236 246.958 44.2092C246.955 44.0781 246.951 43.9252 246.947 43.7506C246.946 43.66 246.944 43.5639 246.942 43.4627C246.941 43.4115 246.94 43.3589 246.939 43.3051C246.939 43.2482 246.954 43.1894 246.984 43.1374C247.132 42.9558 247.309 42.795 247.491 42.6016C247.583 42.5071 247.678 42.4096 247.776 42.3093C247.828 42.2589 247.87 42.2087 247.931 42.1561C247.995 42.1069 248.083 42.0892 248.163 42.1104C248.249 42.1292 248.304 42.1991 248.356 42.2479C248.41 42.301 248.465 42.3548 248.52 42.409C248.631 42.5177 248.744 42.6285 248.859 42.7415C248.974 42.8545 249.091 42.9695 249.21 43.086C249.238 43.1158 249.272 43.1411 249.3 43.183C249.326 43.223 249.34 43.2701 249.342 43.3181C249.342 43.4028 249.343 43.4879 249.344 43.5737C249.347 43.9157 249.349 44.2494 249.352 44.5721L249.352 44.603L249.321 44.6031C249.045 44.605 248.777 44.6066 248.52 44.6083L248.49 44.6085L248.49 44.5793C248.489 44.3466 248.488 44.1222 248.487 43.9074C248.49 43.8106 248.415 43.7252 248.325 43.7129C248.233 43.708 248.124 43.7112 248.034 43.712C247.948 43.7191 247.876 43.7883 247.861 43.8678C247.854 43.9483 247.86 44.0423 247.858 44.1239C247.858 44.2899 247.858 44.4437 247.858 44.5846V44.6027L247.841 44.6025C247.576 44.6007 247.36 44.5992 247.195 44.598C247.129 44.5969 247.074 44.5959 247.026 44.5951C246.989 44.594 246.97 44.5931 246.971 44.5919Z" fill="#263238"/>
<path d="M260.796 84.6723C260.796 84.6778 260.718 84.683 260.576 84.6877C260.42 84.691 260.219 84.6951 259.978 84.7003C259.472 84.7074 258.773 84.7119 258.002 84.7119C257.23 84.7119 256.531 84.7074 256.026 84.7003C255.784 84.6953 255.583 84.691 255.427 84.6877C255.285 84.683 255.207 84.6777 255.207 84.6723C255.207 84.6669 255.285 84.6617 255.427 84.657C255.583 84.6538 255.784 84.6495 256.026 84.6444C256.531 84.6372 257.23 84.6328 258.002 84.6328C258.773 84.6328 259.472 84.6372 259.978 84.6444C260.219 84.6494 260.42 84.6536 260.576 84.657C260.718 84.6617 260.796 84.6669 260.796 84.6723Z" fill="#002B66"/>
<path d="M269.582 86.0473C269.582 86.0692 266.364 86.0869 262.396 86.0869C258.426 86.0869 255.209 86.0691 255.209 86.0473C255.209 86.0254 258.426 86.0078 262.396 86.0078C266.364 86.0078 269.582 86.0254 269.582 86.0473Z" fill="#002B66"/>
<path d="M265.091 87.3364C265.091 87.3583 262.878 87.3759 260.15 87.3759C257.421 87.3759 255.209 87.3581 255.209 87.3364C255.209 87.3147 257.421 87.2969 260.15 87.2969C262.878 87.2967 265.091 87.3145 265.091 87.3364Z" fill="#002B66"/>
<path d="M269.866 89.8529L269.419 89.4049L268.994 89.829L268.996 88.5469L269.868 88.5482L269.866 89.8529ZM269.419 89.3491L269.433 89.363L269.826 89.7574L269.828 88.5875L269.035 88.5862L269.034 89.7337L269.419 89.3491Z" fill="#263238"/>
<path d="M257.975 89.6883L257.817 89.6181C257.741 89.6592 257.674 89.6796 257.613 89.6801C257.372 89.682 257.174 89.4872 257.172 89.246C257.17 89.0046 257.365 88.8067 257.606 88.8047C257.848 88.8027 258.045 88.9976 258.047 89.2388C258.048 89.3463 258.01 89.4495 257.938 89.5307L257.975 89.6883ZM257.606 88.8346C257.382 88.8365 257.2 89.0208 257.202 89.2457C257.204 89.4705 257.388 89.652 257.613 89.6501C257.671 89.6497 257.735 89.6293 257.809 89.5883L257.816 89.5846L257.932 89.6364L257.906 89.5223L257.911 89.5165C257.981 89.4402 258.018 89.3417 258.017 89.2393C258.016 89.0143 257.831 88.8328 257.606 88.8346Z" fill="#263238"/>
<path d="M258.988 89.6231L258.807 89.1823L258.469 88.8737L259.29 88.8672L258.988 89.6231ZM258.545 88.9031L258.834 89.1678L258.988 89.5433L259.246 88.8974L258.545 88.9031Z" fill="#263238"/>
<path d="M259.272 88.8726L258.824 89.1641L258.841 89.1892L259.289 88.8977L259.272 88.8726Z" fill="#263238"/>
<path d="M256.681 88.962C256.657 88.8446 256.541 88.7531 256.421 88.758C256.303 88.7627 256.195 88.8614 256.179 88.9789C256.162 88.8617 256.053 88.7648 255.934 88.7619C255.814 88.7591 255.7 88.8524 255.678 88.9702C255.662 89.0559 255.692 89.145 255.741 89.2175C255.789 89.29 255.855 89.3485 255.92 89.4063C256.012 89.4871 256.096 89.5631 256.188 89.644C256.278 89.5616 256.355 89.4844 256.445 89.402C256.51 89.3432 256.575 89.2836 256.622 89.2105C256.669 89.1369 256.698 89.0474 256.681 88.962Z" fill="#2F79F9"/>
<path d="M270.78 90.9867C270.78 90.9867 270.778 90.9374 270.777 90.8437C270.777 90.7485 270.776 90.6097 270.775 90.4278C270.773 90.061 270.771 89.5217 270.768 88.823C270.765 87.4259 270.76 85.3936 270.754 82.8442L270.78 82.8704C264.932 82.8735 256.202 82.8784 246.473 82.8839H246.471L246.511 82.8444C246.51 85.6741 246.51 88.4191 246.509 90.9868L246.471 90.9485C253.469 90.9557 259.54 90.9619 263.865 90.9663C266.029 90.9709 267.755 90.9745 268.943 90.9771C269.536 90.9792 269.993 90.9809 270.305 90.9821C270.459 90.9832 270.577 90.984 270.658 90.9846C270.738 90.985 270.78 90.9867 270.78 90.9867C270.78 90.9867 270.741 90.9884 270.663 90.9891C270.583 90.9897 270.467 90.9905 270.315 90.9916C270.005 90.9926 269.55 90.9943 268.96 90.9964C267.775 90.999 266.052 91.0027 263.891 91.0072C259.56 91.0116 253.479 91.0179 246.471 91.025H246.433V90.9867C246.432 88.419 246.432 85.674 246.432 82.8442V82.8047H246.471H246.473C256.202 82.8102 264.932 82.8149 270.78 82.8182H270.806V82.8444C270.8 85.4004 270.795 87.4381 270.792 88.8388C270.789 89.5349 270.787 90.0724 270.785 90.4378C270.784 90.6178 270.783 90.7549 270.783 90.8491C270.782 90.9409 270.78 90.9867 270.78 90.9867Z" fill="#263238"/>
<path d="M247.484 84.2105L247.453 89.5938L254.187 89.6321L254.217 84.2489L247.484 84.2105Z" fill="#EBEBEB"/>
<path d="M254.216 84.2462C254.215 84.247 254.204 84.2476 254.182 84.248C254.158 84.2485 254.126 84.2489 254.087 84.2495C254 84.25 253.877 84.2508 253.719 84.2517C253.395 84.252 252.929 84.2526 252.339 84.2532C251.154 84.2508 249.476 84.2474 247.482 84.2433L247.518 84.2081C247.51 85.8109 247.501 87.6472 247.491 89.5907C247.5 89.6003 247.418 89.5157 247.453 89.5515H247.455H247.459H247.466L247.481 89.5516L247.51 89.5518L247.568 89.5521L247.685 89.5527L247.917 89.554C248.071 89.555 248.225 89.5559 248.378 89.5568C248.683 89.5586 248.986 89.5604 249.285 89.5623C249.883 89.5661 250.466 89.5699 251.032 89.5735C252.163 89.5817 253.223 89.5893 254.185 89.5963L254.152 89.629C254.169 88.0125 254.182 86.6715 254.192 85.73C254.198 85.2617 254.203 84.8931 254.206 84.637C254.209 84.5134 254.21 84.4171 254.212 84.3476C254.214 84.2819 254.216 84.2462 254.216 84.2462C254.216 84.2462 254.218 84.2772 254.219 84.3408C254.22 84.4087 254.22 84.5031 254.221 84.6239C254.222 84.8784 254.223 85.2445 254.224 85.7097C254.222 86.6562 254.221 88.0044 254.218 89.6294V89.6623L254.185 89.6621C253.223 89.6582 252.163 89.6538 251.032 89.649C250.466 89.6463 249.883 89.6434 249.285 89.6404C248.986 89.6389 248.683 89.6372 248.378 89.6355C248.225 89.6348 248.071 89.6338 247.917 89.6329L247.685 89.6316L247.568 89.631L247.51 89.6307L247.481 89.6305H247.466H247.459H247.455H247.453C247.488 89.6659 247.404 89.5823 247.413 89.5901C247.425 87.6466 247.437 85.8103 247.448 84.2074L247.448 84.1719L247.483 84.1722C249.486 84.1909 251.172 84.2065 252.362 84.2176C252.949 84.2249 253.413 84.2309 253.735 84.2348C253.889 84.2375 254.01 84.2395 254.095 84.241C254.133 84.2421 254.163 84.243 254.187 84.2436C254.207 84.2447 254.217 84.2454 254.216 84.2462Z" fill="#263238"/>
<path d="M247.714 84.5523L247.688 89.2578L253.948 89.2935L253.975 84.588L247.714 84.5523Z" fill="#E0E0E0"/>
<path d="M247.686 89.2562L249.889 86.3438L251.233 88.1814L252.157 87.2083L253.946 89.2918L247.686 89.2562Z" fill="#F5F5F5"/>
<path d="M251.822 85.9955C251.82 86.2678 251.598 86.4872 251.326 86.4857C251.054 86.4842 250.834 86.2623 250.836 85.9901C250.837 85.7178 251.059 85.4983 251.332 85.5C251.604 85.5014 251.823 85.7233 251.822 85.9955Z" fill="#F5F5F5"/>
<path d="M258.837 49.3209C258.837 49.3237 258.812 49.3264 258.765 49.329C258.708 49.331 258.641 49.3334 258.559 49.3364C258.367 49.3396 258.111 49.3439 257.8 49.349C257.16 49.3562 256.275 49.3606 255.298 49.3606C254.321 49.3606 253.436 49.3562 252.796 49.349C252.486 49.3439 252.23 49.3396 252.038 49.3364C251.956 49.3335 251.888 49.331 251.832 49.329C251.785 49.3264 251.76 49.3237 251.76 49.3209C251.76 49.3182 251.785 49.3155 251.832 49.3129C251.888 49.3109 251.956 49.3085 252.038 49.3054C252.229 49.3022 252.486 49.298 252.796 49.2928C253.436 49.2857 254.321 49.2812 255.298 49.2812C256.276 49.2812 257.16 49.2857 257.8 49.2928C258.111 49.298 258.367 49.3022 258.559 49.3054C258.641 49.3083 258.708 49.3107 258.765 49.3129C258.812 49.3156 258.837 49.3182 258.837 49.3209Z" fill="#263238"/>
<path d="M268.786 79.0814L268.122 78.4157L267.49 79.0459L267.493 77.1406L268.789 77.1426L268.786 79.0814ZM268.122 78.3329L268.143 78.3536L268.728 78.9398L268.73 77.2011L267.552 77.1993L267.549 78.9046L268.122 78.3329Z" fill="#263238"/>
<path d="M251.934 78.8797L251.624 78.7414C251.474 78.8225 251.342 78.8625 251.222 78.8636C250.747 78.8674 250.357 78.484 250.354 78.009C250.35 77.534 250.733 77.1445 251.208 77.1407C251.683 77.1369 252.073 77.5202 252.077 77.9952C252.078 78.2068 252.002 78.41 251.862 78.5698L251.934 78.8797ZM251.209 77.1995C250.766 77.203 250.409 77.5659 250.413 78.0084C250.416 78.4509 250.779 78.8081 251.222 78.8044C251.335 78.8035 251.462 78.7636 251.608 78.6827L251.621 78.6754L251.85 78.7775L251.798 78.5527L251.808 78.5413C251.945 78.3912 252.019 78.1972 252.018 77.9955C252.014 77.553 251.651 77.196 251.209 77.1995Z" fill="#263238"/>
<path d="M253.928 78.7462L253.573 77.8784L252.906 77.2709L254.523 77.2578L253.928 78.7462ZM253.057 77.3286L253.625 77.8499L253.928 78.5889L254.436 77.3175L253.057 77.3286Z" fill="#263238"/>
<path d="M254.489 77.2702L253.607 77.8438L253.64 77.8933L254.521 77.3197L254.489 77.2702Z" fill="#263238"/>
<path d="M249.39 77.4566C249.343 77.2256 249.115 77.0456 248.879 77.055C248.646 77.0643 248.434 77.2584 248.403 77.4896C248.369 77.259 248.154 77.0683 247.92 77.0626C247.685 77.0572 247.459 77.2408 247.417 77.4724C247.386 77.6412 247.444 77.8166 247.54 77.9591C247.635 78.1017 247.765 78.2171 247.894 78.3306C248.074 78.4898 248.24 78.6393 248.42 78.7986C248.598 78.6366 248.749 78.4844 248.926 78.3224C249.053 78.2067 249.181 78.0894 249.274 77.9453C249.368 77.8012 249.423 77.6249 249.39 77.4566Z" fill="#2F79F9"/>
<path d="M249.243 50.4202C249.849 50.4202 250.34 49.9292 250.34 49.3234C250.34 48.7176 249.849 48.2266 249.243 48.2266C248.638 48.2266 248.146 48.7176 248.146 49.3234C248.146 49.9292 248.638 50.4202 249.243 50.4202Z" fill="#EBEBEB"/>
<path d="M268.371 72.7895C268.371 72.8114 263.772 72.829 258.099 72.829C252.425 72.829 247.826 72.8113 247.826 72.7895C247.826 72.7678 252.425 72.75 258.099 72.75C263.772 72.7498 268.371 72.7676 268.371 72.7895Z" fill="#002B66"/>
<path d="M268.371 71.0786C268.371 71.1005 263.772 71.1181 258.099 71.1181C252.425 71.1181 247.826 71.1003 247.826 71.0786C247.826 71.0568 252.425 71.0391 258.099 71.0391C263.772 71.0391 268.371 71.0567 268.371 71.0786Z" fill="#002B66"/>
<path d="M259.009 74.5239C259.009 74.5458 256.505 74.5634 253.418 74.5634C250.329 74.5634 247.826 74.5456 247.826 74.5239C247.826 74.5022 250.329 74.4844 253.418 74.4844C256.505 74.4844 259.009 74.5022 259.009 74.5239Z" fill="#002B66"/>
<path d="M257.629 93.1637C257.628 93.4082 257.432 93.6055 257.19 93.6045C256.949 93.6032 256.755 93.404 256.756 93.1596C256.757 92.9151 256.953 92.7175 257.194 92.7188C257.435 92.7198 257.63 92.9189 257.629 93.1637Z" fill="#263238"/>
<path d="M258.98 93.1715C258.979 93.4159 258.783 93.6132 258.542 93.6123C258.301 93.6112 258.106 93.4121 258.107 93.1674C258.108 92.9229 258.305 92.7255 258.546 92.7266C258.787 92.7276 258.981 92.9268 258.98 93.1715Z" fill="#263238"/>
<path d="M260.334 93.1793C260.333 93.4237 260.137 93.6213 259.896 93.6201C259.654 93.619 259.46 93.4199 259.461 93.1752C259.462 92.9306 259.658 92.7333 259.899 92.7344C260.14 92.7354 260.335 92.9346 260.334 93.1793Z" fill="#263238"/>
<path d="M270.926 51.4922H246.617V66.3584H270.926V51.4922Z" fill="#E0E0E0"/>
<path d="M248.861 66.3624L255.827 57.0391L260.146 62.8698L263.072 59.7512L268.813 66.3567L248.861 66.3624Z" fill="#F5F5F5"/>
<path d="M261.976 55.8986C261.976 56.7662 261.273 57.4698 260.405 57.47C259.538 57.4703 258.834 56.7671 258.834 55.8995C258.834 55.0319 259.537 54.3284 260.404 54.3281C261.272 54.3278 261.976 55.031 261.976 55.8986Z" fill="#F5F5F5"/>
<path d="M270.86 80.1758C270.86 79.8578 270.845 66.4282 270.824 46.5473L270.86 46.5832C263.529 46.5843 255.266 46.5856 246.554 46.5869H246.551L246.591 46.5473C246.588 59.1235 246.586 70.7625 246.583 80.1758L246.551 80.1436C261.293 80.1632 270.595 80.1755 270.86 80.1758C270.595 80.1761 261.293 80.1884 246.551 80.208H246.519V80.1758C246.517 70.7626 246.515 59.1237 246.512 46.5473V46.5078H246.551H246.554C255.266 46.5092 263.529 46.5104 270.86 46.5115H270.896V46.5473C270.889 56.4976 270.882 64.9083 270.878 70.8327C270.874 73.7906 270.871 76.1276 270.869 77.7263C270.867 78.5234 270.865 79.1363 270.864 79.5508C270.863 79.7564 270.863 79.9127 270.862 80.0188C270.862 80.1235 270.86 80.1758 270.86 80.1758Z" fill="#263238"/>
<path d="M259.438 84.3457L259.976 82.5387C260.07 82.1468 260.194 81.6846 260.362 81.1572C260.513 80.6831 260.899 80.185 261.252 79.8262C261.801 79.2681 262.062 79.2641 262.431 78.9679C262.465 78.9463 262.502 78.9155 262.534 78.8984C262.61 78.8571 262.666 78.8022 262.713 78.7432C263.031 78.3993 262.726 77.867 262.08 77.9176C261.594 77.9557 260.801 78.0948 259.512 79.4248C259.496 79.445 259.479 79.4619 259.463 79.4826C258.787 80.362 258.151 77.8513 258.036 76.9168C257.962 76.3105 257.306 75.9378 256.713 76.1573L253.572 77.626C253.313 77.5347 253.005 77.5502 252.655 77.657C252.193 77.828 251.936 78.3035 252.057 78.7648L253.331 83.8494L249.59 96.2971H257.653L259.438 84.3457Z" fill="#FFBE9D"/>
<path d="M265.632 72.9137L263.139 77.7979L261.893 77.4516L255.628 82.5476C255.095 82.9812 254.314 82.9118 253.866 82.3909L251.48 79.6193C251.48 79.6193 256.29 77.5475 257.18 75.8325C258.069 74.1175 257.041 73.7285 257.041 73.7285L259.305 71.1562L265.632 72.9137Z" fill="#2F79F9"/>
<path d="M262.4 62.9379C262.4 62.9379 258.752 62.131 253.617 57.1935C248.483 52.2563 246.071 45.6996 245.442 45.7317C244.814 45.7636 242.07 44.4895 236.85 55.8427C231.631 67.1958 233.687 69.8322 234.726 69.8109C235.764 69.7895 242.816 67.8244 247.221 68.325C251.626 68.8258 257.287 71.1213 257.287 71.1213L262.4 62.9379Z" fill="#2F79F9"/>
<path d="M270.151 69.1243L268.906 71.491L268.348 72.5512C267.584 74.0054 265.815 74.6064 264.322 73.919L256.502 71.1943L261.056 60.7969L268.869 64.9606C270.369 65.7597 270.942 67.6202 270.151 69.1243Z" fill="#2F79F9"/>
<g opacity="0.4">
<path d="M270.151 69.1243L268.906 71.491L268.348 72.5512C267.584 74.0054 265.815 74.6064 264.322 73.919L256.502 71.1943L261.056 60.7969L268.869 64.9606C270.369 65.7597 270.942 67.6202 270.151 69.1243Z" fill="black"/>
</g>
<path d="M237.272 56.0469C234.495 62.197 233.339 67.6774 234.69 68.2877C236.041 68.8981 239.388 64.4071 242.166 58.257C244.944 52.1071 246.1 46.6267 244.749 46.0165C243.397 45.4062 240.05 49.8969 237.272 56.0469Z" fill="#2F79F9"/>
<g opacity="0.5">
<path d="M237.272 56.0469C234.495 62.197 233.339 67.6774 234.69 68.2877C236.041 68.8981 239.388 64.4071 242.166 58.257C244.944 52.1071 246.1 46.6267 244.749 46.0165C243.397 45.4062 240.05 49.8969 237.272 56.0469Z" fill="black"/>
</g>
<path d="M270.823 72.5503L268.703 71.8846L270.015 69.3906L271.604 70.3788L270.823 72.5503Z" fill="#2F79F9"/>
<g opacity="0.6">
<path d="M270.015 69.3906L268.703 71.8846L269.139 72.0216L270.205 69.5089L270.015 69.3906Z" fill="black"/>
</g>
<path d="M268.554 69.9596C268.522 70.0282 267.465 69.617 266.191 69.0412C264.916 68.4654 263.909 67.9432 263.94 67.8746C263.971 67.8062 265.029 68.2174 266.303 68.7932C267.577 69.3689 268.584 69.8912 268.554 69.9596Z" fill="#2F79F9"/>
<path d="M269.206 68.4759C269.172 68.5435 268.215 68.14 267.068 67.575C265.92 67.0096 265.016 66.4969 265.05 66.4292C265.083 66.3619 266.04 66.7653 267.188 67.3307C268.336 67.8957 269.239 68.4084 269.206 68.4759Z" fill="#2F79F9"/>
<path d="M267.732 71.5179C267.72 71.5541 267.469 71.496 267.067 71.3718C266.866 71.31 266.629 71.2314 266.365 71.1403C266.104 71.0456 265.833 70.9085 265.542 70.7767C264.383 70.2385 263.497 69.7115 263.526 69.6491C263.56 69.5752 264.507 69.9964 265.656 70.5294C265.944 70.66 266.211 70.8038 266.463 70.9091C266.716 71.0113 266.943 71.1069 267.133 71.1909C267.512 71.3592 267.743 71.4819 267.732 71.5179Z" fill="#2F79F9"/>
<path d="M242.934 54.6848C242.934 54.6848 239.762 52.7184 238.027 57.0028C236.292 61.2872 239.629 61.9918 239.629 61.9918C240.994 59.8744 242.103 57.448 242.934 54.6848Z" fill="#2F79F9"/>
<g opacity="0.5">
<path d="M246.307 49.5782C246.325 49.5813 246.28 49.8723 246.183 50.3967C246.082 50.9202 245.941 51.6802 245.737 52.6133C245.603 53.0728 245.457 53.5747 245.299 54.1126C245.22 54.3823 245.138 54.6607 245.053 54.9477C245.01 55.0913 244.967 55.2368 244.924 55.3842C244.876 55.5306 244.814 55.6741 244.759 55.822C244.531 56.4116 244.291 57.0298 244.043 57.6706C243.981 57.8308 243.918 57.9924 243.854 58.1554C243.792 58.3191 243.705 58.473 243.631 58.6343C243.476 58.9538 243.319 59.2782 243.16 59.6062C243 59.9342 242.842 60.2583 242.687 60.5778C242.606 60.7357 242.539 60.8996 242.448 61.0494C242.359 61.2001 242.271 61.3496 242.184 61.4977C241.834 62.0891 241.496 62.6599 241.173 63.204C241.091 63.3389 241.017 63.4761 240.931 63.604C240.842 63.7298 240.754 63.854 240.667 63.9763C240.493 64.2206 240.325 64.4579 240.162 64.6874C239.836 65.1439 239.531 65.5698 239.253 65.9596C238.647 66.6944 238.138 67.274 237.789 67.6762C237.437 68.0767 237.236 68.2925 237.222 68.2805C237.207 68.2687 237.381 68.03 237.707 67.6088C238.045 67.1798 238.52 66.5774 239.104 65.8376C239.372 65.4447 239.665 65.0154 239.979 64.5553C240.137 64.3253 240.3 64.0876 240.468 63.843C240.552 63.7208 240.638 63.5967 240.724 63.4711C240.808 63.3434 240.88 63.2057 240.961 63.071C241.276 62.5279 241.608 61.9584 241.951 61.3682C242.037 61.2206 242.124 61.0719 242.211 60.9219C242.301 60.7728 242.367 60.61 242.447 60.4527C242.601 60.1353 242.757 59.8132 242.915 59.4873C243.073 59.1618 243.23 58.84 243.384 58.5229C243.458 58.363 243.545 58.2102 243.607 58.0479C243.671 57.8865 243.734 57.7263 243.797 57.5676C244.048 56.9331 244.292 56.3209 244.523 55.7372C244.579 55.5908 244.642 55.4488 244.691 55.3041C244.737 55.1582 244.781 55.0141 244.826 54.8722C244.914 54.5885 245 54.3128 245.083 54.0463C245.251 53.5146 245.407 53.0185 245.551 52.5643C245.771 51.6502 245.951 50.906 246.078 50.3758C246.208 49.8595 246.288 49.575 246.307 49.5782Z" fill="black"/>
</g>
<g opacity="0.4">
<path d="M252.242 79.2814C252.531 79.8066 252.827 80.34 253.255 80.7596C253.683 81.1793 254.271 81.4766 254.867 81.4166C255.464 81.3565 256.029 80.861 256.036 80.2615C256.322 80.4766 256.761 80.36 256.998 80.0918C257.235 79.8235 257.312 79.4505 257.34 79.0934C257.729 79.3228 258.27 79.1408 258.53 78.7715C258.789 78.4021 258.805 77.9045 258.679 77.4708C258.554 77.0373 258.303 76.6526 258.055 76.275C258.355 76.2992 258.672 76.3202 258.94 76.1844C259.208 76.0487 259.388 75.6944 259.232 75.4378C259.14 75.2872 258.964 75.2124 258.796 75.1598C258.327 75.013 257.998 74.8953 257.509 74.952C257.396 74.9531 257.705 76.2404 254.639 78.0008C252.829 79.0405 252.242 79.2814 252.242 79.2814Z" fill="black"/>
</g>
<path d="M259.146 81.1429C259.144 81.157 258.94 81.1179 258.609 81.1268C258.28 81.1342 257.82 81.2064 257.366 81.4242C256.912 81.6419 256.568 81.9553 256.356 82.207C256.141 82.4593 256.044 82.643 256.032 82.6357C256.027 82.6334 256.047 82.5852 256.092 82.5027C256.136 82.42 256.209 82.3044 256.312 82.1716C256.517 81.9061 256.864 81.5767 257.332 81.3528C257.799 81.1287 258.273 81.0638 258.608 81.0708C258.777 81.0734 258.912 81.0892 259.004 81.1064C259.097 81.1231 259.147 81.138 259.146 81.1429Z" fill="#FF9C00"/>
<path d="M252.441 78.4641C252.935 78.9385 253.273 79.4622 253.791 79.9399C254.026 80.1569 254.392 80.5683 254.708 80.623C255.023 80.6777 255.225 80.6357 255.35 80.3409C255.451 80.1021 255.27 79.7757 255.144 79.5789C254.814 79.0612 254.499 78.6566 254.251 78.2541C254.136 78.0656 254.286 78.0267 254.34 78.1139C254.578 78.3603 254.933 78.5739 255.145 78.8421C255.437 79.2095 255.49 79.6959 256.253 79.5421C256.353 79.5217 256.454 79.4869 256.536 79.4245C256.823 79.2047 256.835 78.8225 256.714 78.5164C256.619 78.2766 256.453 78.073 256.289 77.8739C256.614 78.2405 256.969 78.6266 257.485 78.6683C257.785 78.6924 258.086 78.5527 258.208 78.277C258.36 77.9301 258.141 77.5948 257.922 77.3237C257.532 76.843 257.097 76.399 256.625 75.9993C256.449 75.8505 256.225 75.7672 255.995 75.7657C255.728 75.764 255.394 75.8142 255.229 76.0464C254.929 76.4681 255.021 76.8409 255.021 76.8409C255.021 76.8409 254.352 76.5013 253.814 76.8566C253.276 77.2116 253.142 77.8221 253.142 77.8221L252.441 78.4641Z" fill="#FFBE9D"/>
<path d="M256.005 75.619C255.798 75.4103 255.749 75.0284 255.91 74.7132C256.024 74.4899 256.168 74.273 256.314 74.2239C256.951 74.009 259.734 74.4905 259.708 75.1082C259.682 75.7425 259.48 76.0218 257.969 75.8036C257.704 75.7653 257.287 75.7129 257.287 75.7129L256.922 76.2601L256.005 75.619Z" fill="#FFBE9D"/>
<path d="M256.503 78.2044C256.481 78.218 256.269 77.7858 255.836 77.3984C255.408 77.0058 254.958 76.8372 254.969 76.8139C254.972 76.8053 255.088 76.8352 255.264 76.9178C255.439 76.9997 255.67 77.1407 255.89 77.3397C256.109 77.5391 256.272 77.7551 256.371 77.9213C256.47 78.0875 256.511 78.2005 256.503 78.2044Z" fill="#FF9C00"/>
<path d="M256.972 76.3087C256.958 76.3216 256.775 76.1717 256.524 76.0184C256.399 75.9416 256.284 75.8771 256.197 75.8384C256.111 75.798 256.054 75.7869 256.055 75.775C256.054 75.7648 256.12 75.7566 256.217 75.7858C256.313 75.8132 256.438 75.8723 256.566 75.951C256.823 76.108 256.991 76.292 256.972 76.3087Z" fill="#FF9C00"/>
<path d="M257.438 75.7338C257.436 75.7506 257.194 75.7576 256.902 75.6735C256.757 75.6291 256.635 75.5592 256.559 75.4938C256.482 75.4288 256.451 75.3744 256.458 75.368C256.473 75.3544 256.646 75.5189 256.925 75.5979C257.201 75.6779 257.442 75.7075 257.438 75.7338Z" fill="#FF9C00"/>
<path d="M254.733 78.9725C254.724 78.9789 254.626 78.8533 254.479 78.6426C254.33 78.437 254.14 78.13 253.83 77.9042C253.519 77.6782 253.154 77.6246 252.909 77.6604C252.66 77.6952 252.529 77.7983 252.522 77.7837C252.519 77.7802 252.548 77.7518 252.61 77.7135C252.672 77.6741 252.771 77.6311 252.9 77.6052C253.156 77.5527 253.546 77.6001 253.876 77.8399C254.203 78.0795 254.388 78.3987 254.526 78.6118C254.66 78.8304 254.742 78.9663 254.733 78.9725Z" fill="#FF9C00"/>
<path d="M256.864 85.1233C256.866 85.145 256.357 85.2183 255.726 85.2869C255.096 85.3554 254.582 85.3934 254.58 85.3717C254.578 85.3499 255.087 85.2767 255.718 85.2081C256.348 85.1396 256.861 85.1016 256.864 85.1233Z" fill="#FF9C00"/>
<path d="M280.808 34.5781L280.979 34.8919L281.293 35.0633L280.979 35.2351L280.808 35.5486L280.636 35.2351L280.322 35.0633L280.636 34.8919L280.808 34.5781Z" fill="#2F79F9"/>
<path d="M284.395 42.3516L284.567 42.6653L284.881 42.8369L284.567 43.0085L284.395 43.3222L284.224 43.0085L283.91 42.8369L284.224 42.6653L284.395 42.3516Z" fill="#2F79F9"/>
<path d="M226.889 63.1016L227.061 63.4154L227.375 63.5871L227.061 63.7585L226.889 64.0722L226.718 63.7585L226.404 63.5871L226.718 63.4154L226.889 63.1016Z" fill="#2F79F9"/>
<path d="M276.101 36.5078L276.497 37.2322L277.222 37.6285L276.497 38.0248L276.101 38.7494L275.705 38.0248L274.98 37.6285L275.705 37.2322L276.101 36.5078Z" fill="#2F79F9"/>
<path d="M230.105 58.1719L230.5 58.8948L231.223 59.2901L230.5 59.6855L230.105 60.4084L229.709 59.6855L228.986 59.2901L229.709 58.8948L230.105 58.1719Z" fill="#2F79F9"/>
<path d="M285.372 75.4219L285.768 76.1448L286.49 76.5401L285.768 76.9356L285.372 77.6586L284.977 76.9356L284.254 76.5401L284.977 76.1448L285.372 75.4219Z" fill="#2F79F9"/>
</g>
<rect x="1" y="1" width="317" height="130" rx="20" stroke="#EFEFEF"/>
<defs>
<clipPath id="clip0_3570_3740">
<rect x="1" y="1" width="317" height="130" rx="20" fill="white"/>
</clipPath>
</defs>
</svg>
