<svg width="319" height="132" viewBox="0 0 319 132" fill="none" xmlns="http://www.w3.org/2000/svg">
<g clip-path="url(#clip0_3599_4260)">
<rect x="1" y="1" width="317" height="130" rx="20" fill="#F2D3FF"/>
<path d="M140.812 96.9845C131.047 89.0865 119.094 84.3645 106.536 83.4435C93.9774 82.5225 81.406 85.4459 70.4857 91.8268C59.5654 98.2077 50.8112 107.745 45.3821 119.176C39.9529 130.608 38.1048 143.394 40.0825 155.842C42.0601 168.291 47.7702 179.814 56.4568 188.887C65.1434 197.96 76.3969 204.155 88.7275 206.652C101.058 209.148 113.884 207.829 125.508 202.868C137.132 197.907 147.006 189.539 153.821 178.871L122.551 158.971C119.81 163.262 115.838 166.628 111.163 168.623C106.487 170.619 101.328 171.15 96.3683 170.145C91.4084 169.141 86.8819 166.649 83.3878 163C79.8937 159.35 77.5969 154.715 76.8014 149.708C76.006 144.701 76.7493 139.558 78.9331 134.96C81.1169 130.362 84.6382 126.525 89.0307 123.959C93.4233 121.392 98.4799 120.216 103.531 120.587C108.583 120.957 113.391 122.856 117.319 126.033L140.812 96.9845Z" fill="#F2AAC9" fill-opacity="0.26"/>
<path d="M39.717 32.887V46H36.657V40.456H31.329V46H28.269V32.887H31.329V38.368H36.657V32.887H39.717ZM47.4609 40.213C47.4609 39.991 47.4309 39.775 47.3709 39.565C47.3169 39.355 47.2239 39.169 47.0919 39.007C46.9659 38.839 46.7979 38.704 46.5879 38.602C46.3779 38.5 46.1229 38.449 45.8229 38.449C45.2949 38.449 44.8809 38.602 44.5809 38.908C44.2809 39.208 44.0829 39.643 43.9869 40.213H47.4609ZM43.9509 41.833C44.0409 42.613 44.2779 43.18 44.6619 43.534C45.0459 43.882 45.5409 44.056 46.1469 44.056C46.4709 44.056 46.7499 44.017 46.9839 43.939C47.2179 43.861 47.4249 43.774 47.6049 43.678C47.7909 43.582 47.9589 43.495 48.1089 43.417C48.2649 43.339 48.4269 43.3 48.5949 43.3C48.8169 43.3 48.9849 43.381 49.0989 43.543L49.9089 44.542C49.6209 44.872 49.3089 45.142 48.9729 45.352C48.6429 45.556 48.3009 45.718 47.9469 45.838C47.5989 45.952 47.2479 46.03 46.8939 46.072C46.5459 46.12 46.2129 46.144 45.8949 46.144C45.2409 46.144 44.6259 46.039 44.0499 45.829C43.4799 45.613 42.9789 45.295 42.5469 44.875C42.1209 44.455 41.7819 43.933 41.5299 43.309C41.2839 42.685 41.1609 41.959 41.1609 41.131C41.1609 40.507 41.2659 39.916 41.4759 39.358C41.6919 38.8 41.9979 38.311 42.3939 37.891C42.7959 37.471 43.2789 37.138 43.8429 36.892C44.4129 36.646 45.0549 36.523 45.7689 36.523C46.3869 36.523 46.9509 36.619 47.4609 36.811C47.9769 37.003 48.4179 37.282 48.7839 37.648C49.1559 38.014 49.4439 38.464 49.6479 38.998C49.8579 39.526 49.9629 40.126 49.9629 40.798C49.9629 41.008 49.9539 41.179 49.9359 41.311C49.9179 41.443 49.8849 41.548 49.8369 41.626C49.7889 41.704 49.7229 41.758 49.6389 41.788C49.5609 41.818 49.4589 41.833 49.3329 41.833H43.9509ZM54.1491 32.527V46H51.3591V32.527H54.1491ZM58.8248 43.462C59.0348 43.69 59.2628 43.852 59.5088 43.948C59.7548 44.044 60.0128 44.092 60.2828 44.092C60.5408 44.092 60.7778 44.041 60.9938 43.939C61.2098 43.837 61.3958 43.675 61.5518 43.453C61.7138 43.225 61.8398 42.931 61.9298 42.571C62.0198 42.211 62.0648 41.773 62.0648 41.257C62.0648 40.765 62.0288 40.351 61.9568 40.015C61.8848 39.679 61.7828 39.409 61.6508 39.205C61.5248 38.995 61.3718 38.845 61.1918 38.755C61.0118 38.665 60.8108 38.62 60.5888 38.62C60.1808 38.62 59.8448 38.695 59.5808 38.845C59.3168 38.995 59.0648 39.214 58.8248 39.502V43.462ZM58.6538 37.819C59.0198 37.429 59.4338 37.111 59.8958 36.865C60.3638 36.613 60.9188 36.487 61.5608 36.487C62.0468 36.487 62.4968 36.595 62.9108 36.811C63.3248 37.027 63.6818 37.339 63.9818 37.747C64.2818 38.155 64.5158 38.656 64.6838 39.25C64.8578 39.838 64.9448 40.507 64.9448 41.257C64.9448 41.959 64.8458 42.607 64.6478 43.201C64.4558 43.795 64.1828 44.311 63.8288 44.749C63.4808 45.187 63.0608 45.529 62.5688 45.775C62.0828 46.021 61.5428 46.144 60.9488 46.144C60.4628 46.144 60.0548 46.075 59.7248 45.937C59.3948 45.799 59.0948 45.613 58.8248 45.379V48.961H56.0348V36.667H57.7628C58.1108 36.667 58.3388 36.823 58.4468 37.135L58.6538 37.819ZM78.9244 36.667V46H77.1964C76.8484 46 76.6204 45.844 76.5124 45.532L76.3504 44.992C76.1704 45.166 75.9844 45.325 75.7924 45.469C75.6004 45.607 75.3934 45.727 75.1714 45.829C74.9554 45.925 74.7184 46 74.4604 46.054C74.2084 46.114 73.9324 46.144 73.6324 46.144C73.1224 46.144 72.6694 46.057 72.2734 45.883C71.8834 45.703 71.5534 45.454 71.2834 45.136C71.0134 44.818 70.8094 44.443 70.6714 44.011C70.5334 43.579 70.4644 43.105 70.4644 42.589V36.667H73.2544V42.589C73.2544 43.051 73.3594 43.408 73.5694 43.66C73.7794 43.912 74.0884 44.038 74.4964 44.038C74.8024 44.038 75.0874 43.975 75.3514 43.849C75.6214 43.717 75.8824 43.54 76.1344 43.318V36.667H78.9244ZM86.751 38.71C86.679 38.824 86.601 38.905 86.517 38.953C86.439 39.001 86.337 39.025 86.211 39.025C86.079 39.025 85.947 38.998 85.815 38.944C85.683 38.884 85.539 38.821 85.383 38.755C85.233 38.689 85.062 38.629 84.87 38.575C84.678 38.515 84.459 38.485 84.213 38.485C83.859 38.485 83.586 38.554 83.394 38.692C83.208 38.824 83.115 39.01 83.115 39.25C83.115 39.424 83.175 39.568 83.295 39.682C83.421 39.796 83.586 39.898 83.79 39.988C83.994 40.072 84.225 40.153 84.483 40.231C84.741 40.309 85.005 40.396 85.275 40.492C85.545 40.588 85.809 40.702 86.067 40.834C86.325 40.96 86.556 41.119 86.76 41.311C86.964 41.497 87.126 41.725 87.246 41.995C87.372 42.265 87.435 42.589 87.435 42.967C87.435 43.429 87.351 43.855 87.183 44.245C87.015 44.635 86.763 44.971 86.427 45.253C86.097 45.535 85.686 45.754 85.194 45.91C84.708 46.066 84.147 46.144 83.511 46.144C83.193 46.144 82.875 46.114 82.557 46.054C82.239 45.994 81.93 45.913 81.63 45.811C81.336 45.709 81.063 45.589 80.811 45.451C80.559 45.307 80.343 45.154 80.163 44.992L80.811 43.966C80.883 43.846 80.973 43.753 81.081 43.687C81.195 43.615 81.339 43.579 81.513 43.579C81.675 43.579 81.819 43.615 81.945 43.687C82.077 43.759 82.218 43.837 82.368 43.921C82.518 44.005 82.692 44.083 82.89 44.155C83.094 44.227 83.349 44.263 83.655 44.263C83.871 44.263 84.054 44.242 84.204 44.2C84.354 44.152 84.474 44.089 84.564 44.011C84.654 43.933 84.72 43.846 84.762 43.75C84.804 43.654 84.825 43.555 84.825 43.453C84.825 43.267 84.762 43.114 84.636 42.994C84.51 42.874 84.345 42.772 84.141 42.688C83.937 42.598 83.703 42.517 83.439 42.445C83.181 42.367 82.917 42.28 82.647 42.184C82.377 42.088 82.11 41.974 81.846 41.842C81.588 41.704 81.357 41.533 81.153 41.329C80.949 41.119 80.784 40.864 80.658 40.564C80.532 40.264 80.469 39.901 80.469 39.475C80.469 39.079 80.544 38.704 80.694 38.35C80.85 37.99 81.081 37.675 81.387 37.405C81.693 37.135 82.077 36.922 82.539 36.766C83.001 36.604 83.541 36.523 84.159 36.523C84.495 36.523 84.819 36.553 85.131 36.613C85.449 36.673 85.746 36.757 86.022 36.865C86.298 36.973 86.55 37.102 86.778 37.252C87.006 37.396 87.207 37.555 87.381 37.729L86.751 38.71ZM96.3856 46H93.3256V32.887H96.3856V46ZM98.4509 46V36.667H100.179C100.527 36.667 100.755 36.823 100.863 37.135L101.016 37.639C101.172 37.477 101.334 37.33 101.502 37.198C101.67 37.06 101.85 36.943 102.042 36.847C102.24 36.745 102.45 36.667 102.672 36.613C102.9 36.553 103.149 36.523 103.419 36.523C103.983 36.523 104.448 36.67 104.814 36.964C105.186 37.252 105.468 37.639 105.66 38.125C105.816 37.837 106.005 37.591 106.227 37.387C106.455 37.183 106.698 37.018 106.956 36.892C107.22 36.766 107.496 36.673 107.784 36.613C108.078 36.553 108.369 36.523 108.657 36.523C109.191 36.523 109.665 36.604 110.079 36.766C110.493 36.922 110.838 37.153 111.114 37.459C111.396 37.759 111.609 38.131 111.753 38.575C111.897 39.013 111.969 39.511 111.969 40.069V46H109.179V40.069C109.179 39.103 108.765 38.62 107.937 38.62C107.559 38.62 107.244 38.746 106.992 38.998C106.746 39.244 106.623 39.601 106.623 40.069V46H103.833V40.069C103.833 39.535 103.728 39.16 103.518 38.944C103.308 38.728 102.999 38.62 102.591 38.62C102.339 38.62 102.099 38.677 101.871 38.791C101.649 38.905 101.439 39.058 101.241 39.25V46H98.4509ZM116.551 43.462C116.761 43.69 116.989 43.852 117.235 43.948C117.481 44.044 117.739 44.092 118.009 44.092C118.267 44.092 118.504 44.041 118.72 43.939C118.936 43.837 119.122 43.675 119.278 43.453C119.44 43.225 119.566 42.931 119.656 42.571C119.746 42.211 119.791 41.773 119.791 41.257C119.791 40.765 119.755 40.351 119.683 40.015C119.611 39.679 119.509 39.409 119.377 39.205C119.251 38.995 119.098 38.845 118.918 38.755C118.738 38.665 118.537 38.62 118.315 38.62C117.907 38.62 117.571 38.695 117.307 38.845C117.043 38.995 116.791 39.214 116.551 39.502V43.462ZM116.38 37.819C116.746 37.429 117.16 37.111 117.622 36.865C118.09 36.613 118.645 36.487 119.287 36.487C119.773 36.487 120.223 36.595 120.637 36.811C121.051 37.027 121.408 37.339 121.708 37.747C122.008 38.155 122.242 38.656 122.41 39.25C122.584 39.838 122.671 40.507 122.671 41.257C122.671 41.959 122.572 42.607 122.374 43.201C122.182 43.795 121.909 44.311 121.555 44.749C121.207 45.187 120.787 45.529 120.295 45.775C119.809 46.021 119.269 46.144 118.675 46.144C118.189 46.144 117.781 46.075 117.451 45.937C117.121 45.799 116.821 45.613 116.551 45.379V48.961H113.761V36.667H115.489C115.837 36.667 116.065 36.823 116.173 37.135L116.38 37.819ZM126.725 38.107C127.013 37.603 127.343 37.207 127.715 36.919C128.093 36.631 128.525 36.487 129.011 36.487C129.431 36.487 129.773 36.586 130.037 36.784L129.857 38.836C129.827 38.968 129.776 39.058 129.704 39.106C129.638 39.154 129.545 39.178 129.425 39.178C129.377 39.178 129.314 39.175 129.236 39.169C129.158 39.163 129.077 39.157 128.993 39.151C128.909 39.139 128.822 39.13 128.732 39.124C128.648 39.112 128.57 39.106 128.498 39.106C128.09 39.106 127.763 39.214 127.517 39.43C127.277 39.646 127.073 39.946 126.905 40.33V46H124.115V36.667H125.771C125.909 36.667 126.023 36.679 126.113 36.703C126.209 36.727 126.287 36.766 126.347 36.82C126.413 36.868 126.461 36.934 126.491 37.018C126.527 37.102 126.557 37.204 126.581 37.324L126.725 38.107ZM135.132 36.523C135.84 36.523 136.485 36.634 137.067 36.856C137.649 37.078 138.147 37.396 138.561 37.81C138.981 38.224 139.305 38.728 139.533 39.322C139.767 39.91 139.884 40.573 139.884 41.311C139.884 42.055 139.767 42.727 139.533 43.327C139.305 43.921 138.981 44.428 138.561 44.848C138.147 45.262 137.649 45.583 137.067 45.811C136.485 46.033 135.84 46.144 135.132 46.144C134.418 46.144 133.767 46.033 133.179 45.811C132.597 45.583 132.093 45.262 131.667 44.848C131.247 44.428 130.92 43.921 130.686 43.327C130.458 42.727 130.344 42.055 130.344 41.311C130.344 40.573 130.458 39.91 130.686 39.322C130.92 38.728 131.247 38.224 131.667 37.81C132.093 37.396 132.597 37.078 133.179 36.856C133.767 36.634 134.418 36.523 135.132 36.523ZM135.132 44.074C135.774 44.074 136.245 43.849 136.545 43.399C136.851 42.943 137.004 42.253 137.004 41.329C137.004 40.405 136.851 39.718 136.545 39.268C136.245 38.818 135.774 38.593 135.132 38.593C134.472 38.593 133.989 38.818 133.683 39.268C133.377 39.718 133.224 40.405 133.224 41.329C133.224 42.253 133.377 42.943 133.683 43.399C133.989 43.849 134.472 44.074 135.132 44.074ZM149.765 36.667L146.147 46H143.609L139.991 36.667H142.313C142.511 36.667 142.676 36.715 142.808 36.811C142.946 36.901 143.039 37.015 143.087 37.153L144.383 41.338C144.497 41.68 144.596 42.013 144.68 42.337C144.77 42.661 144.848 42.985 144.914 43.309C145.046 42.661 145.229 42.004 145.463 41.338L146.813 37.153C146.861 37.015 146.951 36.901 147.083 36.811C147.215 36.715 147.371 36.667 147.551 36.667H149.765ZM156.164 40.213C156.164 39.991 156.134 39.775 156.074 39.565C156.02 39.355 155.927 39.169 155.795 39.007C155.669 38.839 155.501 38.704 155.291 38.602C155.081 38.5 154.826 38.449 154.526 38.449C153.998 38.449 153.584 38.602 153.284 38.908C152.984 39.208 152.786 39.643 152.69 40.213H156.164ZM152.654 41.833C152.744 42.613 152.981 43.18 153.365 43.534C153.749 43.882 154.244 44.056 154.85 44.056C155.174 44.056 155.453 44.017 155.687 43.939C155.921 43.861 156.128 43.774 156.308 43.678C156.494 43.582 156.662 43.495 156.812 43.417C156.968 43.339 157.13 43.3 157.298 43.3C157.52 43.3 157.688 43.381 157.802 43.543L158.612 44.542C158.324 44.872 158.012 45.142 157.676 45.352C157.346 45.556 157.004 45.718 156.65 45.838C156.302 45.952 155.951 46.03 155.597 46.072C155.249 46.12 154.916 46.144 154.598 46.144C153.944 46.144 153.329 46.039 152.753 45.829C152.183 45.613 151.682 45.295 151.25 44.875C150.824 44.455 150.485 43.933 150.233 43.309C149.987 42.685 149.864 41.959 149.864 41.131C149.864 40.507 149.969 39.916 150.179 39.358C150.395 38.8 150.701 38.311 151.097 37.891C151.499 37.471 151.982 37.138 152.546 36.892C153.116 36.646 153.758 36.523 154.472 36.523C155.09 36.523 155.654 36.619 156.164 36.811C156.68 37.003 157.121 37.282 157.487 37.648C157.859 38.014 158.147 38.464 158.351 38.998C158.561 39.526 158.666 40.126 158.666 40.798C158.666 41.008 158.657 41.179 158.639 41.311C158.621 41.443 158.588 41.548 158.54 41.626C158.492 41.704 158.426 41.758 158.342 41.788C158.264 41.818 158.162 41.833 158.036 41.833H152.654Z" fill="#2A2A2A"/>
<path d="M33.412 57.537C33.37 57.607 33.3233 57.6607 33.272 57.698C33.2253 57.7307 33.167 57.747 33.097 57.747C33.0177 57.747 32.9243 57.7073 32.817 57.628C32.7097 57.5487 32.5743 57.4623 32.411 57.369C32.2523 57.271 32.0587 57.1823 31.83 57.103C31.606 57.0237 31.333 56.984 31.011 56.984C30.7077 56.984 30.4393 57.026 30.206 57.11C29.9773 57.1893 29.7837 57.299 29.625 57.439C29.471 57.579 29.3543 57.7447 29.275 57.936C29.1957 58.1227 29.156 58.3257 29.156 58.545C29.156 58.825 29.2237 59.0583 29.359 59.245C29.499 59.427 29.681 59.5833 29.905 59.714C30.1337 59.8447 30.3903 59.959 30.675 60.057C30.9643 60.1503 31.2583 60.2483 31.557 60.351C31.8603 60.4537 32.1543 60.5703 32.439 60.701C32.7283 60.827 32.985 60.988 33.209 61.184C33.4377 61.38 33.6197 61.6203 33.755 61.905C33.895 62.1897 33.965 62.5397 33.965 62.955C33.965 63.3937 33.8903 63.8067 33.741 64.194C33.5917 64.5767 33.3723 64.9103 33.083 65.195C32.7983 65.4797 32.446 65.7037 32.026 65.867C31.6107 66.0303 31.137 66.112 30.605 66.112C29.9517 66.112 29.359 65.9953 28.827 65.762C28.295 65.524 27.84 65.2043 27.462 64.803L27.854 64.159C27.8913 64.1077 27.9357 64.0657 27.987 64.033C28.043 63.9957 28.1037 63.977 28.169 63.977C28.2297 63.977 28.2973 64.0027 28.372 64.054C28.4513 64.1007 28.54 64.1613 28.638 64.236C28.736 64.3107 28.848 64.3923 28.974 64.481C29.1 64.5697 29.2423 64.6513 29.401 64.726C29.5643 64.8007 29.7487 64.8637 29.954 64.915C30.1593 64.9617 30.3903 64.985 30.647 64.985C30.969 64.985 31.256 64.9407 31.508 64.852C31.76 64.7633 31.9723 64.6397 32.145 64.481C32.3223 64.3177 32.4577 64.124 32.551 63.9C32.6443 63.676 32.691 63.4263 32.691 63.151C32.691 62.8477 32.621 62.6003 32.481 62.409C32.3457 62.213 32.166 62.0497 31.942 61.919C31.718 61.7883 31.4613 61.6787 31.172 61.59C30.8827 61.4967 30.5887 61.4033 30.29 61.31C29.9913 61.212 29.6973 61.1 29.408 60.974C29.1187 60.848 28.862 60.6847 28.638 60.484C28.414 60.2833 28.232 60.0337 28.092 59.735C27.9567 59.4317 27.889 59.0583 27.889 58.615C27.889 58.2603 27.9567 57.9173 28.092 57.586C28.232 57.2547 28.4327 56.9607 28.694 56.704C28.96 56.4473 29.2843 56.242 29.667 56.088C30.0543 55.934 30.4977 55.857 30.997 55.857C31.557 55.857 32.0657 55.9457 32.523 56.123C32.985 56.3003 33.391 56.557 33.741 56.893L33.412 57.537ZM36.7185 59.854C37.0218 59.532 37.3578 59.2753 37.7265 59.084C38.0952 58.8927 38.5198 58.797 39.0005 58.797C39.3878 58.797 39.7285 58.8623 40.0225 58.993C40.3212 59.119 40.5685 59.301 40.7645 59.539C40.9652 59.7723 41.1168 60.0547 41.2195 60.386C41.3222 60.7173 41.3735 61.0837 41.3735 61.485V66H40.1205V61.485C40.1205 60.9483 39.9968 60.533 39.7495 60.239C39.5068 59.9403 39.1358 59.791 38.6365 59.791C38.2678 59.791 37.9225 59.8797 37.6005 60.057C37.2832 60.2343 36.9892 60.4747 36.7185 60.778V66H35.4655V55.689H36.7185V59.854ZM47.1152 62.808C46.5412 62.8267 46.0512 62.8733 45.6452 62.948C45.2438 63.018 44.9148 63.1113 44.6582 63.228C44.4062 63.3447 44.2218 63.4823 44.1052 63.641C43.9932 63.7997 43.9372 63.977 43.9372 64.173C43.9372 64.3597 43.9675 64.5207 44.0282 64.656C44.0888 64.7913 44.1705 64.9033 44.2732 64.992C44.3805 65.076 44.5042 65.139 44.6442 65.181C44.7888 65.2183 44.9428 65.237 45.1062 65.237C45.3255 65.237 45.5262 65.216 45.7082 65.174C45.8902 65.1273 46.0605 65.062 46.2192 64.978C46.3825 64.894 46.5365 64.7937 46.6812 64.677C46.8305 64.5603 46.9752 64.4273 47.1152 64.278V62.808ZM43.0902 59.91C43.4822 59.532 43.9045 59.2497 44.3572 59.063C44.8098 58.8763 45.3115 58.783 45.8622 58.783C46.2588 58.783 46.6112 58.8483 46.9192 58.979C47.2272 59.1097 47.4862 59.2917 47.6962 59.525C47.9062 59.7583 48.0648 60.0407 48.1722 60.372C48.2795 60.7033 48.3332 61.0673 48.3332 61.464V66H47.7802C47.6588 66 47.5655 65.9813 47.5002 65.944C47.4348 65.902 47.3835 65.8227 47.3462 65.706L47.2062 65.034C47.0195 65.2067 46.8375 65.3607 46.6602 65.496C46.4828 65.6267 46.2962 65.7387 46.1002 65.832C45.9042 65.9207 45.6942 65.9883 45.4702 66.035C45.2508 66.0863 45.0058 66.112 44.7352 66.112C44.4598 66.112 44.2008 66.0747 43.9582 66C43.7155 65.9207 43.5032 65.804 43.3212 65.65C43.1438 65.496 43.0015 65.3023 42.8942 65.069C42.7915 64.831 42.7402 64.551 42.7402 64.229C42.7402 63.949 42.8172 63.6807 42.9712 63.424C43.1252 63.1627 43.3748 62.9317 43.7202 62.731C44.0655 62.5303 44.5158 62.367 45.0712 62.241C45.6265 62.1103 46.3078 62.0357 47.1152 62.017V61.464C47.1152 60.9133 46.9962 60.498 46.7582 60.218C46.5202 59.9333 46.1725 59.791 45.7152 59.791C45.4072 59.791 45.1482 59.8307 44.9382 59.91C44.7328 59.9847 44.5532 60.071 44.3992 60.169C44.2498 60.2623 44.1192 60.3487 44.0072 60.428C43.8998 60.5027 43.7925 60.54 43.6852 60.54C43.6012 60.54 43.5288 60.519 43.4682 60.477C43.4075 60.4303 43.3562 60.3743 43.3142 60.309L43.0902 59.91ZM51.4141 60.33C51.6381 59.8447 51.9135 59.4667 52.2401 59.196C52.5668 58.9207 52.9658 58.783 53.4371 58.783C53.5865 58.783 53.7288 58.7993 53.8641 58.832C54.0041 58.8647 54.1278 58.916 54.2351 58.986L54.1441 59.917C54.1161 60.0337 54.0461 60.092 53.9341 60.092C53.8688 60.092 53.7731 60.078 53.6471 60.05C53.5211 60.022 53.3788 60.008 53.2201 60.008C52.9961 60.008 52.7955 60.0407 52.6181 60.106C52.4455 60.1713 52.2891 60.2693 52.1491 60.4C52.0138 60.526 51.8901 60.6847 51.7781 60.876C51.6708 61.0627 51.5728 61.2773 51.4841 61.52V66H50.2311V58.909H50.9451C51.0805 58.909 51.1738 58.9347 51.2251 58.986C51.2765 59.0373 51.3115 59.126 51.3301 59.252L51.4141 60.33ZM59.7896 61.681C59.7896 61.3917 59.7476 61.128 59.6636 60.89C59.5843 60.6473 59.4653 60.4397 59.3066 60.267C59.1526 60.0897 58.9636 59.9543 58.7396 59.861C58.5156 59.763 58.2613 59.714 57.9766 59.714C57.3793 59.714 56.9056 59.889 56.5556 60.239C56.2103 60.5843 55.9956 61.065 55.9116 61.681H59.7896ZM60.7976 65.006C60.6436 65.1927 60.4593 65.356 60.2446 65.496C60.03 65.6313 59.799 65.7433 59.5516 65.832C59.309 65.9207 59.057 65.986 58.7956 66.028C58.5343 66.0747 58.2753 66.098 58.0186 66.098C57.5286 66.098 57.076 66.0163 56.6606 65.853C56.25 65.685 55.893 65.4423 55.5896 65.125C55.291 64.803 55.0576 64.4063 54.8896 63.935C54.7216 63.4637 54.6376 62.9223 54.6376 62.311C54.6376 61.8163 54.7123 61.3543 54.8616 60.925C55.0156 60.4957 55.235 60.1247 55.5196 59.812C55.8043 59.4947 56.152 59.2473 56.5626 59.07C56.9733 58.888 57.4353 58.797 57.9486 58.797C58.3733 58.797 58.7653 58.8693 59.1246 59.014C59.4886 59.154 59.8013 59.3593 60.0626 59.63C60.3286 59.896 60.5363 60.2273 60.6856 60.624C60.835 61.016 60.9096 61.464 60.9096 61.968C60.9096 62.164 60.8886 62.2947 60.8466 62.36C60.8046 62.4253 60.7253 62.458 60.6086 62.458H55.8696C55.8836 62.906 55.9443 63.2957 56.0516 63.627C56.1636 63.9583 56.3176 64.236 56.5136 64.46C56.7096 64.6793 56.943 64.845 57.2136 64.957C57.4843 65.0643 57.7876 65.118 58.1236 65.118C58.4363 65.118 58.7046 65.083 58.9286 65.013C59.1573 64.9383 59.3533 64.859 59.5166 64.775C59.68 64.691 59.8153 64.614 59.9226 64.544C60.0346 64.4693 60.1303 64.432 60.2096 64.432C60.3123 64.432 60.3916 64.4717 60.4476 64.551L60.7976 65.006ZM71.7847 58.909L67.8297 68.093C67.7877 68.1863 67.734 68.261 67.6687 68.317C67.608 68.373 67.5124 68.401 67.3817 68.401H66.4577L67.7527 65.587L64.8267 58.909H65.9047C66.012 58.909 66.096 58.937 66.1567 58.993C66.222 59.0443 66.2664 59.1027 66.2897 59.168L68.1867 63.634C68.2614 63.83 68.3244 64.0353 68.3757 64.25C68.441 64.0307 68.511 63.823 68.5857 63.627L70.4267 59.168C70.4547 59.0933 70.5014 59.0327 70.5667 58.986C70.6367 58.9347 70.7137 58.909 70.7977 58.909H71.7847ZM75.683 58.797C76.201 58.797 76.6677 58.8833 77.083 59.056C77.4984 59.2287 77.853 59.4737 78.147 59.791C78.441 60.1083 78.665 60.4933 78.819 60.946C78.9777 61.394 79.057 61.8957 79.057 62.451C79.057 63.011 78.9777 63.515 78.819 63.963C78.665 64.411 78.441 64.7937 78.147 65.111C77.853 65.4283 77.4984 65.6733 77.083 65.846C76.6677 66.014 76.201 66.098 75.683 66.098C75.1604 66.098 74.689 66.014 74.269 65.846C73.8537 65.6733 73.499 65.4283 73.205 65.111C72.911 64.7937 72.6847 64.411 72.526 63.963C72.372 63.515 72.295 63.011 72.295 62.451C72.295 61.8957 72.372 61.394 72.526 60.946C72.6847 60.4933 72.911 60.1083 73.205 59.791C73.499 59.4737 73.8537 59.2287 74.269 59.056C74.689 58.8833 75.1604 58.797 75.683 58.797ZM75.683 65.125C76.383 65.125 76.9057 64.8917 77.251 64.425C77.5964 63.9537 77.769 63.298 77.769 62.458C77.769 61.6133 77.5964 60.9553 77.251 60.484C76.9057 60.0127 76.383 59.777 75.683 59.777C75.3284 59.777 75.018 59.8377 74.752 59.959C74.4907 60.0803 74.2714 60.2553 74.094 60.484C73.9214 60.7127 73.7907 60.995 73.702 61.331C73.618 61.6623 73.576 62.038 73.576 62.458C73.576 63.298 73.7487 63.9537 74.094 64.425C74.444 64.8917 74.9737 65.125 75.683 65.125ZM86.4684 58.909V66H85.7264C85.5491 66 85.4371 65.9137 85.3904 65.741L85.2924 64.978C84.9844 65.3187 84.6391 65.594 84.2564 65.804C83.8737 66.0093 83.4351 66.112 82.9404 66.112C82.5531 66.112 82.2101 66.049 81.9114 65.923C81.6174 65.7923 81.3701 65.6103 81.1694 65.377C80.9687 65.1437 80.8171 64.8613 80.7144 64.53C80.6164 64.1987 80.5674 63.8323 80.5674 63.431V58.909H81.8134V63.431C81.8134 63.9677 81.9347 64.383 82.1774 64.677C82.4247 64.971 82.8004 65.118 83.3044 65.118C83.6731 65.118 84.0161 65.0317 84.3334 64.859C84.6554 64.6817 84.9517 64.439 85.2224 64.131V58.909H86.4684ZM89.627 60.33C89.851 59.8447 90.1264 59.4667 90.453 59.196C90.7797 58.9207 91.1787 58.783 91.65 58.783C91.7994 58.783 91.9417 58.7993 92.077 58.832C92.217 58.8647 92.3407 58.916 92.448 58.986L92.357 59.917C92.329 60.0337 92.259 60.092 92.147 60.092C92.0817 60.092 91.986 60.078 91.86 60.05C91.734 60.022 91.5917 60.008 91.433 60.008C91.209 60.008 91.0084 60.0407 90.831 60.106C90.6584 60.1713 90.502 60.2693 90.362 60.4C90.2267 60.526 90.103 60.6847 89.991 60.876C89.8837 61.0627 89.7857 61.2773 89.697 61.52V66H88.444V58.909H89.158C89.2934 58.909 89.3867 58.9347 89.438 58.986C89.4894 59.0373 89.5244 59.126 89.543 59.252L89.627 60.33ZM102.559 58.909L99.6681 66H98.5481L95.6571 58.909H96.6721C96.7748 58.909 96.8588 58.9347 96.9241 58.986C96.9894 59.0373 97.0338 59.098 97.0571 59.168L98.8561 63.732C98.9121 63.9047 98.9611 64.0727 99.0031 64.236C99.0451 64.3993 99.0848 64.5627 99.1221 64.726C99.1594 64.5627 99.1991 64.3993 99.2411 64.236C99.2831 64.0727 99.3344 63.9047 99.3951 63.732L101.215 59.168C101.243 59.0933 101.29 59.0327 101.355 58.986C101.42 58.9347 101.497 58.909 101.586 58.909H102.559ZM107.394 62.808C106.82 62.8267 106.33 62.8733 105.924 62.948C105.523 63.018 105.194 63.1113 104.937 63.228C104.685 63.3447 104.501 63.4823 104.384 63.641C104.272 63.7997 104.216 63.977 104.216 64.173C104.216 64.3597 104.247 64.5207 104.307 64.656C104.368 64.7913 104.45 64.9033 104.552 64.992C104.66 65.076 104.783 65.139 104.923 65.181C105.068 65.2183 105.222 65.237 105.385 65.237C105.605 65.237 105.805 65.216 105.987 65.174C106.169 65.1273 106.34 65.062 106.498 64.978C106.662 64.894 106.816 64.7937 106.96 64.677C107.11 64.5603 107.254 64.4273 107.394 64.278V62.808ZM103.369 59.91C103.761 59.532 104.184 59.2497 104.636 59.063C105.089 58.8763 105.591 58.783 106.141 58.783C106.538 58.783 106.89 58.8483 107.198 58.979C107.506 59.1097 107.765 59.2917 107.975 59.525C108.185 59.7583 108.344 60.0407 108.451 60.372C108.559 60.7033 108.612 61.0673 108.612 61.464V66H108.059C107.938 66 107.845 65.9813 107.779 65.944C107.714 65.902 107.663 65.8227 107.625 65.706L107.485 65.034C107.299 65.2067 107.117 65.3607 106.939 65.496C106.762 65.6267 106.575 65.7387 106.379 65.832C106.183 65.9207 105.973 65.9883 105.749 66.035C105.53 66.0863 105.285 66.112 105.014 66.112C104.739 66.112 104.48 66.0747 104.237 66C103.995 65.9207 103.782 65.804 103.6 65.65C103.423 65.496 103.281 65.3023 103.173 65.069C103.071 64.831 103.019 64.551 103.019 64.229C103.019 63.949 103.096 63.6807 103.25 63.424C103.404 63.1627 103.654 62.9317 103.999 62.731C104.345 62.5303 104.795 62.367 105.35 62.241C105.906 62.1103 106.587 62.0357 107.394 62.017V61.464C107.394 60.9133 107.275 60.498 107.037 60.218C106.799 59.9333 106.452 59.791 105.994 59.791C105.686 59.791 105.427 59.8307 105.217 59.91C105.012 59.9847 104.832 60.071 104.678 60.169C104.529 60.2623 104.398 60.3487 104.286 60.428C104.179 60.5027 104.072 60.54 103.964 60.54C103.88 60.54 103.808 60.519 103.747 60.477C103.687 60.4303 103.635 60.3743 103.593 60.309L103.369 59.91ZM111.798 55.689V66H110.552V55.689H111.798ZM119.65 58.909V66H118.908C118.731 66 118.619 65.9137 118.572 65.741L118.474 64.978C118.166 65.3187 117.821 65.594 117.438 65.804C117.055 66.0093 116.617 66.112 116.122 66.112C115.735 66.112 115.392 66.049 115.093 65.923C114.799 65.7923 114.552 65.6103 114.351 65.377C114.15 65.1437 113.999 64.8613 113.896 64.53C113.798 64.1987 113.749 63.8323 113.749 63.431V58.909H114.995V63.431C114.995 63.9677 115.116 64.383 115.359 64.677C115.606 64.971 115.982 65.118 116.486 65.118C116.855 65.118 117.198 65.0317 117.515 64.859C117.837 64.6817 118.133 64.439 118.404 64.131V58.909H119.65ZM125.469 62.808C124.895 62.8267 124.405 62.8733 123.999 62.948C123.597 63.018 123.268 63.1113 123.012 63.228C122.76 63.3447 122.575 63.4823 122.459 63.641C122.347 63.7997 122.291 63.977 122.291 64.173C122.291 64.3597 122.321 64.5207 122.382 64.656C122.442 64.7913 122.524 64.9033 122.627 64.992C122.734 65.076 122.858 65.139 122.998 65.181C123.142 65.2183 123.296 65.237 123.46 65.237C123.679 65.237 123.88 65.216 124.062 65.174C124.244 65.1273 124.414 65.062 124.573 64.978C124.736 64.894 124.89 64.7937 125.035 64.677C125.184 64.5603 125.329 64.4273 125.469 64.278V62.808ZM121.444 59.91C121.836 59.532 122.258 59.2497 122.711 59.063C123.163 58.8763 123.665 58.783 124.216 58.783C124.612 58.783 124.965 58.8483 125.273 58.979C125.581 59.1097 125.84 59.2917 126.05 59.525C126.26 59.7583 126.418 60.0407 126.526 60.372C126.633 60.7033 126.687 61.0673 126.687 61.464V66H126.134C126.012 66 125.919 65.9813 125.854 65.944C125.788 65.902 125.737 65.8227 125.7 65.706L125.56 65.034C125.373 65.2067 125.191 65.3607 125.014 65.496C124.836 65.6267 124.65 65.7387 124.454 65.832C124.258 65.9207 124.048 65.9883 123.824 66.035C123.604 66.0863 123.359 66.112 123.089 66.112C122.813 66.112 122.554 66.0747 122.312 66C122.069 65.9207 121.857 65.804 121.675 65.65C121.497 65.496 121.355 65.3023 121.248 65.069C121.145 64.831 121.094 64.551 121.094 64.229C121.094 63.949 121.171 63.6807 121.325 63.424C121.479 63.1627 121.728 62.9317 122.074 62.731C122.419 62.5303 122.869 62.367 123.425 62.241C123.98 62.1103 124.661 62.0357 125.469 62.017V61.464C125.469 60.9133 125.35 60.498 125.112 60.218C124.874 59.9333 124.526 59.791 124.069 59.791C123.761 59.791 123.502 59.8307 123.292 59.91C123.086 59.9847 122.907 60.071 122.753 60.169C122.603 60.2623 122.473 60.3487 122.361 60.428C122.253 60.5027 122.146 60.54 122.039 60.54C121.955 60.54 121.882 60.519 121.822 60.477C121.761 60.4303 121.71 60.3743 121.668 60.309L121.444 59.91ZM129.838 64.292C130.066 64.6 130.316 64.817 130.587 64.943C130.862 65.069 131.163 65.132 131.49 65.132C132.157 65.132 132.668 64.8963 133.023 64.425C133.377 63.9537 133.555 63.2513 133.555 62.318C133.555 61.45 133.396 60.813 133.079 60.407C132.766 59.9963 132.318 59.791 131.735 59.791C131.329 59.791 130.974 59.8843 130.671 60.071C130.372 60.2577 130.094 60.5213 129.838 60.862V64.292ZM129.838 59.931C130.136 59.5857 130.472 59.3103 130.846 59.105C131.224 58.8997 131.658 58.797 132.148 58.797C132.563 58.797 132.936 58.8763 133.268 59.035C133.604 59.1937 133.888 59.4247 134.122 59.728C134.355 60.0267 134.532 60.3907 134.654 60.82C134.78 61.2493 134.843 61.7323 134.843 62.269C134.843 62.843 134.773 63.3657 134.633 63.837C134.493 64.3083 134.29 64.712 134.024 65.048C133.762 65.3793 133.443 65.6383 133.065 65.825C132.687 66.007 132.262 66.098 131.791 66.098C131.324 66.098 130.93 66.0117 130.608 65.839C130.29 65.6617 130.013 65.412 129.775 65.09L129.712 65.734C129.674 65.9113 129.567 66 129.39 66H128.585V55.689H129.838V59.931ZM137.707 55.689V66H136.461V55.689H137.707ZM144.473 61.681C144.473 61.3917 144.431 61.128 144.347 60.89C144.268 60.6473 144.149 60.4397 143.99 60.267C143.836 60.0897 143.647 59.9543 143.423 59.861C143.199 59.763 142.945 59.714 142.66 59.714C142.063 59.714 141.589 59.889 141.239 60.239C140.894 60.5843 140.679 61.065 140.595 61.681H144.473ZM145.481 65.006C145.327 65.1927 145.143 65.356 144.928 65.496C144.714 65.6313 144.483 65.7433 144.235 65.832C143.993 65.9207 143.741 65.986 143.479 66.028C143.218 66.0747 142.959 66.098 142.702 66.098C142.212 66.098 141.76 66.0163 141.344 65.853C140.934 65.685 140.577 65.4423 140.273 65.125C139.975 64.803 139.741 64.4063 139.573 63.935C139.405 63.4637 139.321 62.9223 139.321 62.311C139.321 61.8163 139.396 61.3543 139.545 60.925C139.699 60.4957 139.919 60.1247 140.203 59.812C140.488 59.4947 140.836 59.2473 141.246 59.07C141.657 58.888 142.119 58.797 142.632 58.797C143.057 58.797 143.449 58.8693 143.808 59.014C144.172 59.154 144.485 59.3593 144.746 59.63C145.012 59.896 145.22 60.2273 145.369 60.624C145.519 61.016 145.593 61.464 145.593 61.968C145.593 62.164 145.572 62.2947 145.53 62.36C145.488 62.4253 145.409 62.458 145.292 62.458H140.553C140.567 62.906 140.628 63.2957 140.735 63.627C140.847 63.9583 141.001 64.236 141.197 64.46C141.393 64.6793 141.627 64.845 141.897 64.957C142.168 65.0643 142.471 65.118 142.807 65.118C143.12 65.118 143.388 65.083 143.612 65.013C143.841 64.9383 144.037 64.859 144.2 64.775C144.364 64.691 144.499 64.614 144.606 64.544C144.718 64.4693 144.814 64.432 144.893 64.432C144.996 64.432 145.075 64.4717 145.131 64.551L145.481 65.006ZM151.168 66V59.973L150.384 59.882C150.286 59.8587 150.204 59.8237 150.139 59.777C150.078 59.7257 150.048 59.6533 150.048 59.56V59.049H151.168V58.363C151.168 57.957 151.224 57.5977 151.336 57.285C151.452 56.9677 151.616 56.7017 151.826 56.487C152.04 56.2677 152.297 56.102 152.596 55.99C152.894 55.878 153.23 55.822 153.604 55.822C153.921 55.822 154.213 55.8687 154.479 55.962L154.451 56.585C154.441 56.697 154.378 56.7577 154.262 56.767C154.15 56.7763 153.998 56.781 153.807 56.781C153.592 56.781 153.396 56.809 153.219 56.865C153.046 56.921 152.897 57.012 152.771 57.138C152.645 57.264 152.547 57.4297 152.477 57.635C152.411 57.8403 152.379 58.0947 152.379 58.398V59.049H154.423V59.952H152.421V66H151.168ZM160.128 61.681C160.128 61.3917 160.086 61.128 160.002 60.89C159.922 60.6473 159.803 60.4397 159.645 60.267C159.491 60.0897 159.302 59.9543 159.078 59.861C158.854 59.763 158.599 59.714 158.315 59.714C157.717 59.714 157.244 59.889 156.894 60.239C156.548 60.5843 156.334 61.065 156.25 61.681H160.128ZM161.136 65.006C160.982 65.1927 160.797 65.356 160.583 65.496C160.368 65.6313 160.137 65.7433 159.89 65.832C159.647 65.9207 159.395 65.986 159.134 66.028C158.872 66.0747 158.613 66.098 158.357 66.098C157.867 66.098 157.414 66.0163 156.999 65.853C156.588 65.685 156.231 65.4423 155.928 65.125C155.629 64.803 155.396 64.4063 155.228 63.935C155.06 63.4637 154.976 62.9223 154.976 62.311C154.976 61.8163 155.05 61.3543 155.2 60.925C155.354 60.4957 155.573 60.1247 155.858 59.812C156.142 59.4947 156.49 59.2473 156.901 59.07C157.311 58.888 157.773 58.797 158.287 58.797C158.711 58.797 159.103 58.8693 159.463 59.014C159.827 59.154 160.139 59.3593 160.401 59.63C160.667 59.896 160.874 60.2273 161.024 60.624C161.173 61.016 161.248 61.464 161.248 61.968C161.248 62.164 161.227 62.2947 161.185 62.36C161.143 62.4253 161.063 62.458 160.947 62.458H156.208C156.222 62.906 156.282 63.2957 156.39 63.627C156.502 63.9583 156.656 64.236 156.852 64.46C157.048 64.6793 157.281 64.845 157.552 64.957C157.822 65.0643 158.126 65.118 158.462 65.118C158.774 65.118 159.043 65.083 159.267 65.013C159.495 64.9383 159.691 64.859 159.855 64.775C160.018 64.691 160.153 64.614 160.261 64.544C160.373 64.4693 160.468 64.432 160.548 64.432C160.65 64.432 160.73 64.4717 160.786 64.551L161.136 65.006ZM167.524 61.681C167.524 61.3917 167.482 61.128 167.398 60.89C167.319 60.6473 167.2 60.4397 167.041 60.267C166.887 60.0897 166.698 59.9543 166.474 59.861C166.25 59.763 165.996 59.714 165.711 59.714C165.114 59.714 164.64 59.889 164.29 60.239C163.945 60.5843 163.73 61.065 163.646 61.681H167.524ZM168.532 65.006C168.378 65.1927 168.194 65.356 167.979 65.496C167.764 65.6313 167.533 65.7433 167.286 65.832C167.043 65.9207 166.791 65.986 166.53 66.028C166.269 66.0747 166.01 66.098 165.753 66.098C165.263 66.098 164.81 66.0163 164.395 65.853C163.984 65.685 163.627 65.4423 163.324 65.125C163.025 64.803 162.792 64.4063 162.624 63.935C162.456 63.4637 162.372 62.9223 162.372 62.311C162.372 61.8163 162.447 61.3543 162.596 60.925C162.75 60.4957 162.969 60.1247 163.254 59.812C163.539 59.4947 163.886 59.2473 164.297 59.07C164.708 58.888 165.17 58.797 165.683 58.797C166.108 58.797 166.5 58.8693 166.859 59.014C167.223 59.154 167.536 59.3593 167.797 59.63C168.063 59.896 168.271 60.2273 168.42 60.624C168.569 61.016 168.644 61.464 168.644 61.968C168.644 62.164 168.623 62.2947 168.581 62.36C168.539 62.4253 168.46 62.458 168.343 62.458H163.604C163.618 62.906 163.679 63.2957 163.786 63.627C163.898 63.9583 164.052 64.236 164.248 64.46C164.444 64.6793 164.677 64.845 164.948 64.957C165.219 65.0643 165.522 65.118 165.858 65.118C166.171 65.118 166.439 65.083 166.663 65.013C166.892 64.9383 167.088 64.859 167.251 64.775C167.414 64.691 167.55 64.614 167.657 64.544C167.769 64.4693 167.865 64.432 167.944 64.432C168.047 64.432 168.126 64.4717 168.182 64.551L168.532 65.006ZM174.795 60.596C174.561 60.2833 174.309 60.0663 174.039 59.945C173.768 59.819 173.465 59.756 173.129 59.756C172.471 59.756 171.964 59.9917 171.61 60.463C171.255 60.9343 171.078 61.6063 171.078 62.479C171.078 62.941 171.117 63.3377 171.197 63.669C171.276 63.9957 171.393 64.2663 171.547 64.481C171.701 64.691 171.89 64.845 172.114 64.943C172.338 65.041 172.592 65.09 172.877 65.09C173.287 65.09 173.644 64.9967 173.948 64.81C174.256 64.6233 174.538 64.3597 174.795 64.019V60.596ZM176.041 55.689V66H175.299C175.121 66 175.009 65.9137 174.963 65.741L174.851 64.88C174.547 65.244 174.202 65.538 173.815 65.762C173.427 65.986 172.979 66.098 172.471 66.098C172.065 66.098 171.696 66.021 171.365 65.867C171.033 65.7083 170.751 65.4773 170.518 65.174C170.284 64.8707 170.105 64.4927 169.979 64.04C169.853 63.5873 169.79 63.067 169.79 62.479C169.79 61.9563 169.86 61.471 170 61.023C170.14 60.5703 170.34 60.1783 170.602 59.847C170.863 59.5157 171.183 59.2567 171.561 59.07C171.943 58.8787 172.373 58.783 172.849 58.783C173.283 58.783 173.654 58.8577 173.962 59.007C174.274 59.1517 174.552 59.3547 174.795 59.616V55.689H176.041ZM179.261 64.292C179.49 64.6 179.74 64.817 180.01 64.943C180.286 65.069 180.587 65.132 180.913 65.132C181.581 65.132 182.092 64.8963 182.446 64.425C182.801 63.9537 182.978 63.2513 182.978 62.318C182.978 61.45 182.82 60.813 182.502 60.407C182.19 59.9963 181.742 59.791 181.158 59.791C180.752 59.791 180.398 59.8843 180.094 60.071C179.796 60.2577 179.518 60.5213 179.261 60.862V64.292ZM179.261 59.931C179.56 59.5857 179.896 59.3103 180.269 59.105C180.647 58.8997 181.081 58.797 181.571 58.797C181.987 58.797 182.36 58.8763 182.691 59.035C183.027 59.1937 183.312 59.4247 183.545 59.728C183.779 60.0267 183.956 60.3907 184.077 60.82C184.203 61.2493 184.266 61.7323 184.266 62.269C184.266 62.843 184.196 63.3657 184.056 63.837C183.916 64.3083 183.713 64.712 183.447 65.048C183.186 65.3793 182.866 65.6383 182.488 65.825C182.11 66.007 181.686 66.098 181.214 66.098C180.748 66.098 180.353 66.0117 180.031 65.839C179.714 65.6617 179.436 65.412 179.198 65.09L179.135 65.734C179.098 65.9113 178.991 66 178.813 66H178.008V55.689H179.261V59.931ZM189.685 62.808C189.111 62.8267 188.621 62.8733 188.215 62.948C187.814 63.018 187.485 63.1113 187.228 63.228C186.976 63.3447 186.792 63.4823 186.675 63.641C186.563 63.7997 186.507 63.977 186.507 64.173C186.507 64.3597 186.538 64.5207 186.598 64.656C186.659 64.7913 186.741 64.9033 186.843 64.992C186.951 65.076 187.074 65.139 187.214 65.181C187.359 65.2183 187.513 65.237 187.676 65.237C187.896 65.237 188.096 65.216 188.278 65.174C188.46 65.1273 188.631 65.062 188.789 64.978C188.953 64.894 189.107 64.7937 189.251 64.677C189.401 64.5603 189.545 64.4273 189.685 64.278V62.808ZM185.66 59.91C186.052 59.532 186.475 59.2497 186.927 59.063C187.38 58.8763 187.882 58.783 188.432 58.783C188.829 58.783 189.181 58.8483 189.489 58.979C189.797 59.1097 190.056 59.2917 190.266 59.525C190.476 59.7583 190.635 60.0407 190.742 60.372C190.85 60.7033 190.903 61.0673 190.903 61.464V66H190.35C190.229 66 190.136 65.9813 190.07 65.944C190.005 65.902 189.954 65.8227 189.916 65.706L189.776 65.034C189.59 65.2067 189.408 65.3607 189.23 65.496C189.053 65.6267 188.866 65.7387 188.67 65.832C188.474 65.9207 188.264 65.9883 188.04 66.035C187.821 66.0863 187.576 66.112 187.305 66.112C187.03 66.112 186.771 66.0747 186.528 66C186.286 65.9207 186.073 65.804 185.891 65.65C185.714 65.496 185.572 65.3023 185.464 65.069C185.362 64.831 185.31 64.551 185.31 64.229C185.31 63.949 185.387 63.6807 185.541 63.424C185.695 63.1627 185.945 62.9317 186.29 62.731C186.636 62.5303 187.086 62.367 187.641 62.241C188.197 62.1103 188.878 62.0357 189.685 62.017V61.464C189.685 60.9133 189.566 60.498 189.328 60.218C189.09 59.9333 188.743 59.791 188.285 59.791C187.977 59.791 187.718 59.8307 187.508 59.91C187.303 59.9847 187.123 60.071 186.969 60.169C186.82 60.2623 186.689 60.3487 186.577 60.428C186.47 60.5027 186.363 60.54 186.255 60.54C186.171 60.54 186.099 60.519 186.038 60.477C185.978 60.4303 185.926 60.3743 185.884 60.309L185.66 59.91ZM197.736 60.169C197.699 60.2203 197.662 60.26 197.624 60.288C197.587 60.316 197.536 60.33 197.47 60.33C197.4 60.33 197.323 60.302 197.239 60.246C197.155 60.1853 197.05 60.12 196.924 60.05C196.803 59.98 196.651 59.917 196.469 59.861C196.292 59.8003 196.073 59.77 195.811 59.77C195.461 59.77 195.153 59.833 194.887 59.959C194.621 60.0803 194.397 60.2577 194.215 60.491C194.038 60.7243 193.903 61.0067 193.809 61.338C193.721 61.6693 193.676 62.0403 193.676 62.451C193.676 62.8803 193.725 63.263 193.823 63.599C193.921 63.9303 194.059 64.2103 194.236 64.439C194.418 64.663 194.635 64.8357 194.887 64.957C195.144 65.0737 195.431 65.132 195.748 65.132C196.052 65.132 196.301 65.097 196.497 65.027C196.693 64.9523 196.854 64.8707 196.98 64.782C197.111 64.6933 197.218 64.614 197.302 64.544C197.391 64.4693 197.477 64.432 197.561 64.432C197.664 64.432 197.743 64.4717 197.799 64.551L198.149 65.006C197.995 65.1973 197.82 65.3607 197.624 65.496C197.428 65.6313 197.216 65.7457 196.987 65.839C196.763 65.9277 196.528 65.993 196.28 66.035C196.033 66.077 195.781 66.098 195.524 66.098C195.081 66.098 194.668 66.0163 194.285 65.853C193.907 65.6897 193.578 65.454 193.298 65.146C193.018 64.8333 192.799 64.4507 192.64 63.998C192.482 63.5453 192.402 63.0297 192.402 62.451C192.402 61.9237 192.475 61.436 192.619 60.988C192.769 60.54 192.983 60.155 193.263 59.833C193.548 59.5063 193.896 59.252 194.306 59.07C194.722 58.888 195.198 58.797 195.734 58.797C196.234 58.797 196.672 58.8787 197.05 59.042C197.433 59.2007 197.771 59.427 198.065 59.721L197.736 60.169ZM200.74 55.689V61.758H201.062C201.155 61.758 201.232 61.7463 201.293 61.723C201.358 61.695 201.426 61.6413 201.496 61.562L203.736 59.161C203.801 59.0817 203.869 59.021 203.939 58.979C204.014 58.9323 204.112 58.909 204.233 58.909H205.36L202.749 61.688C202.623 61.8467 202.488 61.9703 202.343 62.059C202.427 62.115 202.502 62.1803 202.567 62.255C202.637 62.325 202.702 62.4067 202.763 62.5L205.535 66H204.422C204.315 66 204.221 65.9837 204.142 65.951C204.067 65.9137 204.002 65.8483 203.946 65.755L201.615 62.85C201.545 62.752 201.475 62.689 201.405 62.661C201.34 62.6283 201.237 62.612 201.097 62.612H200.74V66H199.487V55.689H200.74ZM206.386 65.23C206.386 65.1087 206.407 64.9943 206.449 64.887C206.496 64.7797 206.557 64.6863 206.631 64.607C206.711 64.5277 206.804 64.4647 206.911 64.418C207.019 64.3713 207.133 64.348 207.254 64.348C207.376 64.348 207.49 64.3713 207.597 64.418C207.705 64.4647 207.798 64.5277 207.877 64.607C207.957 64.6863 208.02 64.7797 208.066 64.887C208.113 64.9943 208.136 65.1087 208.136 65.23C208.136 65.356 208.113 65.4727 208.066 65.58C208.02 65.6827 207.957 65.7737 207.877 65.853C207.798 65.9323 207.705 65.993 207.597 66.035C207.49 66.0817 207.376 66.105 207.254 66.105C207.133 66.105 207.019 66.0817 206.911 66.035C206.804 65.993 206.711 65.9323 206.631 65.853C206.557 65.7737 206.496 65.6827 206.449 65.58C206.407 65.4727 206.386 65.356 206.386 65.23Z" fill="#333333"/>
<rect x="27" y="77" width="72" height="26" rx="13" fill="#3F2C2C"/>
<rect x="27" y="77" width="72" height="26" rx="13" stroke="white" stroke-opacity="0.44"/>
<path d="M53.425 86.77L51.18 94H49.965L48.385 89.06C48.3417 88.94 48.3017 88.7933 48.265 88.62C48.245 88.7033 48.225 88.7817 48.205 88.855C48.185 88.9283 48.1633 88.9967 48.14 89.06L46.545 94H45.325L43.085 86.77H44.21C44.3267 86.77 44.4233 86.7983 44.5 86.855C44.58 86.9083 44.6333 86.9817 44.66 87.075L45.89 91.4C45.9167 91.5067 45.9417 91.6233 45.965 91.75C45.9917 91.8733 46.0183 92.0033 46.045 92.14C46.0717 92 46.1 91.8683 46.13 91.745C46.1633 91.6217 46.1983 91.5067 46.235 91.4L47.655 87.075C47.6817 86.9983 47.7333 86.9283 47.81 86.865C47.89 86.8017 47.9867 86.77 48.1 86.77H48.495C48.6117 86.77 48.7067 86.7983 48.78 86.855C48.8533 86.9117 48.9083 86.985 48.945 87.075L50.36 91.4C50.43 91.6067 50.4933 91.845 50.55 92.115C50.5933 91.8517 50.6417 91.6133 50.695 91.4L51.925 87.075C51.945 86.9917 51.995 86.92 52.075 86.86C52.1583 86.8 52.2567 86.77 52.37 86.77H53.425ZM54.8238 89.76C54.9838 89.4533 55.1738 89.2133 55.3938 89.04C55.6138 88.8633 55.8738 88.775 56.1738 88.775C56.4105 88.775 56.6005 88.8267 56.7438 88.93L56.6638 89.855C56.6472 89.915 56.6222 89.9583 56.5888 89.985C56.5588 90.0083 56.5172 90.02 56.4638 90.02C56.4138 90.02 56.3388 90.0117 56.2388 89.995C56.1422 89.9783 56.0472 89.97 55.9538 89.97C55.8172 89.97 55.6955 89.99 55.5888 90.03C55.4822 90.07 55.3855 90.1283 55.2988 90.205C55.2155 90.2783 55.1405 90.3683 55.0738 90.475C55.0105 90.5817 54.9505 90.7033 54.8938 90.84V94H53.6588V88.87H54.3838C54.5105 88.87 54.5988 88.8933 54.6488 88.94C54.6988 88.9833 54.7322 89.0633 54.7488 89.18L54.8238 89.76ZM58.6693 88.87V94H57.4293V88.87H58.6693ZM58.8393 87.375C58.8393 87.4817 58.8176 87.5817 58.7743 87.675C58.731 87.7683 58.6726 87.85 58.5993 87.92C58.5293 87.99 58.446 88.0467 58.3493 88.09C58.2526 88.13 58.1493 88.15 58.0393 88.15C57.9326 88.15 57.831 88.13 57.7343 88.09C57.641 88.0467 57.5593 87.99 57.4893 87.92C57.4193 87.85 57.3626 87.7683 57.3193 87.675C57.2793 87.5817 57.2593 87.4817 57.2593 87.375C57.2593 87.265 57.2793 87.1617 57.3193 87.065C57.3626 86.9683 57.4193 86.885 57.4893 86.815C57.5593 86.745 57.641 86.69 57.7343 86.65C57.831 86.6067 57.9326 86.585 58.0393 86.585C58.1493 86.585 58.2526 86.6067 58.3493 86.65C58.446 86.69 58.5293 86.745 58.5993 86.815C58.6726 86.885 58.731 86.9683 58.7743 87.065C58.8176 87.1617 58.8393 87.265 58.8393 87.375ZM61.6384 94.08C61.1917 94.08 60.8484 93.955 60.6084 93.705C60.3717 93.4517 60.2534 93.1033 60.2534 92.66V89.795H59.7284C59.6617 89.795 59.605 89.7733 59.5584 89.73C59.5117 89.6867 59.4884 89.6217 59.4884 89.535V89.045L60.3134 88.91L60.5734 87.51C60.59 87.4433 60.6217 87.3917 60.6684 87.355C60.715 87.3183 60.775 87.3 60.8484 87.3H61.4884V88.915H62.8584V89.795H61.4884V92.575C61.4884 92.735 61.5267 92.86 61.6034 92.95C61.6834 93.04 61.7917 93.085 61.9284 93.085C62.005 93.085 62.0684 93.0767 62.1184 93.06C62.1717 93.04 62.2167 93.02 62.2534 93C62.2934 92.98 62.3284 92.9617 62.3584 92.945C62.3884 92.925 62.4184 92.915 62.4484 92.915C62.485 92.915 62.515 92.925 62.5384 92.945C62.5617 92.9617 62.5867 92.9883 62.6134 93.025L62.9834 93.625C62.8034 93.775 62.5967 93.8883 62.3634 93.965C62.13 94.0417 61.8884 94.08 61.6384 94.08ZM66.915 90.845C66.915 90.685 66.8917 90.535 66.845 90.395C66.8017 90.2517 66.735 90.1267 66.645 90.02C66.555 89.9133 66.44 89.83 66.3 89.77C66.1633 89.7067 66.0033 89.675 65.82 89.675C65.4633 89.675 65.1817 89.7767 64.975 89.98C64.7717 90.1833 64.6417 90.4717 64.585 90.845H66.915ZM64.56 91.59C64.58 91.8533 64.6267 92.0817 64.7 92.275C64.7733 92.465 64.87 92.6233 64.99 92.75C65.11 92.8733 65.2517 92.9667 65.415 93.03C65.5817 93.09 65.765 93.12 65.965 93.12C66.165 93.12 66.3367 93.0967 66.48 93.05C66.6267 93.0033 66.7533 92.9517 66.86 92.895C66.97 92.8383 67.065 92.7867 67.145 92.74C67.2283 92.6933 67.3083 92.67 67.385 92.67C67.4883 92.67 67.565 92.7083 67.615 92.785L67.97 93.235C67.8333 93.395 67.68 93.53 67.51 93.64C67.34 93.7467 67.1617 93.8333 66.975 93.9C66.7917 93.9633 66.6033 94.0083 66.41 94.035C66.22 94.0617 66.035 94.075 65.855 94.075C65.4983 94.075 65.1667 94.0167 64.86 93.9C64.5533 93.78 64.2867 93.605 64.06 93.375C63.8333 93.1417 63.655 92.855 63.525 92.515C63.395 92.1717 63.33 91.775 63.33 91.325C63.33 90.975 63.3867 90.6467 63.5 90.34C63.6133 90.03 63.775 89.7617 63.985 89.535C64.1983 89.305 64.4567 89.1233 64.76 88.99C65.0667 88.8567 65.4117 88.79 65.795 88.79C66.1183 88.79 66.4167 88.8417 66.69 88.945C66.9633 89.0483 67.1983 89.2 67.395 89.4C67.5917 89.5967 67.745 89.84 67.855 90.13C67.9683 90.4167 68.025 90.745 68.025 91.115C68.025 91.3017 68.005 91.4283 67.965 91.495C67.925 91.5583 67.8483 91.59 67.735 91.59H64.56ZM74.4884 92.915C74.7484 92.915 74.9801 92.8717 75.1834 92.785C75.3901 92.6983 75.5634 92.5767 75.7034 92.42C75.8434 92.2633 75.9501 92.0733 76.0234 91.85C76.1001 91.6267 76.1384 91.3767 76.1384 91.1V86.77H77.4834V91.1C77.4834 91.53 77.4134 91.9283 77.2734 92.295C77.1368 92.6583 76.9384 92.9733 76.6784 93.24C76.4218 93.5033 76.1084 93.71 75.7384 93.86C75.3684 94.0067 74.9518 94.08 74.4884 94.08C74.0218 94.08 73.6034 94.0067 73.2334 93.86C72.8634 93.71 72.5484 93.5033 72.2884 93.24C72.0318 92.9733 71.8334 92.6583 71.6934 92.295C71.5568 91.9283 71.4884 91.53 71.4884 91.1V86.77H72.8334V91.095C72.8334 91.3717 72.8701 91.6217 72.9434 91.845C73.0201 92.0683 73.1284 92.26 73.2684 92.42C73.4118 92.5767 73.5851 92.6983 73.7884 92.785C73.9951 92.8717 74.2284 92.915 74.4884 92.915ZM81.7205 89.87C81.6871 89.9233 81.6521 89.9617 81.6155 89.985C81.5788 90.005 81.5321 90.015 81.4755 90.015C81.4155 90.015 81.3505 89.9983 81.2805 89.965C81.2138 89.9317 81.1355 89.895 81.0455 89.855C80.9555 89.8117 80.8521 89.7733 80.7355 89.74C80.6221 89.7067 80.4871 89.69 80.3305 89.69C80.0871 89.69 79.8955 89.7417 79.7555 89.845C79.6188 89.9483 79.5505 90.0833 79.5505 90.25C79.5505 90.36 79.5855 90.4533 79.6555 90.53C79.7288 90.6033 79.8238 90.6683 79.9405 90.725C80.0605 90.7817 80.1955 90.8333 80.3455 90.88C80.4955 90.9233 80.6471 90.9717 80.8005 91.025C80.9571 91.0783 81.1105 91.14 81.2605 91.21C81.4105 91.2767 81.5438 91.3633 81.6605 91.47C81.7805 91.5733 81.8755 91.6983 81.9455 91.845C82.0188 91.9917 82.0555 92.1683 82.0555 92.375C82.0555 92.6217 82.0105 92.85 81.9205 93.06C81.8338 93.2667 81.7038 93.4467 81.5305 93.6C81.3571 93.75 81.1421 93.8683 80.8855 93.955C80.6321 94.0383 80.3388 94.08 80.0055 94.08C79.8288 94.08 79.6555 94.0633 79.4855 94.03C79.3188 94 79.1571 93.9567 79.0005 93.9C78.8471 93.8433 78.7038 93.7767 78.5705 93.7C78.4405 93.6233 78.3255 93.54 78.2255 93.45L78.5105 92.98C78.5471 92.9233 78.5905 92.88 78.6405 92.85C78.6905 92.82 78.7538 92.805 78.8305 92.805C78.9071 92.805 78.9788 92.8267 79.0455 92.87C79.1155 92.9133 79.1955 92.96 79.2855 93.01C79.3755 93.06 79.4805 93.1067 79.6005 93.15C79.7238 93.1933 79.8788 93.215 80.0655 93.215C80.2121 93.215 80.3371 93.1983 80.4405 93.165C80.5471 93.1283 80.6338 93.0817 80.7005 93.025C80.7705 92.9683 80.8205 92.9033 80.8505 92.83C80.8838 92.7533 80.9005 92.675 80.9005 92.595C80.9005 92.475 80.8638 92.3767 80.7905 92.3C80.7205 92.2233 80.6255 92.1567 80.5055 92.1C80.3888 92.0433 80.2538 91.9933 80.1005 91.95C79.9505 91.9033 79.7955 91.8533 79.6355 91.8C79.4788 91.7467 79.3238 91.685 79.1705 91.615C79.0205 91.5417 78.8855 91.45 78.7655 91.34C78.6488 91.23 78.5538 91.095 78.4805 90.935C78.4105 90.775 78.3755 90.5817 78.3755 90.355C78.3755 90.145 78.4171 89.945 78.5005 89.755C78.5838 89.565 78.7055 89.4 78.8655 89.26C79.0288 89.1167 79.2305 89.0033 79.4705 88.92C79.7138 88.8333 79.9938 88.79 80.3105 88.79C80.6638 88.79 80.9855 88.8483 81.2755 88.965C81.5655 89.0817 81.8071 89.235 82.0005 89.425L81.7205 89.87Z" fill="white"/>
<g clip-path="url(#clip1_3599_4260)">
<path d="M201.081 120.64C201.842 120.475 202.623 120.544 203.386 120.656C204.064 120.758 204.739 120.893 205.424 120.94C206.089 120.986 206.754 120.93 207.398 120.757C208.635 120.423 209.758 119.696 210.553 118.689C211.556 118.557 212.569 118.574 213.559 118.73C213.094 118.859 212.646 119.047 212.225 119.285C211.298 119.808 210.515 120.574 209.978 121.495C209.469 122.367 209.181 123.366 209.148 124.376C209.148 124.418 209.191 124.456 209.232 124.443C209.752 124.279 210.24 124.032 210.686 123.72C211.49 123.157 212.145 122.412 212.683 121.596C213.254 120.731 213.698 119.788 214.126 118.845C214.128 118.842 214.129 118.839 214.128 118.836C215.464 119.122 216.746 119.665 217.889 120.439C218.003 120.541 218.119 120.644 218.236 120.745C218.815 121.241 219.421 121.703 220.05 122.13C219.535 121.999 219.009 121.915 218.478 121.882C217.228 121.803 215.964 121.991 214.794 122.442C213.629 122.894 212.564 123.588 211.687 124.479C211.649 124.519 211.673 124.596 211.733 124.595C212.502 124.58 213.27 124.564 214.04 124.549C214.719 124.535 215.4 124.531 216.078 124.499C216.737 124.468 217.399 124.399 218.033 124.21C219.007 123.919 219.933 123.3 220.36 122.352C220.376 122.356 220.391 122.361 220.408 122.365C221.703 123.202 223.095 123.889 224.55 124.409C224.713 124.467 224.788 124.207 224.626 124.149C223.346 123.693 222.117 123.104 220.958 122.395C220.84 122.323 220.723 122.249 220.608 122.175C220.699 121.449 220.786 120.723 220.821 119.992C220.854 119.306 220.84 118.615 220.74 117.933C220.638 117.25 220.434 116.593 220.183 115.952C219.683 114.672 219.017 113.432 218.835 112.051C218.826 111.98 218.726 111.991 218.705 112.049C218.444 112.806 218.272 113.593 218.188 114.392C218.039 115.815 218.175 117.269 218.573 118.644C218.901 119.781 219.415 120.861 220.091 121.83C219.393 121.351 218.727 120.826 218.096 120.261C218.089 120.253 218.082 120.243 218.072 120.236L218.057 120.227C217.128 119.389 216.28 118.463 215.527 117.463C215.252 117.097 214.992 116.721 214.744 116.338C215.078 115.772 215.358 115.175 215.577 114.555C216.009 113.327 216.214 112.018 216.183 110.718C216.152 109.417 215.884 108.127 215.38 106.928C215.362 106.884 215.282 106.882 215.263 106.927C214.972 107.587 214.731 108.267 214.542 108.963C214.208 110.193 214.04 111.468 214.036 112.742C214.034 113.724 214.133 114.703 214.328 115.663C213.908 114.952 213.533 114.216 213.205 113.458C213.055 112.827 212.946 112.186 212.841 111.546C212.609 110.141 212.382 108.706 211.753 107.413C211.235 106.351 210.42 105.389 209.325 104.898C209.273 104.874 209.213 104.911 209.225 104.972C209.37 105.718 209.517 106.464 209.69 107.204C209.98 108.45 210.351 109.686 210.916 110.837C211.435 111.898 212.121 112.886 213.006 113.673C213.151 114.005 213.304 114.332 213.468 114.656C213.674 115.062 213.893 115.461 214.126 115.851C213.811 115.604 213.483 115.375 213.14 115.168C212.131 114.556 211.015 114.118 209.859 113.876C208.704 113.636 207.512 113.591 206.344 113.756C206.281 113.765 206.285 113.849 206.326 113.879L208.28 115.342C208.774 115.71 209.255 116.093 209.812 116.368C210.304 116.612 210.829 116.786 211.369 116.887C212.446 117.087 213.574 117.003 214.597 116.607C215.304 117.678 216.113 118.682 217.013 119.599C216.718 119.442 216.417 119.297 216.108 119.168C215.421 118.879 214.709 118.668 213.984 118.529C212.832 118.309 211.648 118.279 210.486 118.436C209.829 118.134 209.133 117.922 208.42 117.807C207.07 117.588 205.671 117.712 204.385 118.185C203.086 118.662 201.915 119.472 201.018 120.527C200.976 120.576 201.012 120.656 201.081 120.64Z" fill="#D2D2F7"/>
<path d="M300.207 128.414C299.447 128.248 298.666 128.317 297.903 128.43C297.225 128.531 296.55 128.667 295.864 128.713C295.2 128.76 294.535 128.703 293.89 128.53C292.654 128.197 291.53 127.469 290.735 126.463C289.733 126.33 288.72 126.347 287.73 126.504C288.195 126.633 288.642 126.821 289.063 127.059C289.991 127.582 290.774 128.347 291.31 129.268C291.82 130.141 292.108 131.139 292.14 132.15C292.141 132.192 292.098 132.23 292.057 132.217C291.537 132.053 291.048 131.806 290.603 131.493C289.799 130.93 289.143 130.185 288.606 129.37C288.035 128.504 287.591 127.562 287.163 126.619C287.161 126.615 287.16 126.612 287.161 126.61C285.825 126.896 284.543 127.438 283.4 128.212C283.285 128.314 283.169 128.418 283.052 128.518C282.474 129.015 281.868 129.476 281.238 129.903C281.754 129.772 282.28 129.689 282.81 129.655C284.06 129.576 285.324 129.765 286.494 130.216C287.66 130.667 288.724 131.362 289.601 132.252C289.64 132.292 289.615 132.369 289.556 132.369C288.787 132.353 288.018 132.337 287.248 132.323C286.57 132.308 285.889 132.305 285.211 132.273C284.552 132.241 283.889 132.172 283.256 131.983C282.282 131.692 281.355 131.074 280.929 130.125C280.912 130.13 280.897 130.134 280.881 130.138C279.586 130.976 278.194 131.663 276.739 132.182C276.575 132.24 276.501 131.981 276.663 131.922C277.942 131.466 279.172 130.877 280.33 130.169C280.449 130.096 280.566 130.023 280.68 129.948C280.589 129.223 280.502 128.497 280.467 127.766C280.434 127.08 280.449 126.389 280.549 125.707C280.651 125.023 280.854 124.367 281.105 123.725C281.606 122.445 282.272 121.205 282.454 119.825C282.463 119.753 282.563 119.765 282.584 119.822C282.845 120.579 283.017 121.366 283.101 122.165C283.249 123.589 283.113 125.043 282.716 126.418C282.388 127.554 281.874 128.635 281.198 129.604C281.896 129.124 282.562 128.6 283.193 128.034C283.2 128.026 283.207 128.017 283.217 128.009L283.231 128C284.161 127.163 285.009 126.236 285.761 125.236C286.036 124.87 286.296 124.495 286.545 124.111C286.211 123.545 285.931 122.948 285.712 122.329C285.279 121.101 285.074 119.792 285.105 118.491C285.137 117.191 285.404 115.9 285.908 114.702C285.926 114.658 286.006 114.655 286.026 114.7C286.317 115.36 286.558 116.041 286.747 116.736C287.08 117.966 287.249 119.241 287.252 120.515C287.255 121.497 287.156 122.476 286.96 123.437C287.381 122.726 287.756 121.989 288.083 121.231C288.233 120.601 288.342 119.96 288.447 119.319C288.68 117.914 288.907 116.48 289.536 115.186C290.053 114.125 290.869 113.162 291.963 112.672C292.015 112.647 292.076 112.684 292.063 112.745C291.918 113.491 291.772 114.237 291.599 114.978C291.309 116.224 290.937 117.459 290.373 118.611C289.853 119.671 289.168 120.659 288.283 121.447C288.138 121.778 287.984 122.106 287.82 122.43C287.615 122.835 287.396 123.235 287.163 123.625C287.477 123.377 287.806 123.149 288.148 122.941C289.157 122.329 290.274 121.892 291.429 121.65C292.585 121.41 293.776 121.365 294.945 121.53C295.008 121.539 295.004 121.622 294.963 121.653L293.008 123.115C292.514 123.484 292.034 123.867 291.477 124.142C290.985 124.385 290.46 124.56 289.92 124.661C288.843 124.861 287.714 124.777 286.691 124.38C285.985 125.452 285.175 126.456 284.275 127.372C284.57 127.216 284.871 127.07 285.18 126.941C285.867 126.653 286.579 126.441 287.304 126.303C288.457 126.083 289.64 126.053 290.803 126.209C291.459 125.908 292.155 125.695 292.869 125.58C294.219 125.362 295.617 125.485 296.903 125.958C298.202 126.436 299.373 127.246 300.271 128.3C300.312 128.35 300.276 128.429 300.207 128.414Z" fill="#D2D2F7"/>
<path d="M248.378 134.914C249.138 134.748 249.92 134.817 250.682 134.93C251.36 135.031 252.036 135.167 252.721 135.213C253.385 135.26 254.05 135.203 254.695 135.03C255.932 134.697 257.055 133.969 257.85 132.963C258.853 132.83 259.866 132.847 260.855 133.004C260.391 133.133 259.943 133.321 259.522 133.559C258.594 134.082 257.812 134.847 257.275 135.768C256.766 136.641 256.478 137.639 256.445 138.65C256.445 138.692 256.487 138.73 256.529 138.717C257.049 138.553 257.537 138.306 257.983 137.993C258.787 137.43 259.442 136.686 259.98 135.87C260.551 135.004 260.994 134.062 261.423 133.119C261.425 133.115 261.425 133.112 261.425 133.11C262.761 133.396 264.043 133.939 265.186 134.712C265.3 134.815 265.416 134.918 265.533 135.018C266.112 135.515 266.718 135.977 267.347 136.403C266.832 136.273 266.306 136.189 265.775 136.155C264.525 136.076 263.261 136.265 262.091 136.716C260.926 137.167 259.861 137.862 258.984 138.752C258.945 138.792 258.97 138.87 259.03 138.869C259.799 138.853 260.567 138.837 261.337 138.823C262.016 138.809 262.697 138.805 263.375 138.773C264.034 138.741 264.696 138.673 265.329 138.483C266.304 138.192 267.23 137.574 267.657 136.625C267.673 136.63 267.688 136.634 267.705 136.639C269 137.476 270.391 138.163 271.847 138.682C272.01 138.74 272.085 138.481 271.923 138.422C270.643 137.967 269.414 137.377 268.255 136.669C268.137 136.597 268.02 136.523 267.905 136.448C267.996 135.723 268.083 134.997 268.118 134.266C268.151 133.58 268.137 132.889 268.037 132.207C267.935 131.524 267.731 130.867 267.48 130.225C266.98 128.945 266.314 127.705 266.132 126.325C266.123 126.254 266.022 126.265 266.002 126.323C265.741 127.079 265.569 127.867 265.485 128.666C265.336 130.089 265.472 131.543 265.87 132.918C266.198 134.054 266.712 135.135 267.388 136.104C266.69 135.624 266.024 135.1 265.393 134.534C265.385 134.526 265.379 134.517 265.369 134.51L265.354 134.501C264.425 133.663 263.577 132.736 262.824 131.736C262.549 131.37 262.289 130.995 262.041 130.611C262.374 130.045 262.655 129.448 262.874 128.829C263.306 127.601 263.511 126.292 263.48 124.991C263.449 123.69 263.181 122.4 262.677 121.202C262.659 121.158 262.579 121.155 262.56 121.2C262.269 121.86 262.027 122.541 261.839 123.236C261.505 124.466 261.336 125.741 261.333 127.015C261.331 127.997 261.43 128.976 261.625 129.937C261.205 129.226 260.83 128.489 260.502 127.731C260.352 127.101 260.243 126.46 260.138 125.819C259.906 124.414 259.679 122.98 259.049 121.686C258.532 120.625 257.717 119.662 256.622 119.172C256.57 119.147 256.51 119.184 256.522 119.245C256.667 119.991 256.814 120.737 256.987 121.478C257.277 122.724 257.648 123.959 258.213 125.111C258.732 126.171 259.418 127.159 260.302 127.947C260.447 128.278 260.601 128.606 260.765 128.93C260.971 129.335 261.189 129.735 261.423 130.125C261.108 129.877 260.78 129.649 260.437 129.441C259.428 128.829 258.311 128.392 257.156 128.15C256.001 127.91 254.809 127.865 253.641 128.03C253.578 128.039 253.582 128.122 253.623 128.153L255.577 129.615C256.071 129.984 256.552 130.367 257.108 130.642C257.601 130.885 258.126 131.06 258.665 131.161C259.742 131.361 260.871 131.277 261.894 130.88C262.601 131.952 263.41 132.956 264.31 133.872C264.015 133.716 263.714 133.57 263.405 133.441C262.718 133.153 262.006 132.941 261.281 132.803C260.128 132.583 258.945 132.553 257.783 132.709C257.126 132.408 256.43 132.195 255.717 132.08C254.366 131.862 252.968 131.985 251.682 132.458C250.383 132.936 249.212 133.746 248.315 134.8C248.273 134.849 248.309 134.929 248.378 134.914Z" fill="#D2D2F7"/>
<path d="M270 90L265.982 88.2415C265.079 88.7255 264.011 89.0064 262.865 89.0064C259.626 89.0064 257 86.7659 257 84.0027C257 81.2394 259.626 79 262.865 79C266.105 79 268.731 81.2394 268.731 84.0027C268.731 85.2056 268.233 86.3095 267.404 87.1723L270 90Z" fill="white" fill-opacity="0.55"/>
<path d="M239 79L243.327 77.0816C244.299 77.6096 245.449 77.9161 246.683 77.9161C250.172 77.9161 253 75.4719 253 72.4575C253 69.443 250.172 67 246.683 67C243.195 67 240.367 69.443 240.367 72.4575C240.367 73.7698 240.903 74.974 241.796 75.9153L239 79Z" fill="white" fill-opacity="0.55"/>
<path d="M238.291 128.217L228.876 130.759L225.445 140.004H211.629L214.795 121.516C214.795 121.516 219.638 126.927 238.107 124.104L238.291 128.217Z" fill="#272754"/>
<path d="M238.823 139.998H225.445L228.877 130.753L238.292 128.211L238.823 139.998Z" fill="#18183D"/>
<path d="M237.61 113.049L238.107 124.103C219.638 126.926 214.795 121.514 214.795 121.514L215.469 117.579L216.816 109.716C216.816 109.716 211.711 95.5459 213.096 91.3187C213.101 91.3027 213.106 91.2846 213.113 91.2668C213.119 91.2506 213.124 91.2364 213.13 91.2202C214.63 87.1236 221.101 84.8516 221.101 84.8516C221.101 84.8516 223.853 89.8248 227.135 89.6745C229.495 89.5673 229.225 87.619 229.225 87.619L229.15 86.1467C229.15 86.1467 234.16 86.5546 236.361 90.0287C238.561 93.5027 242.701 113.049 242.701 113.049H237.61V113.049Z" fill="#FF6F6F"/>
<path d="M233.975 95.5938L235.215 101.161" stroke="#272754" stroke-width="0.467019" stroke-miterlimit="10" stroke-linecap="round" stroke-linejoin="round"/>
<path d="M236.143 103.051L238.002 103.163L242.627 103.447C244.398 103.557 246.151 103.849 247.859 104.321L251.4 105.299V105.3C252.091 105.491 252.586 106.107 252.587 106.793L252.58 106.932C252.53 107.461 252.225 107.888 251.81 108.123L251.809 108.124L251.795 108.131L251.423 108.347L251.824 108.5C252.55 108.778 252.965 109.576 252.754 110.339C252.642 110.743 252.375 111.065 252.033 111.261C251.996 111.282 251.96 111.301 251.92 111.319L251.595 111.473L251.892 111.675C252.418 112.033 252.686 112.7 252.508 113.347C252.396 113.751 252.129 114.075 251.788 114.269C251.584 114.384 251.355 114.453 251.122 114.465L250.76 114.484L250.963 114.785C251.207 115.145 251.299 115.604 251.175 116.054C251.063 116.46 250.797 116.782 250.455 116.979C250.111 117.172 249.698 117.235 249.291 117.123L245.66 116.12L245.441 116.06L245.403 116.283L244.616 120.965C244.556 121.318 244.468 121.661 244.33 121.981C243.92 122.933 243.33 123.35 242.77 123.516C241.987 123.748 241.241 123.002 241.462 122.2L241.806 120.955C242.125 119.799 242.006 118.567 241.469 117.493V117.492L241.242 117.044C240.825 116.207 240.169 115.512 239.364 115.04L237.896 113.987L236.962 113.319L233.908 111.136L236.143 103.051Z" fill="white" stroke="#272754" stroke-width="0.41"/>
<path d="M235.529 114.287L230.057 112.776L233.405 100.656L237.611 101.818L235.529 114.287Z" fill="#272754"/>
<path d="M234.408 70.8672V79.2949C234.408 82.2556 232.023 84.6868 229.08 84.7637L229.15 86.1519L229.225 87.6243C229.225 87.6243 229.495 89.5725 227.136 89.6798C223.853 89.83 221.102 84.8568 221.102 84.8568L223.109 79.1215C222.579 79.0785 222.094 78.762 221.774 78.3381C221.454 77.9158 221.284 77.3917 221.213 76.8657C221.148 76.3934 221.162 75.8979 221.331 75.4561C221.354 75.3898 221.383 75.3272 221.413 75.2647C221.658 74.7763 222.15 74.3898 222.695 74.3809C223.154 74.3719 223.611 74.6814 223.753 75.1036C224.261 73.7225 224.771 72.3432 225.281 70.964C227.454 71.3325 229.658 71.6868 231.85 71.4577C232.715 71.3682 233.587 71.1749 234.408 70.8672Z" fill="#FFB980"/>
<path d="M231.749 75.5938L230.312 80.0052L232.404 79.9757L231.749 75.5938Z" fill="#FFA25C"/>
<path d="M238.256 67.4741C238.172 67.8515 237.963 68.1896 237.728 68.4974C236.889 69.5994 235.71 70.3758 234.408 70.8642C233.587 71.1719 232.716 71.365 231.85 71.4546C229.658 71.6836 227.454 71.3293 225.281 70.9608C224.771 72.3401 224.261 73.7193 223.753 75.1004C223.612 74.6782 223.154 74.3687 222.696 74.3777C222.15 74.3866 221.658 74.773 221.413 75.2615C221.383 75.3241 221.354 75.3868 221.331 75.4529C221.125 74.6264 220.919 73.7999 220.714 72.9734C220.56 72.3527 220.404 71.7247 220.397 71.0844C220.388 70.4439 220.544 69.782 220.948 69.2866C221.424 68.7051 222.236 68.4244 222.971 68.5728C222.815 67.7982 223.374 67.0146 224.082 66.6567C224.796 66.2953 225.626 66.2631 226.426 66.2382C227.912 66.1935 229.401 66.1469 230.887 66.1022C232.721 66.0451 234.553 65.9896 236.386 65.9341C236.973 65.9162 237.644 65.9323 238.027 66.3778C238.279 66.6707 238.338 67.0948 238.256 67.4741Z" fill="#272754"/>
<path d="M229.079 84.7556L229.149 86.1438C226.302 86.1549 224.857 82.9219 224.857 82.9219C225.358 83.4836 225.975 83.9433 226.668 84.2618C227.36 84.5802 228.128 84.7575 228.936 84.7575C228.984 84.7575 229.031 84.7575 229.079 84.7556Z" fill="#272754"/>
<path d="M231.749 75.5938L232.404 79.9757L230.312 80.0052" stroke="#272754" stroke-width="0.341376" stroke-miterlimit="10" stroke-linecap="round" stroke-linejoin="round"/>
<path d="M221.68 76.2887C221.699 76.0523 221.785 75.8157 221.951 75.646C222.116 75.4762 222.368 75.3829 222.599 75.4374C222.894 75.5071 223.091 75.7899 223.196 76.0749C223.361 76.5231 223.363 77.0288 223.203 77.4786C223.135 77.6688 223.022 77.8641 222.832 77.9324C222.632 78.0042 222.4 77.9052 222.267 77.7389C222.135 77.5725 222.088 77.3533 222.079 77.141C222.073 76.9956 222.094 76.829 222.213 76.7453C222.335 76.6597 222.515 76.7059 222.616 76.8153C222.717 76.9248 222.752 77.0796 222.762 77.2282" stroke="#272754" stroke-width="0.327306" stroke-miterlimit="10" stroke-linecap="round" stroke-linejoin="round"/>
<path d="M229.388 75.6317C229.485 75.1261 229.221 74.6498 228.796 74.5677C228.372 74.4857 227.949 74.829 227.851 75.3346C227.753 75.8402 228.018 76.3165 228.442 76.3985C228.867 76.4806 229.29 76.1372 229.388 75.6317Z" fill="#272754"/>
<path d="M233.774 75.9129C233.872 75.4074 233.607 74.931 233.183 74.849C232.758 74.7669 232.335 75.1103 232.238 75.6158C232.14 76.1214 232.405 76.5978 232.829 76.6798C233.253 76.7618 233.677 76.4185 233.774 75.9129Z" fill="#272754"/>
<path d="M229.235 73.4051C228.817 73.3734 228.399 73.3926 227.987 73.4747C227.409 73.5902 227.538 74.5015 228.121 74.385C228.454 74.3184 228.783 74.2923 229.122 74.3179C229.71 74.3628 229.827 73.4501 229.235 73.4051Z" fill="#272754"/>
<path d="M232.893 73.61C233.311 73.6297 233.724 73.7002 234.122 73.8323C234.682 74.0178 234.442 74.9065 233.878 74.7193C233.555 74.6124 233.232 74.5459 232.893 74.5299C232.303 74.5021 232.3 73.582 232.893 73.61Z" fill="#272754"/>
<path d="M228.916 80.9945C229.332 80.4938 229.381 79.8476 229.024 79.5512C228.668 79.2549 228.041 79.4206 227.625 79.9214C227.209 80.4222 227.16 81.0684 227.517 81.3647C227.873 81.661 228.499 81.4953 228.916 80.9945Z" fill="white"/>
<path d="M226.01 80.1966C226.843 80.1966 227.519 79.5212 227.519 78.6881C227.519 77.855 226.843 77.1797 226.01 77.1797C225.177 77.1797 224.502 77.855 224.502 78.6881C224.502 79.5212 225.177 80.1966 226.01 80.1966Z" fill="#FFA25C"/>
<path d="M233.975 114.042L233.229 120.159C233.229 120.159 219.802 120.83 215.773 117.846C212.317 115.286 211.741 98.7295 212.897 92.0662C213.429 89.0061 216.861 87.3882 219.526 88.984C219.542 88.9936 219.558 89.0034 219.574 89.0134C221.725 90.3265 222.939 92.7486 222.837 95.264L222.188 111.059L233.975 114.042Z" fill="#FF6F6F"/>
<path d="M233.918 114.5L233.275 119.772C233.275 119.772 239.22 120.152 241.408 119.543C243.596 118.933 244.541 117.665 244.342 117.305C244.342 117.305 245.809 116.061 245.486 115.365C245.486 115.365 245.747 114.755 245.287 114.5C245.287 114.5 246.175 113.531 245.486 113.376C244.796 113.22 240.121 114.719 238.809 114.557C238.809 114.557 242.137 112.019 241.863 111.428C241.59 110.838 237.609 113.053 237.609 113.053L233.918 114.5Z" fill="#FFB980"/>
<path d="M222.837 95.2734L222.188 111.068L233.975 114.052L233.229 120.168C233.229 120.168 219.801 120.839 215.773 117.855C215.341 117.535 214.954 116.996 214.609 116.286" stroke="#272754" stroke-width="0.467019" stroke-miterlimit="10" stroke-linecap="round" stroke-linejoin="round"/>
<path d="M245.303 114.461C243.821 115.196 242.272 115.795 240.682 116.247" stroke="#272754" stroke-width="0.467019" stroke-miterlimit="10" stroke-linecap="round" stroke-linejoin="round"/>
<path d="M245.468 115.406C244.073 116.441 242.45 117.166 240.748 117.516" stroke="#272754" stroke-width="0.467019" stroke-miterlimit="10" stroke-linecap="round" stroke-linejoin="round"/>
<path d="M244.332 117.383C243.155 117.971 241.892 118.385 240.596 118.608" stroke="#272754" stroke-width="0.467019" stroke-miterlimit="10" stroke-linecap="round" stroke-linejoin="round"/>
<path d="M285.763 119.642C286.552 120.878 287.239 122.162 287.834 123.456C277.118 126.161 270.372 124.407 268.124 123.609C268.896 117.715 269.676 112.929 269.676 112.929L263.281 112.463C263.281 112.463 267.549 97.3091 268.89 95.717C270.087 94.3001 275.455 92.8361 276.278 92.6929L276.188 93.8109C276.188 93.8109 275.657 97.582 278.387 97.5587C281.115 97.5337 283.968 92.2812 283.968 92.2812C286.167 93.1489 288.997 94.9504 288.997 94.9504L285.763 119.642Z" fill="#FF8D6F"/>
<path d="M291.756 140.004H278.863L276.276 131.192L267.604 127.779C267.77 126.36 267.945 124.954 268.122 123.607C270.371 124.405 277.117 126.158 287.833 123.453C291.55 131.527 291.756 140.004 291.756 140.004Z" fill="#272754"/>
<path d="M278.864 140.007H266.617C266.673 136.651 267.093 132.15 267.605 127.781L276.277 131.195L278.864 140.007Z" fill="#18183D"/>
<path d="M272.521 98.8125L270.592 103.761" stroke="#272754" stroke-width="0.467019" stroke-miterlimit="10" stroke-linecap="round" stroke-linejoin="round"/>
<path d="M270.365 106.441L269.176 116.176L266.896 116.377L261.692 116.829C259.682 117.002 257.661 116.969 255.661 116.724L251.55 116.222C250.594 116.105 249.81 115.341 249.759 114.38C249.722 113.702 250.029 113.105 250.508 112.729C250.511 112.728 250.518 112.723 250.521 112.719C249.55 112.505 248.877 111.576 249 110.569C249.064 110.035 249.343 109.578 249.737 109.267C249.779 109.233 249.822 109.203 249.869 109.173C249.135 108.819 248.67 108.026 248.774 107.173C248.838 106.64 249.117 106.18 249.511 105.871C249.746 105.687 250.022 105.556 250.317 105.497C249.941 105.088 249.737 104.524 249.81 103.932C249.876 103.394 250.154 102.937 250.547 102.626C250.945 102.318 251.456 102.159 251.992 102.225L256.208 102.739L256.307 97.3852C256.316 96.9703 256.358 96.5538 256.464 96.1508C256.781 94.9585 257.414 94.338 258.076 94.0294C258.447 93.8573 258.833 93.8641 259.169 93.9956C259.744 94.2216 260.166 94.8203 260.081 95.5167L259.904 96.9619C259.747 98.2486 260.071 99.5454 260.815 100.608L261.142 101.07C261.724 101.901 262.54 102.542 263.483 102.918L265.301 103.849L266.452 104.439L270.365 106.441Z" fill="white" stroke="#272754" stroke-width="0.413763" stroke-miterlimit="10" stroke-linecap="round" stroke-linejoin="round"/>
<path d="M267.783 103.32L274.138 104.096L272.419 118.171L267.535 117.575L267.783 103.32Z" fill="#272754"/>
<path d="M256.207 102.734L258.438 103.005" stroke="#272754" stroke-width="0.413763" stroke-miterlimit="10" stroke-linecap="round" stroke-linejoin="round"/>
<path d="M250.316 105.5L252.519 105.755" stroke="#272754" stroke-width="0.413763" stroke-miterlimit="10" stroke-linecap="round" stroke-linejoin="round"/>
<path d="M249.867 109.172L252.12 109.361" stroke="#272754" stroke-width="0.413763" stroke-miterlimit="10" stroke-linecap="round" stroke-linejoin="round"/>
<path d="M250.508 112.727L252.145 112.804" stroke="#272754" stroke-width="0.413763" stroke-miterlimit="10" stroke-linecap="round" stroke-linejoin="round"/>
<path d="M268.35 114.816L268.619 119.964C268.619 119.964 283.332 120.848 285.763 119.639C288.193 118.429 294.881 98.5242 288.997 94.9476C282.859 91.2166 280.957 113.788 280.957 113.788L268.35 114.816Z" fill="#FF8D6F"/>
<path d="M268.416 116.068L265.334 114.862C265.334 114.862 262.507 113.072 261.537 113.462C260.568 113.851 263.759 115.99 263.759 115.99C263.759 115.99 258.761 116.04 257.327 115.741C255.893 115.443 257.327 117.051 257.327 117.051C257.327 117.051 256.425 117.357 256.842 117.962C257.26 118.568 257.675 118.526 257.675 118.526C257.675 118.526 256.806 118.659 256.842 119.073C256.879 119.488 258.139 119.827 259.349 120.018C259.349 120.018 258.189 120.084 258.239 120.465C258.288 120.847 260.352 121.841 268.632 119.802L268.416 116.068Z" fill="#FFB980"/>
<path d="M257.434 117.094C258.878 117.415 260.363 117.557 261.843 117.515" stroke="#272754" stroke-width="0.467019" stroke-miterlimit="10" stroke-linecap="round" stroke-linejoin="round"/>
<path d="M257.652 118.57C258.957 118.794 260.286 118.878 261.608 118.819" stroke="#272754" stroke-width="0.467019" stroke-miterlimit="10" stroke-linecap="round" stroke-linejoin="round"/>
<path d="M259.207 120.062C260.123 120.167 261.049 120.18 261.967 120.1" stroke="#272754" stroke-width="0.467019" stroke-miterlimit="10" stroke-linecap="round" stroke-linejoin="round"/>
<path d="M282.726 102.273L280.957 113.785L268.35 114.813L268.619 119.962C268.619 119.962 283.332 120.846 285.763 119.636C286.01 119.513 286.311 119.182 286.646 118.684" stroke="#272754" stroke-width="0.467019" stroke-miterlimit="10" stroke-linecap="round" stroke-linejoin="round"/>
<path d="M283.968 92.2752C283.968 92.2752 281.114 97.5275 278.386 97.5526C275.656 97.5759 276.187 93.8049 276.187 93.8049L276.277 92.6868L276.413 90.9819C274.075 90.744 272.144 88.8656 271.93 86.4435L271.418 80.7099L271.429 80.5972C271.558 80.6581 271.688 80.7134 271.824 80.7583C272.847 81.0999 273.973 80.9729 275.014 80.6884C276.84 80.1893 278.533 79.218 279.887 77.8906C280.293 79.3611 280.699 80.8299 281.105 82.3004C281.318 81.9731 281.704 81.7512 282.1 81.7406C282.665 81.7262 283.198 82.0895 283.479 82.5795C283.554 82.71 283.611 82.8478 283.656 82.991C283.776 83.3846 283.785 83.8139 283.717 84.2219C283.557 85.1736 282.974 86.0448 282.162 86.5618C282.416 87.365 282.668 88.1666 282.922 88.9679C283.27 90.0713 283.619 91.1733 283.968 92.2752Z" fill="#FFB980"/>
<path d="M283.657 82.9884C283.613 82.8452 283.555 82.7075 283.48 82.577C283.199 82.0867 282.666 81.7237 282.101 81.738C281.706 81.7488 281.319 81.9705 281.106 82.2979C280.7 80.8274 280.294 79.3586 279.888 77.8881C278.534 79.2154 276.842 80.1869 275.015 80.6859C273.974 80.9704 272.849 81.0973 271.825 80.7557C271.69 80.711 271.559 80.6555 271.43 80.5946C270.128 79.9614 269.249 78.5034 269.35 77.0525C269.389 76.4854 269.614 75.8681 270.128 75.6248C270.482 75.4567 270.893 75.5032 271.283 75.5032C273.851 75.5051 276.085 73.4334 278.65 73.4853C279.697 73.5068 280.69 73.9039 281.523 74.5373C282.343 75.1545 283.005 75.9988 283.42 76.938C284.251 78.8203 284.189 80.9992 283.657 82.9884Z" fill="#272754"/>
<path d="M288.402 84.2361C289.243 85.1895 289.522 86.6046 289.108 87.8051C288.693 89.0073 287.604 89.9499 286.355 90.1843C285.105 90.4204 283.747 89.9375 282.924 88.9697C282.67 88.1681 282.418 87.3668 282.164 86.5636C282.976 86.0465 283.559 85.1754 283.718 84.2236C283.786 83.8157 283.777 83.3863 283.658 82.9927C284.189 81.0035 284.252 78.8246 283.42 76.9426C283.005 76.0035 282.343 75.159 281.523 74.5419C281.951 73.7136 282.829 73.1286 283.763 73.0679C284.744 73.0035 285.742 73.5205 286.257 74.3595C286.872 75.363 286.778 76.644 287.175 77.7512C287.456 78.5312 287.969 79.2003 288.436 79.8872C288.901 80.5723 289.338 81.3165 289.422 82.1413C289.507 82.9659 289.155 83.8872 288.402 84.2361Z" fill="#272754"/>
<path d="M276.415 90.9818C276.581 90.9997 276.751 91.0086 276.921 91.0086C277.067 91.0086 277.216 91.0015 277.364 90.9889C278.853 90.8547 280.134 90.0766 280.958 88.9531C280.958 88.9531 279.829 92.1779 276.303 92.3843L276.415 90.9818Z" fill="#272754"/>
<path d="M277.194 81.4394C277.626 81.4279 278.056 81.469 278.475 81.5748C279.064 81.7232 278.885 82.6549 278.291 82.5053C277.951 82.4198 277.614 82.376 277.263 82.3852C276.655 82.4013 276.582 81.4555 277.194 81.4394Z" fill="#272754"/>
<path d="M273.142 81.4844C272.71 81.4834 272.281 81.5348 271.864 81.6505C271.279 81.8131 271.48 82.7402 272.071 82.5763C272.408 82.4825 272.745 82.4308 273.095 82.4314C273.703 82.4328 273.754 81.4857 273.142 81.4844Z" fill="#272754"/>
<path d="M279.488 87.4523C280.271 87.4523 280.905 86.8176 280.905 86.0347C280.905 85.2518 280.271 84.6172 279.488 84.6172C278.705 84.6172 278.07 85.2518 278.07 86.0347C278.07 86.8176 278.705 87.4523 279.488 87.4523Z" fill="#FFA25C"/>
<path d="M275.544 88.4655C275.86 89.1378 276.724 89.397 277.475 89.0446C278.225 88.6921 278.578 87.8613 278.262 87.1891C277.946 86.5167 277.436 87.1741 276.685 87.5265C275.935 87.879 275.228 87.7931 275.544 88.4655Z" fill="white"/>
<path d="M275.832 86.989L274.141 86.9468L274.861 82.5859L275.832 86.989Z" fill="#FFA25C"/>
<path d="M274.834 82.8281L274.143 86.9445L275.583 86.9868" stroke="#272754" stroke-width="0.337407" stroke-miterlimit="10" stroke-linecap="round" stroke-linejoin="round"/>
<path d="M283.345 83.4796C283.325 83.2359 283.236 82.9921 283.065 82.8171C282.894 82.642 282.635 82.5459 282.397 82.6019C282.093 82.6737 281.889 82.9651 281.781 83.2591C281.612 83.7211 281.609 84.2425 281.775 84.7061C281.845 84.9022 281.961 85.1036 282.157 85.1739C282.363 85.2479 282.603 85.1459 282.739 84.9744C282.875 84.8029 282.924 84.5769 282.933 84.358C282.939 84.2083 282.918 84.0365 282.795 83.9503C282.67 83.8619 282.484 83.9095 282.38 84.0225C282.276 84.1353 282.239 84.2948 282.229 84.4481" stroke="#272754" stroke-width="0.337407" stroke-miterlimit="10" stroke-linecap="round" stroke-linejoin="round"/>
<path d="M271.922 83.4451C272.172 83.6637 272.517 83.7692 272.847 83.7281C273.177 83.6869 273.485 83.4999 273.674 83.2266" stroke="#272754" stroke-width="0.337407" stroke-miterlimit="10" stroke-linecap="round" stroke-linejoin="round"/>
<path d="M276.867 83.2889C277.117 83.5074 277.463 83.613 277.792 83.5718C278.122 83.5307 278.431 83.3437 278.62 83.0703" stroke="#272754" stroke-width="0.337407" stroke-miterlimit="10" stroke-linecap="round" stroke-linejoin="round"/>
<path d="M246.724 93.8326C245.891 94.2674 245.749 95.439 245.73 95.679C245.71 95.439 245.57 94.2672 244.734 93.8326C245.57 93.3979 245.71 92.2243 245.73 91.9844C245.749 92.2243 245.891 93.398 246.724 93.8326Z" fill="#272753"/>
<path d="M213.01 80.4342C212.176 80.8689 212.034 82.0406 212.015 82.2806C211.995 82.0406 211.855 80.8687 211.02 80.4342C211.855 79.9994 211.995 78.8259 212.015 78.5859C212.035 78.8259 212.176 79.9994 213.01 80.4342Z" fill="#272753"/>
<path d="M295.418 92.942C294.584 93.3767 294.443 94.5484 294.424 94.7884C294.403 94.5484 294.263 93.3766 293.428 92.942C294.263 92.5072 294.403 91.3337 294.424 91.0938C294.443 91.3337 294.584 92.5072 295.418 92.942Z" fill="#272753"/>
<path d="M290.543 92.7969C290.179 92.7969 290.178 93.3638 290.543 93.3638C290.908 93.364 290.909 92.7969 290.543 92.7969Z" fill="#272753"/>
<path d="M294.422 89.6797C294.058 89.6797 294.057 90.2466 294.422 90.2466C294.787 90.2466 294.788 89.6797 294.422 89.6797Z" fill="#272753"/>
<path d="M214 78.3672C213.636 78.3672 213.635 78.9341 214 78.9341C214.365 78.9341 214.366 78.3672 214 78.3672Z" fill="#272753"/>
<path d="M215.787 82.7812C215.423 82.7812 215.422 83.3482 215.787 83.3482C216.152 83.3482 216.153 82.7812 215.787 82.7812Z" fill="#272753"/>
<path d="M217.469 79.3125C217.104 79.3125 217.104 79.8795 217.469 79.8795C217.834 79.8795 217.835 79.3125 217.469 79.3125Z" fill="#272753"/>
<path d="M242.631 94.9609C242.266 94.9609 242.266 95.5279 242.631 95.5279C242.996 95.5279 242.997 94.9609 242.631 94.9609Z" fill="#272753"/>
<path d="M244.942 97.9062C244.577 97.9062 244.576 98.4732 244.942 98.4732C245.307 98.4732 245.307 97.9062 244.942 97.9062Z" fill="#272753"/>
<path d="M208.306 131.239C207.473 131.674 207.331 132.845 207.312 133.085C207.292 132.845 207.152 131.673 206.316 131.239C207.152 130.804 207.292 129.631 207.312 129.391C207.331 129.631 207.473 130.804 208.306 131.239Z" fill="#272753"/>
<path d="M299.433 96.0045C298.6 96.4392 298.458 97.6109 298.439 97.8509C298.419 97.6109 298.279 96.4391 297.443 96.0045C298.279 95.5697 298.419 94.3962 298.439 94.1562C298.458 94.3962 298.6 95.5697 299.433 96.0045Z" fill="#272753"/>
<path d="M295.506 97.2734C295.141 97.2734 295.141 97.8404 295.506 97.8404C295.871 97.8404 295.872 97.2734 295.506 97.2734Z" fill="#272753"/>
<path d="M293.875 100.078C293.511 100.078 293.51 100.645 293.875 100.645C294.24 100.645 294.241 100.078 293.875 100.078Z" fill="#272753"/>
</g>
<path d="M201.015 13.6843C203.083 22.063 207.667 29.6111 214.16 35.3294C220.653 41.0478 228.75 44.6667 237.378 45.7071C246.007 46.7475 254.759 45.1603 262.478 41.1557C270.197 37.1511 276.517 30.9178 280.603 23.2812C284.688 15.6445 286.347 6.96452 285.358 -1.60969C284.369 -10.1839 280.779 -18.248 275.065 -24.7344C269.35 -31.2208 261.78 -35.8237 253.356 -37.9337C244.932 -40.0436 236.052 -39.5612 227.891 -36.5503L236.749 -12.6719C240.032 -13.883 243.604 -14.0771 246.992 -13.2284C250.381 -12.3797 253.426 -10.5282 255.724 -7.91916C258.023 -5.31009 259.467 -2.06642 259.864 1.38243C260.262 4.83129 259.595 8.32269 257.952 11.3944C256.309 14.4662 253.766 16.9734 250.661 18.5842C247.557 20.195 244.036 20.8334 240.565 20.4149C237.095 19.9965 233.838 18.5408 231.226 16.2407C228.614 13.9406 226.771 10.9044 225.939 7.53424L201.015 13.6843Z" fill="#EFF2FF" fill-opacity="0.25"/>
</g>
<rect x="1" y="1" width="317" height="130" rx="20" stroke="#EFEFEF"/>
<defs>
<clipPath id="clip0_3599_4260">
<rect x="1" y="1" width="317" height="130" rx="20" fill="white"/>
</clipPath>
<clipPath id="clip1_3599_4260">
<rect width="136.5" height="105" fill="white" transform="translate(183 35)"/>
</clipPath>
</defs>
</svg>
