<svg width="24" height="24" viewBox="0 0 24 24" fill="none" xmlns="http://www.w3.org/2000/svg">
<path d="M9.9975 11.9475C9.14308 11.9475 8.30785 11.6941 7.59743 11.2194C6.88701 10.7448 6.33331 10.0701 6.00634 9.28069C5.67937 8.49131 5.59382 7.6227 5.7605 6.78471C5.92719 5.94671 6.33863 5.17696 6.9428 4.5728C7.54696 3.96863 8.31671 3.55719 9.15471 3.3905C9.9927 3.22382 10.8613 3.30937 11.6507 3.63634C12.4401 3.96331 13.1148 4.51701 13.5894 5.22743C14.0641 5.93785 14.3175 6.77308 14.3175 7.6275C14.3165 8.77293 13.861 9.87116 13.0511 10.6811C12.2412 11.491 11.1429 11.9465 9.9975 11.9475ZM9.9975 4.4475C9.36543 4.4475 8.74756 4.63498 8.22206 4.98621C7.69656 5.33745 7.28706 5.83666 7.04534 6.42069C6.80363 7.00472 6.74058 7.64732 6.86416 8.26719C6.98775 8.88706 7.29242 9.45635 7.73962 9.90303C8.18682 10.3497 8.75647 10.6537 9.37648 10.7766C9.9965 10.8994 10.639 10.8356 11.2228 10.5932C11.8065 10.3508 12.3052 9.94072 12.6559 9.41481C13.0065 8.88891 13.1932 8.27082 13.1925 7.63875C13.1935 7.21854 13.1116 6.80227 12.9514 6.41377C12.7913 6.02527 12.5561 5.67217 12.2594 5.37469C11.9626 5.07721 11.61 4.8412 11.2219 4.68017C10.8338 4.51913 10.4177 4.43625 9.9975 4.43625V4.4475ZM9.9975 20.6887C7.79668 20.7352 5.65208 19.9915 3.9525 18.5925C3.88269 18.5263 3.83117 18.4432 3.80292 18.3512C3.77467 18.2592 3.77065 18.1615 3.79125 18.0675C4.54125 14.475 6.7575 12.495 9.9975 12.495C10.1467 12.495 10.2898 12.5543 10.3952 12.6597C10.5007 12.7652 10.56 12.9083 10.56 13.0575C10.56 13.2067 10.5007 13.3498 10.3952 13.4552C10.2898 13.5607 10.1467 13.62 9.9975 13.62C7.40625 13.62 5.67 15.12 4.965 17.97C6.43052 19.0225 8.19326 19.5808 9.9975 19.5637C10.1467 19.5637 10.2898 19.623 10.3952 19.7285C10.5007 19.834 10.56 19.9771 10.56 20.1262C10.56 20.2754 10.5007 20.4185 10.3952 20.524C10.2898 20.6295 10.1467 20.6887 9.9975 20.6887Z" fill="#2639AB" stroke="#2639AB" stroke-width="0.5"/>
<path d="M9.9975 20.6887C9.84831 20.6887 9.70524 20.6295 9.59975 20.524C9.49426 20.4185 9.435 20.2754 9.435 20.1262C9.435 19.977 9.49426 19.834 9.59975 19.7285C9.70524 19.623 9.84831 19.5637 9.9975 19.5637C11.2116 19.57 12.4136 19.3222 13.5262 18.8362C13.5945 18.8064 13.6679 18.7904 13.7423 18.7889C13.8167 18.7875 13.8907 18.8008 13.96 18.8279C14.0292 18.8551 14.0925 18.8956 14.1461 18.9472C14.1998 18.9988 14.2427 19.0605 14.2725 19.1287C14.3023 19.1969 14.3184 19.2703 14.3198 19.3447C14.3212 19.4192 14.308 19.4931 14.2808 19.5624C14.2536 19.6317 14.2131 19.695 14.1615 19.7486C14.1099 19.8022 14.0482 19.8452 13.98 19.875C12.7239 20.4213 11.3673 20.6985 9.9975 20.6887ZM15.6525 18.75C15.5235 18.7495 15.3986 18.705 15.2984 18.6238C15.1981 18.5427 15.1286 18.4298 15.1012 18.3037C14.4525 15.2437 12.6862 13.6237 9.9975 13.6237C9.84831 13.6237 9.70524 13.5645 9.59975 13.459C9.49426 13.3535 9.435 13.2104 9.435 13.0612C9.435 12.912 9.49426 12.769 9.59975 12.6635C9.70524 12.558 9.84831 12.4987 9.9975 12.4987C13.2375 12.4987 15.4387 14.4787 16.2037 18.0712C16.2203 18.1444 16.2221 18.2201 16.2091 18.294C16.1962 18.3678 16.1686 18.4384 16.1282 18.5015C16.0877 18.5647 16.0351 18.6192 15.9734 18.6618C15.9117 18.7045 15.8421 18.7344 15.7687 18.75C15.7301 18.7537 15.6912 18.7537 15.6525 18.75ZM17.535 14.3475C17.3858 14.3475 17.2427 14.2882 17.1373 14.1827C17.0318 14.0772 16.9725 13.9342 16.9725 13.785V9.53247C16.9725 9.38329 17.0318 9.24021 17.1373 9.13472C17.2427 9.02923 17.3858 8.96997 17.535 8.96997C17.6842 8.96997 17.8273 9.02923 17.9327 9.13472C18.0382 9.24021 18.0975 9.38329 18.0975 9.53247V13.785C18.0965 13.9339 18.0369 14.0764 17.9317 14.1816C17.8264 14.2869 17.6839 14.3465 17.535 14.3475Z" fill="#2639AB" stroke="#2639AB" stroke-width="0.5"/>
<path d="M17.535 12.2213H15.4088C15.2596 12.2213 15.1165 12.162 15.011 12.0565C14.9055 11.951 14.8463 11.8079 14.8463 11.6588C14.8463 11.5096 14.9055 11.3665 15.011 11.261C15.1165 11.1555 15.2596 11.0963 15.4088 11.0963H17.535C17.6842 11.0963 17.8273 11.1555 17.9327 11.261C18.0382 11.3665 18.0975 11.5096 18.0975 11.6588C18.0975 11.8079 18.0382 11.951 17.9327 12.0565C17.8273 12.162 17.6842 12.2213 17.535 12.2213ZM19.6613 12.2213H19.005C18.8558 12.2213 18.7127 12.162 18.6073 12.0565C18.5018 11.951 18.4425 11.8079 18.4425 11.6588C18.4425 11.5096 18.5018 11.3665 18.6073 11.261C18.7127 11.1555 18.8558 11.0963 19.005 11.0963H19.6613C19.8104 11.0963 19.9535 11.1555 20.059 11.261C20.1645 11.3665 20.2238 11.5096 20.2238 11.6588C20.2238 11.8079 20.1645 11.951 20.059 12.0565C19.9535 12.162 19.8104 12.2213 19.6613 12.2213Z" fill="#2639AB" stroke="#2639AB" stroke-width="0.5"/>
</svg>
