<svg width="24" height="24" viewBox="0 0 24 24" fill="none" xmlns="http://www.w3.org/2000/svg">
<path d="M18.9583 6.61335L16.0533 3.70835C15.513 3.16509 14.8703 2.73437 14.1623 2.44114C13.4544 2.14791 12.6954 1.99797 11.9292 2.00002H8.16667C7.062 2.00134 6.00296 2.44076 5.22185 3.22187C4.44073 4.00299 4.00132 5.06203 4 6.16669V17.8334C4.00132 18.938 4.44073 19.9971 5.22185 20.7782C6.00296 21.5593 7.062 21.9987 8.16667 22H16.5C17.6047 21.9987 18.6637 21.5593 19.4448 20.7782C20.2259 19.9971 20.6653 18.938 20.6667 17.8334V10.7375C20.6687 9.97129 20.5188 9.21225 20.2255 8.50434C19.9323 7.79643 19.5016 7.15371 18.9583 6.61335ZM17.78 7.79169C18.0342 8.05369 18.253 8.34786 18.4308 8.66669H14.8333C14.6123 8.66669 14.4004 8.57889 14.2441 8.42261C14.0878 8.26633 14 8.05437 14 7.83335V4.23585C14.3188 4.41367 14.613 4.63248 14.875 4.88669L17.78 7.79169ZM19 17.8334C19 18.4964 18.7366 19.1323 18.2678 19.6011C17.7989 20.07 17.163 20.3334 16.5 20.3334H8.16667C7.50363 20.3334 6.86774 20.07 6.3989 19.6011C5.93006 19.1323 5.66667 18.4964 5.66667 17.8334V6.16669C5.66667 5.50365 5.93006 4.86776 6.3989 4.39892C6.86774 3.93008 7.50363 3.66669 8.16667 3.66669H11.9292C12.0667 3.66669 12.1983 3.69335 12.3333 3.70585V7.83335C12.3333 8.4964 12.5967 9.13228 13.0656 9.60112C13.5344 10.07 14.1703 10.3334 14.8333 10.3334H18.9608C18.9733 10.4684 19 10.6 19 10.7375V17.8334ZM16.27 13.0925C16.4222 13.2526 16.5046 13.4665 16.4991 13.6873C16.4936 13.9081 16.4007 14.1177 16.2408 14.27L13.25 17.115C12.7799 17.5778 12.1459 17.8359 11.4862 17.8333C10.8266 17.8306 10.1947 17.5674 9.72833 17.1009L8.445 15.9559C8.2799 15.8087 8.18004 15.6019 8.16738 15.3811C8.16111 15.2717 8.17644 15.1622 8.2125 15.0588C8.24855 14.9554 8.30462 14.8601 8.3775 14.7784C8.45038 14.6966 8.53865 14.63 8.63727 14.5824C8.73589 14.5347 8.84293 14.507 8.95227 14.5007C9.17309 14.4881 9.3899 14.5637 9.555 14.7109L10.8758 15.8892C10.9514 15.9741 11.0436 16.0426 11.1467 16.0906C11.2498 16.1385 11.3616 16.1649 11.4753 16.168C11.589 16.1711 11.702 16.151 11.8076 16.1088C11.9132 16.0665 12.009 16.0032 12.0892 15.9225L15.0892 13.0634C15.1685 12.9875 15.262 12.9281 15.3644 12.8885C15.4667 12.8489 15.5759 12.8299 15.6856 12.8326C15.7954 12.8353 15.9035 12.8597 16.0038 12.9043C16.104 12.9489 16.1945 13.0128 16.27 13.0925Z" fill="#2639AB"/>
</svg>
